<svg width="83" height="102" viewBox="0 0 83 102" fill="none" xmlns="http://www.w3.org/2000/svg">
<rect width="83" height="81" rx="40" fill="white"/>
<rect width="59" height="69" transform="translate(12 6)" fill="white" fill-opacity="0.01"/>
<mask id="path-2-outside-1_1222_264" maskUnits="userSpaceOnUse" x="28.5029" y="27.5011" width="26" height="26" fill="black">
<rect fill="white" x="28.5029" y="27.5011" width="26" height="26"/>
<path fill-rule="evenodd" clip-rule="evenodd" d="M41.5029 28.5011C41.6421 28.5011 41.7785 28.5398 41.8969 28.6129C42.0153 28.6861 42.1111 28.7907 42.1734 28.9151L42.7179 30.0011H49.7529C50.3497 30.0011 50.922 30.2382 51.3439 30.6601C51.7659 31.0821 52.0029 31.6544 52.0029 32.2511V45.0011H52.7529C52.9518 45.0011 53.1426 45.0801 53.2833 45.2208C53.4239 45.3614 53.5029 45.5522 53.5029 45.7511C53.5029 45.95 53.4239 46.1408 53.2833 46.2814C53.1426 46.4221 52.9518 46.5011 52.7529 46.5011H48.4629L49.7304 51.5696C49.7734 51.7607 49.74 51.9611 49.6371 52.1279C49.5343 52.2946 49.3704 52.4145 49.1803 52.4619C48.9902 52.5094 48.7891 52.4805 48.62 52.3816C48.4509 52.2827 48.3272 52.1215 48.2754 51.9326L47.6679 49.5011H35.3379L34.7304 51.9326C34.6786 52.1215 34.5549 52.2827 34.3858 52.3816C34.2168 52.4805 34.0157 52.5094 33.8256 52.4619C33.6355 52.4145 33.4715 52.2946 33.3687 52.1279C33.2659 51.9611 33.2324 51.7607 33.2754 51.5696L34.5429 46.5011H30.2529C30.054 46.5011 29.8633 46.4221 29.7226 46.2814C29.5819 46.1408 29.5029 45.95 29.5029 45.7511C29.5029 45.5522 29.5819 45.3614 29.7226 45.2208C29.8633 45.0801 30.054 45.0011 30.2529 45.0011H31.0029V32.2511C31.0029 31.6544 31.24 31.0821 31.6619 30.6601C32.0839 30.2382 32.6562 30.0011 33.2529 30.0011H40.2894L40.8324 28.9151C40.8948 28.7907 40.9905 28.6861 41.1089 28.6129C41.2273 28.5398 41.3638 28.5011 41.5029 28.5011ZM32.5029 45.0011H50.5029V32.2511C50.5029 32.0522 50.4239 31.8614 50.2833 31.7208C50.1426 31.5801 49.9518 31.5011 49.7529 31.5011H33.2529C33.054 31.5011 32.8633 31.5801 32.7226 31.7208C32.5819 31.8614 32.5029 32.0522 32.5029 32.2511V45.0011ZM46.9179 46.5011H36.0879L35.7129 48.0011H47.2929L46.9179 46.5011Z"/>
</mask>
<path fill-rule="evenodd" clip-rule="evenodd" d="M41.5029 28.5011C41.6421 28.5011 41.7785 28.5398 41.8969 28.6129C42.0153 28.6861 42.1111 28.7907 42.1734 28.9151L42.7179 30.0011H49.7529C50.3497 30.0011 50.922 30.2382 51.3439 30.6601C51.7659 31.0821 52.0029 31.6544 52.0029 32.2511V45.0011H52.7529C52.9518 45.0011 53.1426 45.0801 53.2833 45.2208C53.4239 45.3614 53.5029 45.5522 53.5029 45.7511C53.5029 45.95 53.4239 46.1408 53.2833 46.2814C53.1426 46.4221 52.9518 46.5011 52.7529 46.5011H48.4629L49.7304 51.5696C49.7734 51.7607 49.74 51.9611 49.6371 52.1279C49.5343 52.2946 49.3704 52.4145 49.1803 52.4619C48.9902 52.5094 48.7891 52.4805 48.62 52.3816C48.4509 52.2827 48.3272 52.1215 48.2754 51.9326L47.6679 49.5011H35.3379L34.7304 51.9326C34.6786 52.1215 34.5549 52.2827 34.3858 52.3816C34.2168 52.4805 34.0157 52.5094 33.8256 52.4619C33.6355 52.4145 33.4715 52.2946 33.3687 52.1279C33.2659 51.9611 33.2324 51.7607 33.2754 51.5696L34.5429 46.5011H30.2529C30.054 46.5011 29.8633 46.4221 29.7226 46.2814C29.5819 46.1408 29.5029 45.95 29.5029 45.7511C29.5029 45.5522 29.5819 45.3614 29.7226 45.2208C29.8633 45.0801 30.054 45.0011 30.2529 45.0011H31.0029V32.2511C31.0029 31.6544 31.24 31.0821 31.6619 30.6601C32.0839 30.2382 32.6562 30.0011 33.2529 30.0011H40.2894L40.8324 28.9151C40.8948 28.7907 40.9905 28.6861 41.1089 28.6129C41.2273 28.5398 41.3638 28.5011 41.5029 28.5011ZM32.5029 45.0011H50.5029V32.2511C50.5029 32.0522 50.4239 31.8614 50.2833 31.7208C50.1426 31.5801 49.9518 31.5011 49.7529 31.5011H33.2529C33.054 31.5011 32.8633 31.5801 32.7226 31.7208C32.5819 31.8614 32.5029 32.0522 32.5029 32.2511V45.0011ZM46.9179 46.5011H36.0879L35.7129 48.0011H47.2929L46.9179 46.5011Z" fill="#004876"/>
<path d="M42.1734 28.9151L41.7264 29.1391L41.7265 29.1392L42.1734 28.9151ZM42.7179 30.0011L42.271 30.2252L42.4093 30.5011H42.7179V30.0011ZM52.0029 32.2511H52.5029H52.0029ZM52.0029 45.0011H51.5029V45.5011H52.0029V45.0011ZM48.4629 46.5011V46.0011H47.8225L47.9779 46.6224L48.4629 46.5011ZM49.7304 51.5696L50.2184 51.4598L50.2155 51.4483L49.7304 51.5696ZM48.2754 51.9326L47.7902 52.0538L47.7932 52.0648L48.2754 51.9326ZM47.6679 49.5011L48.153 49.3799L48.0584 49.0011H47.6679V49.5011ZM35.3379 49.5011V49.0011H34.9475L34.8528 49.3799L35.3379 49.5011ZM34.7304 51.9326L35.2128 52.0649L35.2155 52.0538L34.7304 51.9326ZM33.2754 51.5696L32.7902 51.4483L32.7876 51.4598L33.2754 51.5696ZM34.5429 46.5011L35.028 46.6224L35.1834 46.0011H34.5429V46.5011ZM29.5029 45.7511H29.0029H29.5029ZM31.0029 45.0011V45.5011H31.5029V45.0011H31.0029ZM31.0029 32.2511H30.5029H31.0029ZM33.2529 30.0011V29.5011V30.0011ZM40.2894 30.0011V30.5011H40.5984L40.7366 30.2247L40.2894 30.0011ZM40.8324 28.9151L40.3854 28.6911L40.3852 28.6915L40.8324 28.9151ZM32.5029 45.0011H32.0029V45.5011H32.5029V45.0011ZM50.5029 45.0011V45.5011H51.0029V45.0011H50.5029ZM49.7529 31.5011V31.0011V31.5011ZM32.5029 32.2511H32.0029H32.5029ZM46.9179 46.5011L47.403 46.3798L47.3083 46.0011H46.9179V46.5011ZM36.0879 46.5011V46.0011H35.6975L35.6029 46.3798L36.0879 46.5011ZM35.7129 48.0011L35.2279 47.8798L35.0725 48.5011H35.7129V48.0011ZM47.2929 48.0011V48.5011H47.9333L47.778 47.8798L47.2929 48.0011ZM41.5029 29.0011C41.5493 29.0011 41.5948 29.014 41.6342 29.0384L42.1596 28.1875C41.9623 28.0656 41.7349 28.0011 41.5029 28.0011L41.5029 29.0011ZM41.6342 29.0384C41.6737 29.0628 41.7056 29.0976 41.7264 29.1391L42.6204 28.6911C42.5165 28.4837 42.357 28.3094 42.1596 28.1875L41.6342 29.0384ZM41.7265 29.1392L42.271 30.2252L43.1649 29.777L42.6204 28.691L41.7265 29.1392ZM42.7179 30.5011H49.7529V29.5011H42.7179V30.5011ZM49.7529 30.5011C50.2171 30.5011 50.6622 30.6855 50.9904 31.0137L51.6975 30.3066C51.1817 29.7908 50.4823 29.5011 49.7529 29.5011V30.5011ZM50.9904 31.0137C51.3186 31.3419 51.5029 31.787 51.5029 32.2511H52.5029C52.5029 31.5218 52.2132 30.8223 51.6975 30.3066L50.9904 31.0137ZM51.5029 32.2511V45.0011H52.5029V32.2511H51.5029ZM52.0029 45.5011H52.7529V44.5011H52.0029V45.5011ZM52.7529 45.5011C52.8192 45.5011 52.8828 45.5274 52.9297 45.5743L53.6368 44.8672C53.4024 44.6328 53.0844 44.5011 52.7529 44.5011V45.5011ZM52.9297 45.5743C52.9766 45.6212 53.0029 45.6848 53.0029 45.7511H54.0029C54.0029 45.4196 53.8712 45.1016 53.6368 44.8672L52.9297 45.5743ZM53.0029 45.7511C53.0029 45.8174 52.9766 45.881 52.9297 45.9279L53.6368 46.635C53.8712 46.4006 54.0029 46.0826 54.0029 45.7511H53.0029ZM52.9297 45.9279C52.8828 45.9748 52.8192 46.0011 52.7529 46.0011V47.0011C53.0844 47.0011 53.4024 46.8694 53.6368 46.635L52.9297 45.9279ZM52.7529 46.0011H48.4629V47.0011H52.7529V46.0011ZM47.9779 46.6224L49.2454 51.6909L50.2155 51.4483L48.948 46.3798L47.9779 46.6224ZM49.2426 51.6794C49.257 51.7431 49.2458 51.8099 49.2115 51.8655L50.0628 52.3903C50.2341 52.1123 50.2899 51.7784 50.2182 51.4598L49.2426 51.6794ZM49.2115 51.8655C49.1773 51.921 49.1226 51.961 49.0592 51.9768L49.3013 52.9471C49.6181 52.868 49.8914 52.6682 50.0628 52.3903L49.2115 51.8655ZM49.0592 51.9768C48.9959 51.9926 48.9289 51.983 48.8725 51.95L48.3675 52.8132C48.6494 52.9781 48.9845 53.0261 49.3013 52.9471L49.0592 51.9768ZM48.8725 51.95C48.8161 51.9171 48.7749 51.8633 48.7576 51.8004L47.7932 52.0648C47.8796 52.3797 48.0857 52.6483 48.3675 52.8132L48.8725 51.95ZM48.7605 51.8114L48.153 49.3799L47.1828 49.6223L47.7903 52.0538L48.7605 51.8114ZM47.6679 49.0011H35.3379V50.0011H47.6679V49.0011ZM34.8528 49.3799L34.2453 51.8114L35.2155 52.0538L35.823 49.6223L34.8528 49.3799ZM34.2482 51.8004C34.231 51.8633 34.1897 51.9171 34.1334 51.95L34.6383 52.8132C34.9201 52.6483 35.1263 52.3797 35.2126 52.0648L34.2482 51.8004ZM34.1334 51.95C34.077 51.983 34.01 51.9926 33.9466 51.9768L33.7046 52.9471C34.0214 53.0261 34.3565 52.9781 34.6383 52.8132L34.1334 51.95ZM33.9466 51.9768C33.8833 51.961 33.8286 51.921 33.7943 51.8655L32.9431 52.3903C33.1145 52.6682 33.3878 52.868 33.7046 52.9471L33.9466 51.9768ZM33.7943 51.8655C33.7601 51.8099 33.7489 51.7431 33.7632 51.6794L32.7876 51.4598C32.7159 51.7784 32.7717 52.1123 32.9431 52.3903L33.7943 51.8655ZM33.7605 51.6909L35.028 46.6224L34.0579 46.3798L32.7904 51.4483L33.7605 51.6909ZM34.5429 46.0011H30.2529V47.0011H34.5429V46.0011ZM30.2529 46.0011C30.1866 46.0011 30.123 45.9748 30.0762 45.9279L29.369 46.635C29.6035 46.8694 29.9214 47.0011 30.2529 47.0011V46.0011ZM30.0762 45.9279C30.0293 45.881 30.0029 45.8174 30.0029 45.7511H29.0029C29.0029 46.0826 29.1346 46.4006 29.369 46.635L30.0762 45.9279ZM30.0029 45.7511C30.0029 45.6848 30.0293 45.6212 30.0762 45.5743L29.369 44.8672C29.1346 45.1016 29.0029 45.4196 29.0029 45.7511H30.0029ZM30.0762 45.5743C30.123 45.5274 30.1866 45.5011 30.2529 45.5011V44.5011C29.9214 44.5011 29.6035 44.6328 29.369 44.8672L30.0762 45.5743ZM30.2529 45.5011H31.0029V44.5011H30.2529V45.5011ZM31.5029 45.0011V32.2511H30.5029V45.0011H31.5029ZM31.5029 32.2511C31.5029 31.787 31.6873 31.3419 32.0155 31.0137L31.3084 30.3066C30.7927 30.8223 30.5029 31.5218 30.5029 32.2511H31.5029ZM32.0155 31.0137C32.3437 30.6855 32.7888 30.5011 33.2529 30.5011V29.5011C32.5236 29.5011 31.8241 29.7908 31.3084 30.3066L32.0155 31.0137ZM33.2529 30.5011H40.2894V29.5011H33.2529V30.5011ZM40.7366 30.2247L41.2796 29.1387L40.3852 28.6915L39.8422 29.7775L40.7366 30.2247ZM41.2794 29.1391C41.3002 29.0976 41.3321 29.0628 41.3716 29.0384L40.8462 28.1875C40.6489 28.3094 40.4893 28.4837 40.3854 28.6911L41.2794 29.1391ZM41.3716 29.0384C41.4111 29.014 41.4566 29.0011 41.5029 29.0011L41.5029 28.0011C41.271 28.0011 41.0436 28.0656 40.8462 28.1875L41.3716 29.0384ZM32.5029 45.5011H50.5029V44.5011H32.5029V45.5011ZM51.0029 45.0011V32.2511H50.0029V45.0011H51.0029ZM51.0029 32.2511C51.0029 31.9196 50.8712 31.6016 50.6368 31.3672L49.9297 32.0743C49.9766 32.1212 50.0029 32.1848 50.0029 32.2511H51.0029ZM50.6368 31.3672C50.4024 31.1328 50.0844 31.0011 49.7529 31.0011V32.0011C49.8192 32.0011 49.8828 32.0274 49.9297 32.0743L50.6368 31.3672ZM49.7529 31.0011H33.2529V32.0011H49.7529V31.0011ZM33.2529 31.0011C32.9214 31.0011 32.6035 31.1328 32.369 31.3672L33.0762 32.0743C33.123 32.0274 33.1866 32.0011 33.2529 32.0011V31.0011ZM32.369 31.3672C32.1346 31.6016 32.0029 31.9196 32.0029 32.2511H33.0029C33.0029 32.1848 33.0293 32.1212 33.0762 32.0743L32.369 31.3672ZM32.0029 32.2511V45.0011H33.0029V32.2511H32.0029ZM46.9179 46.0011H36.0879V47.0011H46.9179V46.0011ZM35.6029 46.3798L35.2279 47.8798L36.198 48.1224L36.573 46.6224L35.6029 46.3798ZM35.7129 48.5011H47.2929V47.5011H35.7129V48.5011ZM47.778 47.8798L47.403 46.3798L46.4329 46.6224L46.8079 48.1224L47.778 47.8798Z" fill="#005487" mask="url(#path-2-outside-1_1222_264)"/>
<rect x="3" y="74" width="77" height="28" rx="14" fill="#006098"/>
<g clip-path="url(#clip0_1222_264)">
<path d="M32.3413 93H22.7733C22.144 93 21.616 92.9573 21.1893 92.872C20.7626 92.776 20.4213 92.6267 20.1653 92.424C19.9093 92.2213 19.7226 91.96 19.6053 91.64C19.4986 91.32 19.4453 90.9307 19.4453 90.472V87.832H21.5413V90.168C21.5413 90.3707 21.568 90.536 21.6213 90.664C21.6746 90.792 21.7706 90.8933 21.9093 90.968C22.048 91.0427 22.2346 91.096 22.4693 91.128C22.704 91.1493 23.0026 91.16 23.3653 91.16H30.2613V86.632H32.3413V93ZM23.5413 84.792C23.5413 84.4827 23.6533 84.216 23.8773 83.992C24.1013 83.768 24.368 83.656 24.6773 83.656C24.9866 83.656 25.2533 83.768 25.4773 83.992C25.7013 84.216 25.8133 84.4827 25.8133 84.792C25.8133 85.1013 25.7013 85.368 25.4773 85.592C25.2533 85.816 24.9866 85.928 24.6773 85.928C24.368 85.928 24.1013 85.816 23.8773 85.592C23.6533 85.368 23.5413 85.1013 23.5413 84.792ZM26.1493 84.792C26.1493 84.4827 26.2613 84.216 26.4853 83.992C26.7093 83.768 26.976 83.656 27.2853 83.656C27.5946 83.656 27.8613 83.768 28.0853 83.992C28.3093 84.216 28.4213 84.4827 28.4213 84.792C28.4213 85.1013 28.3093 85.368 28.0853 85.592C27.8613 85.816 27.5946 85.928 27.2853 85.928C26.976 85.928 26.7093 85.816 26.4853 85.592C26.2613 85.368 26.1493 85.1013 26.1493 84.792ZM38.0407 92.04C38.0407 92.4027 37.9874 92.6533 37.8807 92.792C37.7847 92.9307 37.63 93 37.4167 93H36.7447C36.382 93 36.046 92.9627 35.7367 92.888C35.438 92.8027 35.1767 92.6693 34.9527 92.488C34.7394 92.296 34.5687 92.0453 34.4407 91.736C34.3234 91.4267 34.2647 91.0427 34.2647 90.584V81.576H36.3447V90.296C36.3447 90.6693 36.4087 90.9093 36.5367 91.016C36.6754 91.112 36.8674 91.16 37.1127 91.16H37.4167C37.502 91.16 37.582 91.1707 37.6567 91.192C37.7314 91.2027 37.7954 91.24 37.8487 91.304C37.9127 91.3573 37.9607 91.4427 37.9927 91.56C38.0247 91.6773 38.0407 91.8373 38.0407 92.04ZM39.0944 83.864C39.0944 83.5547 39.2064 83.288 39.4304 83.064C39.6544 82.84 39.9211 82.728 40.2304 82.728C40.5398 82.728 40.8064 82.84 41.0304 83.064C41.2544 83.288 41.3664 83.5547 41.3664 83.864C41.3664 84.1733 41.2544 84.44 41.0304 84.664C40.8064 84.888 40.5398 85 40.2304 85C39.9211 85 39.6544 84.888 39.4304 84.664C39.2064 84.44 39.0944 84.1733 39.0944 83.864ZM39.2224 91.16V86.632H41.3184V93H37.3824C37.2971 93 37.2171 92.9947 37.1424 92.984C37.0678 92.9627 37.0038 92.9253 36.9504 92.872C36.8864 92.808 36.8384 92.7173 36.8064 92.6C36.7744 92.4827 36.7584 92.3227 36.7584 92.12C36.7584 91.7573 36.8118 91.5067 36.9184 91.368C37.0144 91.2293 37.1691 91.16 37.3824 91.16H39.2224ZM53.0574 93C52.7481 93 52.4441 92.952 52.1454 92.856C51.8468 92.7493 51.6014 92.5253 51.4094 92.184C51.2814 92.3653 51.1268 92.5147 50.9454 92.632C50.7748 92.7387 50.5881 92.8187 50.3854 92.872C50.1828 92.9253 49.9694 92.9627 49.7454 92.984C49.5321 92.9947 49.3134 93 49.0894 93H42.7534V91.16H45.6334V85.512H47.7134V91.16H48.7534C49.1161 91.16 49.3668 91.1067 49.5054 91C49.6548 90.8827 49.7294 90.6267 49.7294 90.232V81.576H51.8094V90.056C51.8094 90.4507 51.8894 90.7333 52.0494 90.904C52.2094 91.0747 52.5454 91.16 53.0574 91.16C53.1428 91.16 53.2228 91.1707 53.2974 91.192C53.3721 91.2027 53.4361 91.24 53.4894 91.304C53.5534 91.3573 53.6014 91.4427 53.6334 91.56C53.6654 91.6773 53.6814 91.8373 53.6814 92.04C53.6814 92.4027 53.6281 92.6533 53.5214 92.792C53.4254 92.9307 53.2708 93 53.0574 93ZM54.2387 91.16C54.132 90.9573 54.052 90.7173 53.9987 90.44C53.9454 90.152 53.9187 89.9067 53.9187 89.704C53.9187 89.1387 54.0254 88.648 54.2387 88.232C54.452 87.816 54.7294 87.4747 55.0707 87.208C55.412 86.9307 55.7907 86.728 56.2067 86.6C56.6334 86.4613 57.06 86.392 57.4867 86.392C57.828 86.392 58.1694 86.4293 58.5107 86.504C58.8627 86.5787 59.1294 86.6533 59.3107 86.728V88.616C58.98 88.5627 58.6387 88.5093 58.2867 88.456C57.9347 88.4027 57.6894 88.376 57.5507 88.376C56.9214 88.376 56.4734 88.5093 56.2067 88.776C55.94 89.0427 55.8067 89.368 55.8067 89.752C55.8067 90.1787 55.9347 90.52 56.1907 90.776C56.4574 91.032 56.9107 91.16 57.5507 91.16H60.0787V93H53.0547C52.9694 93 52.8894 92.9947 52.8147 92.984C52.74 92.9627 52.676 92.9253 52.6227 92.872C52.5587 92.808 52.5107 92.7173 52.4787 92.6C52.4467 92.4827 52.4307 92.3227 52.4307 92.12C52.4307 91.7573 52.484 91.5067 52.5907 91.368C52.6867 91.2293 52.8414 91.16 53.0547 91.16H54.2387ZM63.5943 81.576V93H61.5303V81.576H63.5943Z" fill="white"/>
</g>
<defs>
<clipPath id="clip0_1222_264">
<rect width="46" height="16" fill="white" transform="translate(19 78)"/>
</clipPath>
</defs>
</svg>
