<svg width="33" height="30" viewBox="0 0 33 30" fill="none" xmlns="http://www.w3.org/2000/svg">
<g id="banknotes 1">
<path id="Vector" d="M32 12.6421C31.9997 12.4971 31.9195 12.3632 31.7897 12.291L29.6601 11.1073L31.7906 9.91729C31.9204 9.8447 32.0003 9.71063 32 9.56562C31.9997 9.4206 31.9195 9.28677 31.7897 9.21458C28.1594 7.19772 24.5293 5.18005 20.8995 3.16185C20.7699 3.08978 20.6109 3.08995 20.4814 3.16226L1.20974 13.93C1.07992 14.0025 1 14.1366 1.0003 14.2815C1.00061 14.4265 1.08047 14.5603 1.21058 14.6326C1.92031 15.0273 2.63023 15.4215 3.34002 15.8162L1.20943 17.0064C1.07962 17.0789 0.999698 17.213 1 17.3579C1.0003 17.5029 1.08047 17.6368 1.21028 17.709L3.33983 18.8926L1.20943 20.0827C1.07962 20.1553 0.999698 20.2894 1 20.4343C1.0003 20.5793 1.08047 20.7133 1.21028 20.7854L12.1005 26.8382C12.1652 26.8741 12.2372 26.892 12.3092 26.892C12.3815 26.892 12.4537 26.8739 12.5186 26.8376L31.7905 16.07C31.9203 15.9976 32.0002 15.8634 31.9999 15.7184C31.9996 15.5735 31.9195 15.4396 31.7897 15.3674L29.6601 14.1839L31.7905 12.9936C31.9204 12.9211 32.0003 12.787 32 12.6421ZM20.6914 3.98122C24.0411 5.84368 27.3911 7.70562 30.7413 9.56702L23.4877 13.6188C23.2569 13.4923 22.8336 13.2581 22.2831 12.9526L26.4067 10.65C26.5057 10.5945 26.5772 10.5024 26.6042 10.3948C26.6314 10.2874 26.6118 10.1738 26.5502 10.0805C26.4615 9.94612 26.3314 9.67888 26.4574 9.39897C26.5425 9.2096 26.4667 8.98853 26.2818 8.88575L21.8236 6.40618C21.7156 6.34624 21.5856 6.33569 21.4685 6.37794C20.8958 6.58489 20.1142 6.55214 19.4779 6.29491C19.3579 6.24663 19.2201 6.25454 19.107 6.318L14.7432 8.75649C14.5826 8.66696 14.4284 8.58107 14.2861 8.50179L13.4413 8.03116L20.6914 3.98122ZM25.6532 10.1345L21.4424 12.4859C19.7266 11.5325 17.363 10.2161 15.5825 9.22413L19.3533 7.11669C20.0747 7.36067 20.8904 7.39132 21.5685 7.19954L25.5837 9.43272C25.5482 9.66347 25.5719 9.90235 25.6532 10.1345ZM9.50435 10.2305C9.90905 10.4555 10.3138 10.6803 10.7186 10.9053L6.60192 13.2067C6.50292 13.262 6.43148 13.3541 6.40448 13.4616C6.37723 13.5692 6.39685 13.6827 6.45848 13.776C6.54712 13.9103 6.67724 14.1776 6.55148 14.4572C6.46642 14.6466 6.54222 14.8676 6.72713 14.9704L11.1839 17.4461C11.2916 17.5062 11.4222 17.5166 11.539 17.4744C12.1111 17.2676 12.8928 17.3 13.5299 17.557C13.5815 17.578 13.6363 17.5883 13.6911 17.5883C13.7636 17.5883 13.8362 17.57 13.9005 17.5339L14.5873 17.1501C15.8123 16.4654 17.0372 15.7809 18.2624 15.097L19.5556 15.8153L12.3085 19.8658C8.95828 18.0046 5.60774 16.1427 2.25829 14.2801L9.50435 10.2305ZM7.35549 13.7218L11.5585 11.3721C13.3312 12.3573 15.104 13.3426 16.8769 14.3274L17.4222 14.6303C16.3374 15.236 15.2529 15.8419 14.1684 16.448L13.6543 16.7354C12.9324 16.4914 12.1172 16.4614 11.4389 16.6529L7.42536 14.4234C7.46053 14.1928 7.4368 13.9539 7.35549 13.7218ZM4.17992 16.283C6.82001 17.7507 9.46003 19.2183 12.1005 20.6852C12.1652 20.7211 12.2372 20.739 12.3092 20.739C12.3815 20.739 12.454 20.7209 12.5186 20.6847L19.9774 16.5158L19.9827 18.6548L12.3086 22.9423L2.25841 17.3565L4.17992 16.283ZM12.3086 26.0188L2.25841 20.433L4.1801 19.3596L12.1005 23.7618C12.1652 23.7977 12.2372 23.8156 12.3092 23.8156C12.3815 23.8156 12.4537 23.7975 12.5186 23.7612L19.9851 19.5896L19.9905 21.727L12.3086 26.0188ZM20.8272 21.2595L20.8135 15.8131C20.8133 15.6682 20.7331 15.5344 20.6033 15.4624C20.6033 15.4624 12.6596 11.0498 10.3431 9.76179L12.6029 8.49962C12.6029 8.49962 22.3758 13.9449 23.0734 14.3131L23.0851 19.9977L20.8272 21.2595ZM30.7416 15.7199L23.922 19.5303L23.9176 17.3924L28.8212 14.6527L30.7416 15.7199ZM23.9156 16.4573L23.9112 14.3186L28.821 11.576L30.7416 12.6434L23.9156 16.4573ZM11.0903 15.0649C10.9747 14.871 11.0432 14.6231 11.2436 14.5112L13.0789 13.4857C13.2788 13.3736 13.5354 13.4399 13.651 13.6341C13.7667 13.828 13.6982 14.0759 13.4977 14.1878L11.6625 15.2133C11.5965 15.2503 11.5245 15.2677 11.4533 15.2677C11.3088 15.2676 11.1678 15.1951 11.0903 15.0649ZM22.1516 8.88405C22.2672 9.07794 22.1987 9.32591 21.9983 9.43776L20.3842 10.3396C20.3182 10.3766 20.2462 10.394 20.175 10.394C20.0305 10.394 19.8895 10.3214 19.812 10.1913C19.6964 9.99745 19.7649 9.74948 19.9653 9.63763L21.5794 8.73575C21.7796 8.62372 22.0359 8.68981 22.1516 8.88405Z" fill="#004876" stroke="#004876" stroke-width="0.8"/>
</g>
</svg>
