<svg width="39" height="39" viewBox="0 0 39 39" fill="none" xmlns="http://www.w3.org/2000/svg">
<rect width="39" height="39" rx="19.5" fill="white"/>
<g clip-path="url(#clip0_395_39055)">
<rect width="24" height="24" transform="translate(7.5 7.5)" fill="white" fill-opacity="0.01"/>
<path fill-rule="evenodd" clip-rule="evenodd" d="M19.502 12.5C19.5831 12.5 19.6627 12.5226 19.7318 12.5652C19.8009 12.6079 19.8567 12.6689 19.8931 12.7415L20.2107 13.375H24.3145C24.6625 13.375 24.9964 13.5133 25.2425 13.7594C25.4887 14.0056 25.627 14.3394 25.627 14.6875V22.125H26.0645C26.1805 22.125 26.2918 22.1711 26.3738 22.2531C26.4559 22.3352 26.502 22.4465 26.502 22.5625C26.502 22.6785 26.4559 22.7898 26.3738 22.8719C26.2918 22.9539 26.1805 23 26.0645 23H23.562L24.3013 25.9566C24.3264 26.0681 24.3069 26.185 24.2469 26.2823C24.1869 26.3795 24.0913 26.4495 23.9804 26.4772C23.8695 26.5048 23.7522 26.488 23.6536 26.4303C23.5549 26.3726 23.4828 26.2786 23.4526 26.1684L23.0982 24.75H15.9057L15.5513 26.1684C15.5211 26.2786 15.449 26.3726 15.3503 26.4303C15.2517 26.488 15.1344 26.5048 15.0235 26.4772C14.9126 26.4495 14.817 26.3795 14.757 26.2823C14.697 26.185 14.6775 26.0681 14.7026 25.9566L15.442 23H12.9395C12.8234 23 12.7121 22.9539 12.6301 22.8719C12.548 22.7898 12.502 22.6785 12.502 22.5625C12.502 22.4465 12.548 22.3352 12.6301 22.2531C12.7121 22.1711 12.8234 22.125 12.9395 22.125H13.377V14.6875C13.377 14.3394 13.5152 14.0056 13.7614 13.7594C14.0075 13.5133 14.3414 13.375 14.6895 13.375H18.7941L19.1108 12.7415C19.1472 12.6689 19.203 12.6079 19.2721 12.5652C19.3412 12.5226 19.4208 12.5 19.502 12.5ZM14.252 22.125H24.752V14.6875C24.752 14.5715 24.7059 14.4602 24.6238 14.3781C24.5418 14.2961 24.4305 14.25 24.3145 14.25H14.6895C14.5734 14.25 14.4621 14.2961 14.3801 14.3781C14.298 14.4602 14.252 14.5715 14.252 14.6875V22.125ZM22.6607 23H16.3432L16.1245 23.875H22.8795L22.6607 23Z" fill="#005487"/>
<path d="M19.8931 12.7415L19.7143 12.8311L19.7143 12.8311L19.8931 12.7415ZM20.2107 13.375L20.0319 13.4646L20.0872 13.575H20.2107V13.375ZM25.627 22.125H25.427V22.325H25.627V22.125ZM23.562 23V22.8H23.3058L23.3679 23.0485L23.562 23ZM24.3013 25.9566L24.4965 25.9127L24.4954 25.9081L24.3013 25.9566ZM23.4526 26.1684L23.2585 26.2169L23.2597 26.2213L23.4526 26.1684ZM23.0982 24.75L23.2922 24.7015L23.2544 24.55H23.0982V24.75ZM15.9057 24.75V24.55H15.7495L15.7117 24.7015L15.9057 24.75ZM15.5513 26.1684L15.7443 26.2213L15.7454 26.2169L15.5513 26.1684ZM14.7026 25.9566L14.5085 25.9081L14.5075 25.9127L14.7026 25.9566ZM15.442 23L15.636 23.0485L15.6981 22.8H15.442V23ZM13.377 22.125V22.325H13.577V22.125H13.377ZM18.7941 13.375V13.575H18.9177L18.973 13.4644L18.7941 13.375ZM19.1108 12.7415L18.932 12.6519L18.9319 12.6521L19.1108 12.7415ZM14.252 22.125H14.052V22.325H14.252V22.125ZM24.752 22.125V22.325H24.952V22.125H24.752ZM22.6607 23L22.8547 22.9515L22.8169 22.8H22.6607V23ZM16.3432 23V22.8H16.187L16.1492 22.9515L16.3432 23ZM16.1245 23.875L15.9304 23.8265L15.8683 24.075H16.1245V23.875ZM22.8795 23.875V24.075H23.1356L23.0735 23.8265L22.8795 23.875ZM19.5019 12.7C19.546 12.7 19.5892 12.7123 19.6267 12.7354L19.8369 12.3951C19.7362 12.3329 19.6203 12.3 19.502 12.3L19.5019 12.7ZM19.6267 12.7354C19.6642 12.7586 19.6945 12.7917 19.7143 12.8311L20.0719 12.6519C20.0189 12.5461 19.9375 12.4572 19.8369 12.3951L19.6267 12.7354ZM19.7143 12.8311L20.0319 13.4646L20.3895 13.2854L20.0719 12.6519L19.7143 12.8311ZM20.2107 13.575H24.3145V13.175H20.2107V13.575ZM24.3145 13.575C24.6095 13.575 24.8925 13.6922 25.1011 13.9008L25.384 13.618C25.1003 13.3344 24.7156 13.175 24.3145 13.175V13.575ZM25.1011 13.9008C25.3097 14.1095 25.427 14.3924 25.427 14.6875H25.827C25.827 14.2864 25.6676 13.9016 25.384 13.618L25.1011 13.9008ZM25.427 14.6875V22.125H25.827V14.6875H25.427ZM25.627 22.325H26.0645V21.925H25.627V22.325ZM26.0645 22.325C26.1274 22.325 26.1879 22.35 26.2324 22.3946L26.5152 22.1117C26.3957 21.9922 26.2335 21.925 26.0645 21.925V22.325ZM26.2324 22.3946C26.2769 22.4391 26.302 22.4995 26.302 22.5625H26.702C26.702 22.3934 26.6348 22.2313 26.5152 22.1117L26.2324 22.3946ZM26.302 22.5625C26.302 22.6255 26.2769 22.6859 26.2324 22.7304L26.5152 23.0133C26.6348 22.8937 26.702 22.7316 26.702 22.5625H26.302ZM26.2324 22.7304C26.1879 22.775 26.1274 22.8 26.0645 22.8V23.2C26.2335 23.2 26.3957 23.1328 26.5152 23.0133L26.2324 22.7304ZM26.0645 22.8H23.562V23.2H26.0645V22.8ZM23.3679 23.0485L24.1073 26.0051L24.4954 25.9081L23.756 22.9515L23.3679 23.0485ZM24.1062 26.0005C24.1198 26.0611 24.1092 26.1245 24.0767 26.1773L24.4172 26.3872C24.5045 26.2455 24.533 26.0752 24.4964 25.9127L24.1062 26.0005ZM24.0767 26.1773C24.0441 26.2301 23.9922 26.2681 23.932 26.2831L24.0288 26.6712C24.1904 26.6309 24.3298 26.529 24.4172 26.3872L24.0767 26.1773ZM23.932 26.2831C23.8718 26.2981 23.8081 26.289 23.7546 26.2577L23.5526 26.6029C23.6963 26.687 23.8672 26.7115 24.0288 26.6712L23.932 26.2831ZM23.7546 26.2577C23.701 26.2263 23.6619 26.1753 23.6455 26.1155L23.2597 26.2213C23.3037 26.3819 23.4089 26.5188 23.5526 26.6029L23.7546 26.2577ZM23.6466 26.1199L23.2922 24.7015L22.9042 24.7985L23.2585 26.2169L23.6466 26.1199ZM23.0982 24.55H15.9057V24.95H23.0982V24.55ZM15.7117 24.7015L15.3573 26.1199L15.7454 26.2169L16.0997 24.7985L15.7117 24.7015ZM15.3584 26.1155C15.342 26.1753 15.3029 26.2263 15.2493 26.2577L15.4513 26.6029C15.595 26.5188 15.7002 26.3819 15.7442 26.2213L15.3584 26.1155ZM15.2493 26.2577C15.1958 26.289 15.1321 26.2981 15.0719 26.2831L14.9751 26.6712C15.1367 26.7115 15.3076 26.687 15.4513 26.6029L15.2493 26.2577ZM15.0719 26.2831C15.0117 26.2681 14.9598 26.2301 14.9272 26.1773L14.5867 26.3872C14.6741 26.529 14.8135 26.6309 14.9751 26.6712L15.0719 26.2831ZM14.9272 26.1773C14.8947 26.1245 14.8841 26.0611 14.8977 26.0005L14.5075 25.9127C14.4709 26.0752 14.4994 26.2455 14.5867 26.3872L14.9272 26.1773ZM14.8966 26.0051L15.636 23.0485L15.2479 22.9515L14.5086 25.9081L14.8966 26.0051ZM15.442 22.8H12.9395V23.2H15.442V22.8ZM12.9395 22.8C12.8765 22.8 12.8161 22.775 12.7715 22.7304L12.4887 23.0133C12.6082 23.1328 12.7704 23.2 12.9395 23.2V22.8ZM12.7715 22.7304C12.727 22.6859 12.702 22.6255 12.702 22.5625H12.302C12.302 22.7316 12.3691 22.8937 12.4887 23.0133L12.7715 22.7304ZM12.702 22.5625C12.702 22.4995 12.727 22.4391 12.7715 22.3946L12.4887 22.1117C12.3691 22.2313 12.302 22.3934 12.302 22.5625H12.702ZM12.7715 22.3946C12.8161 22.35 12.8765 22.325 12.9395 22.325V21.925C12.7704 21.925 12.6082 21.9922 12.4887 22.1117L12.7715 22.3946ZM12.9395 22.325H13.377V21.925H12.9395V22.325ZM13.577 22.125V14.6875H13.177V22.125H13.577ZM13.577 14.6875C13.577 14.3924 13.6942 14.1095 13.9028 13.9008L13.62 13.618C13.3363 13.9016 13.177 14.2864 13.177 14.6875H13.577ZM13.9028 13.9008C14.1114 13.6922 14.3944 13.575 14.6895 13.575V13.175C14.2883 13.175 13.9036 13.3344 13.62 13.618L13.9028 13.9008ZM14.6895 13.575H18.7941V13.175H14.6895V13.575ZM18.973 13.4644L19.2897 12.8309L18.9319 12.6521L18.6152 13.2856L18.973 13.4644ZM19.2896 12.8311C19.3094 12.7917 19.3397 12.7586 19.3772 12.7354L19.167 12.3951C19.0664 12.4572 18.985 12.5461 18.932 12.6519L19.2896 12.8311ZM19.3772 12.7354C19.4147 12.7123 19.4579 12.7 19.502 12.7L19.5019 12.3C19.3837 12.3 19.2677 12.3329 19.167 12.3951L19.3772 12.7354ZM14.252 22.325H24.752V21.925H14.252V22.325ZM24.952 22.125V14.6875H24.552V22.125H24.952ZM24.952 14.6875C24.952 14.5184 24.8848 14.3563 24.7652 14.2367L24.4824 14.5196C24.5269 14.5641 24.552 14.6245 24.552 14.6875H24.952ZM24.7652 14.2367C24.6457 14.1172 24.4835 14.05 24.3145 14.05V14.45C24.3774 14.45 24.4379 14.475 24.4824 14.5196L24.7652 14.2367ZM24.3145 14.05H14.6895V14.45H24.3145V14.05ZM14.6895 14.05C14.5204 14.05 14.3582 14.1172 14.2387 14.2367L14.5215 14.5196C14.5661 14.475 14.6265 14.45 14.6895 14.45V14.05ZM14.2387 14.2367C14.1191 14.3563 14.052 14.5184 14.052 14.6875H14.452C14.452 14.6245 14.477 14.5641 14.5215 14.5196L14.2387 14.2367ZM14.052 14.6875V22.125H14.452V14.6875H14.052ZM22.6607 22.8H16.3432V23.2H22.6607V22.8ZM16.1492 22.9515L15.9304 23.8265L16.3185 23.9235L16.5372 23.0485L16.1492 22.9515ZM16.1245 24.075H22.8795V23.675H16.1245V24.075ZM23.0735 23.8265L22.8547 22.9515L22.4667 23.0485L22.6854 23.9235L23.0735 23.8265Z" fill="#005487"/>
</g>
<defs>
<clipPath id="clip0_395_39055">
<rect width="24" height="24" fill="white" transform="translate(7.5 7.5)"/>
</clipPath>
</defs>
</svg>
