<svg width="39" height="39" viewBox="0 0 39 39" fill="none" xmlns="http://www.w3.org/2000/svg">
<rect width="39" height="39" rx="19.5" fill="white"/>
<g clip-path="url(#clip0_395_39054)">
<rect width="15" height="14" transform="translate(12 12.5)" fill="white" fill-opacity="0.01"/>
<path d="M12.9395 21.1625C13.0555 21.1625 13.1668 21.2086 13.2488 21.2906C13.3309 21.3727 13.377 21.484 13.377 21.6V23.7875C13.377 24.0196 13.4691 24.2421 13.6332 24.4062C13.7973 24.5703 14.0199 24.6625 14.252 24.6625H24.752C24.984 24.6625 25.2066 24.5703 25.3707 24.4062C25.5348 24.2421 25.627 24.0196 25.627 23.7875V21.6C25.627 21.484 25.673 21.3727 25.7551 21.2906C25.8371 21.2086 25.9484 21.1625 26.0645 21.1625C26.1805 21.1625 26.2918 21.2086 26.3738 21.2906C26.4559 21.3727 26.502 21.484 26.502 21.6V23.7875C26.502 24.2516 26.3176 24.6967 25.9894 25.0249C25.6612 25.3531 25.2161 25.5375 24.752 25.5375H14.252C13.7878 25.5375 13.3427 25.3531 13.0145 25.0249C12.6863 24.6967 12.502 24.2516 12.502 23.7875V21.6C12.502 21.484 12.548 21.3727 12.6301 21.2906C12.7121 21.2086 12.8234 21.1625 12.9395 21.1625Z" fill="#005487"/>
<path d="M19.1922 22.8722C19.2328 22.913 19.2811 22.9453 19.3343 22.9674C19.3874 22.9894 19.4444 23.0008 19.502 23.0008C19.5595 23.0008 19.6165 22.9894 19.6696 22.9674C19.7228 22.9453 19.7711 22.913 19.8117 22.8722L22.4367 20.2473C22.5189 20.1651 22.565 20.0537 22.565 19.9375C22.565 19.8213 22.5189 19.7099 22.4367 19.6277C22.3546 19.5456 22.2431 19.4994 22.127 19.4994C22.0108 19.4994 21.8994 19.5456 21.8172 19.6277L19.9395 21.5064V13.8125C19.9395 13.6965 19.8934 13.5852 19.8113 13.5031C19.7293 13.4211 19.618 13.375 19.502 13.375C19.3859 13.375 19.2746 13.4211 19.1926 13.5031C19.1105 13.5852 19.0645 13.6965 19.0645 13.8125V21.5064L17.1867 19.6277C17.1046 19.5456 16.9931 19.4994 16.877 19.4994C16.7608 19.4994 16.6494 19.5456 16.5672 19.6277C16.4851 19.7099 16.4389 19.8213 16.4389 19.9375C16.4389 20.0537 16.4851 20.1651 16.5672 20.2473L19.1922 22.8722Z" fill="#005487"/>
<path d="M13.2488 21.2906L13.1074 21.4321L13.2488 21.2906ZM25.7551 21.2906L25.8965 21.4321L25.7551 21.2906ZM26.3738 21.2906L26.2324 21.4321L26.3738 21.2906ZM13.0145 25.0249L13.1559 24.8835L13.0145 25.0249ZM12.502 23.7875H12.302H12.502ZM12.502 21.6H12.302H12.502ZM12.6301 21.2906L12.7715 21.4321L12.6301 21.2906ZM19.1922 22.8722L19.3338 22.731L19.3336 22.7308L19.1922 22.8722ZM19.8117 22.8722L19.6703 22.7308L19.6701 22.731L19.8117 22.8722ZM21.8172 19.6277L21.6758 19.4863L21.6757 19.4864L21.8172 19.6277ZM19.9395 21.5064H19.7395V21.9894L20.0809 21.6478L19.9395 21.5064ZM19.8113 13.5031L19.6699 13.6446L19.8113 13.5031ZM19.502 13.375V13.175V13.375ZM19.1926 13.5031L19.334 13.6446L19.1926 13.5031ZM19.0645 21.5064L18.923 21.6478L19.2645 21.9894V21.5064H19.0645ZM17.1867 19.6277L17.3282 19.4864L17.3281 19.4863L17.1867 19.6277ZM16.5672 19.6277L16.4258 19.4863L16.5672 19.6277ZM16.5672 20.2473L16.4258 20.3887H16.4258L16.5672 20.2473ZM12.9395 21.3625C13.0024 21.3625 13.0629 21.3875 13.1074 21.4321L13.3902 21.1492C13.2707 21.0297 13.1085 20.9625 12.9395 20.9625V21.3625ZM13.1074 21.4321C13.1519 21.4766 13.177 21.537 13.177 21.6H13.577C13.577 21.4309 13.5098 21.2688 13.3902 21.1492L13.1074 21.4321ZM13.177 21.6V23.7875H13.577V21.6H13.177ZM13.177 23.7875C13.177 24.0726 13.2902 24.346 13.4918 24.5476L13.7747 24.2648C13.6481 24.1382 13.577 23.9665 13.577 23.7875H13.177ZM13.4918 24.5476C13.6934 24.7492 13.9668 24.8625 14.252 24.8625V24.4625C14.0729 24.4625 13.9012 24.3914 13.7747 24.2648L13.4918 24.5476ZM14.252 24.8625H24.752V24.4625H14.252V24.8625ZM24.752 24.8625C25.0371 24.8625 25.3105 24.7492 25.5121 24.5476L25.2292 24.2648C25.1027 24.3914 24.931 24.4625 24.752 24.4625V24.8625ZM25.5121 24.5476C25.7137 24.346 25.827 24.0726 25.827 23.7875H25.427C25.427 23.9665 25.3558 24.1382 25.2292 24.2648L25.5121 24.5476ZM25.827 23.7875V21.6H25.427V23.7875H25.827ZM25.827 21.6C25.827 21.537 25.852 21.4766 25.8965 21.4321L25.6137 21.1492C25.4941 21.2688 25.427 21.4309 25.427 21.6H25.827ZM25.8965 21.4321C25.9411 21.3875 26.0015 21.3625 26.0645 21.3625V20.9625C25.8954 20.9625 25.7332 21.0297 25.6137 21.1492L25.8965 21.4321ZM26.0645 21.3625C26.1274 21.3625 26.1879 21.3875 26.2324 21.4321L26.5152 21.1492C26.3957 21.0297 26.2335 20.9625 26.0645 20.9625V21.3625ZM26.2324 21.4321C26.2769 21.4766 26.302 21.537 26.302 21.6H26.702C26.702 21.4309 26.6348 21.2688 26.5152 21.1492L26.2324 21.4321ZM26.302 21.6V23.7875H26.702V21.6H26.302ZM26.302 23.7875C26.302 24.1986 26.1386 24.5928 25.848 24.8835L26.1308 25.1664C26.4965 24.8007 26.702 24.3047 26.702 23.7875H26.302ZM25.848 24.8835C25.5573 25.1742 25.163 25.3375 24.752 25.3375V25.7375C25.2691 25.7375 25.7651 25.5321 26.1308 25.1664L25.848 24.8835ZM24.752 25.3375H14.252V25.7375H24.752V25.3375ZM14.252 25.3375C13.8409 25.3375 13.4466 25.1742 13.1559 24.8835L12.8731 25.1664C13.2388 25.5321 13.7348 25.7375 14.252 25.7375V25.3375ZM13.1559 24.8835C12.8653 24.5928 12.702 24.1986 12.702 23.7875H12.302C12.302 24.3047 12.5074 24.8007 12.8731 25.1664L13.1559 24.8835ZM12.702 23.7875V21.6H12.302V23.7875H12.702ZM12.702 21.6C12.702 21.537 12.727 21.4766 12.7715 21.4321L12.4887 21.1492C12.3691 21.2688 12.302 21.4309 12.302 21.6H12.702ZM12.7715 21.4321C12.8161 21.3875 12.8765 21.3625 12.9395 21.3625V20.9625C12.7704 20.9625 12.6082 21.0297 12.4887 21.1492L12.7715 21.4321ZM19.0506 23.0135C19.1098 23.0729 19.1802 23.12 19.2576 23.1521L19.4109 22.7826C19.3821 22.7707 19.3559 22.7531 19.3338 22.731L19.0506 23.0135ZM19.2576 23.1521C19.3351 23.1842 19.4181 23.2008 19.502 23.2008V22.8008C19.4707 22.8008 19.4398 22.7946 19.4109 22.7826L19.2576 23.1521ZM19.502 23.2008C19.5858 23.2008 19.6688 23.1842 19.7463 23.1521L19.593 22.7826C19.5641 22.7946 19.5332 22.8008 19.502 22.8008V23.2008ZM19.7463 23.1521C19.8237 23.12 19.8941 23.0729 19.9533 23.0135L19.6701 22.731C19.648 22.7531 19.6218 22.7707 19.593 22.7826L19.7463 23.1521ZM19.9531 23.0137L22.5781 20.3887L22.2953 20.1058L19.6703 22.7308L19.9531 23.0137ZM22.5781 20.3887C22.6978 20.269 22.765 20.1067 22.765 19.9375H22.365C22.365 20.0006 22.3399 20.0612 22.2953 20.1058L22.5781 20.3887ZM22.765 19.9375C22.765 19.7683 22.6978 19.606 22.5781 19.4863L22.2953 19.7692C22.3399 19.8138 22.365 19.8744 22.365 19.9375H22.765ZM22.5781 19.4863C22.4585 19.3667 22.2962 19.2994 22.127 19.2994V19.6994C22.1901 19.6994 22.2506 19.7245 22.2953 19.7692L22.5781 19.4863ZM22.127 19.2994C21.9577 19.2994 21.7954 19.3667 21.6758 19.4863L21.9586 19.7692C22.0033 19.7245 22.0638 19.6994 22.127 19.6994V19.2994ZM21.6757 19.4864L19.798 21.365L20.0809 21.6478L21.9587 19.7691L21.6757 19.4864ZM20.1395 21.5064V13.8125H19.7395V21.5064H20.1395ZM20.1395 13.8125C20.1395 13.6434 20.0723 13.4813 19.9527 13.3617L19.6699 13.6446C19.7144 13.6891 19.7395 13.7495 19.7395 13.8125H20.1395ZM19.9527 13.3617C19.8332 13.2422 19.671 13.175 19.502 13.175V13.575C19.5649 13.575 19.6254 13.6 19.6699 13.6446L19.9527 13.3617ZM19.502 13.175C19.3329 13.175 19.1707 13.2422 19.0512 13.3617L19.334 13.6446C19.3786 13.6 19.439 13.575 19.502 13.575V13.175ZM19.0512 13.3617C18.9316 13.4813 18.8645 13.6434 18.8645 13.8125H19.2645C19.2645 13.7495 19.2895 13.6891 19.334 13.6446L19.0512 13.3617ZM18.8645 13.8125V21.5064H19.2645V13.8125H18.8645ZM19.2059 21.365L17.3282 19.4864L17.0452 19.7691L18.923 21.6478L19.2059 21.365ZM17.3281 19.4863C17.2085 19.3667 17.0462 19.2994 16.877 19.2994V19.6994C16.9401 19.6994 17.0006 19.7245 17.0453 19.7692L17.3281 19.4863ZM16.877 19.2994C16.7077 19.2994 16.5454 19.3667 16.4258 19.4863L16.7086 19.7692C16.7533 19.7245 16.8138 19.6994 16.877 19.6994V19.2994ZM16.4258 19.4863C16.3061 19.606 16.2389 19.7683 16.2389 19.9375H16.6389C16.6389 19.8744 16.664 19.8138 16.7086 19.7692L16.4258 19.4863ZM16.2389 19.9375C16.2389 20.1067 16.3061 20.269 16.4258 20.3887L16.7086 20.1058C16.664 20.0612 16.6389 20.0006 16.6389 19.9375H16.2389ZM16.4258 20.3887L19.0508 23.0137L19.3336 22.7308L16.7086 20.1058L16.4258 20.3887Z" fill="#005487"/>
</g>
<defs>
<clipPath id="clip0_395_39054">
<rect width="15" height="14" fill="white" transform="translate(12 12.5)"/>
</clipPath>
</defs>
</svg>
