<svg width="23" height="24" viewBox="0 0 23 24" fill="none" xmlns="http://www.w3.org/2000/svg">
<g clip-path="url(#clip0_1205_4595)">
<path d="M11.5 22.0625C14.0527 22.0625 16.5009 21.0023 18.3059 19.1153C20.1109 17.2282 21.125 14.6687 21.125 12C21.125 9.33126 20.1109 6.77182 18.3059 4.88474C16.5009 2.99765 14.0527 1.9375 11.5 1.9375V22.0625ZM11.5 23.5C8.58262 23.5 5.78473 22.2884 3.72183 20.1317C1.65893 17.9751 0.5 15.05 0.5 12C0.5 8.95001 1.65893 6.02494 3.72183 3.86827C5.78473 1.7116 8.58262 0.5 11.5 0.5C14.4174 0.5 17.2153 1.7116 19.2782 3.86827C21.3411 6.02494 22.5 8.95001 22.5 12C22.5 15.05 21.3411 17.9751 19.2782 20.1317C17.2153 22.2884 14.4174 23.5 11.5 23.5Z" fill="white"/>
</g>
<defs>
<clipPath id="clip0_1205_4595">
<rect width="22" height="23" fill="white" transform="translate(0.5 0.5)"/>
</clipPath>
</defs>
</svg>
