<svg width="55" height="55" viewBox="0 0 55 55" fill="none" xmlns="http://www.w3.org/2000/svg">
<rect width="55" height="55" rx="27.5" fill="#AA9767"/>
<g clip-path="url(#clip0_1365_96773)">
<path d="M27.5 18.7812C27.5 18.5243 27.3979 18.2779 27.2163 18.0962C27.0346 17.9146 26.7882 17.8125 26.5312 17.8125C26.2743 17.8125 26.0279 17.9146 25.8462 18.0962C25.6646 18.2779 25.5625 18.5243 25.5625 18.7812V29.4375C25.5626 29.6083 25.6077 29.776 25.6935 29.9236C25.7792 30.0713 25.9025 30.1937 26.0507 30.2784L32.832 34.1534C33.0545 34.2736 33.3153 34.3021 33.5585 34.2327C33.8018 34.1632 34.0082 34.0014 34.1337 33.7818C34.2592 33.5621 34.2938 33.3021 34.2302 33.0573C34.1665 32.8125 34.0096 32.6023 33.793 32.4716L27.5 28.8756V18.7812Z" fill="white"/>
<path d="M27.5 43C31.6109 43 35.5533 41.367 38.4602 38.4602C41.367 35.5533 43 31.6109 43 27.5C43 23.3891 41.367 19.4467 38.4602 16.5398C35.5533 13.633 31.6109 12 27.5 12C23.3891 12 19.4467 13.633 16.5398 16.5398C13.633 19.4467 12 23.3891 12 27.5C12 31.6109 13.633 35.5533 16.5398 38.4602C19.4467 41.367 23.3891 43 27.5 43ZM41.0625 27.5C41.0625 31.097 39.6336 34.5467 37.0901 37.0901C34.5467 39.6336 31.097 41.0625 27.5 41.0625C23.903 41.0625 20.4533 39.6336 17.9099 37.0901C15.3664 34.5467 13.9375 31.097 13.9375 27.5C13.9375 23.903 15.3664 20.4533 17.9099 17.9099C20.4533 15.3664 23.903 13.9375 27.5 13.9375C31.097 13.9375 34.5467 15.3664 37.0901 17.9099C39.6336 20.4533 41.0625 23.903 41.0625 27.5Z" fill="white"/>
</g>
<defs>
<clipPath id="clip0_1365_96773">
<rect width="31" height="31" fill="white" transform="translate(12 12)"/>
</clipPath>
</defs>
</svg>
