<svg width="28" height="26" viewBox="0 0 28 26" fill="none" xmlns="http://www.w3.org/2000/svg">
<g clip-path="url(#clip0_1205_4597)">
<path d="M14 8.31251C14.3201 8.31251 14.6371 8.25188 14.9328 8.1341C15.2285 8.01631 15.4972 7.84368 15.7236 7.62604C15.9499 7.4084 16.1295 7.15003 16.252 6.86567C16.3745 6.58131 16.4375 6.27654 16.4375 5.96876C16.4375 5.66097 16.3745 5.3562 16.252 5.07184C16.1295 4.78748 15.9499 4.52911 15.7236 4.31147C15.4972 4.09384 15.2285 3.9212 14.9328 3.80341C14.6371 3.68563 14.3201 3.62501 14 3.62501C13.3535 3.62501 12.7336 3.87194 12.2764 4.31147C11.8193 4.75101 11.5625 5.34715 11.5625 5.96876C11.5625 6.59036 11.8193 7.1865 12.2764 7.62604C12.7336 8.06558 13.3535 8.31251 14 8.31251ZM20.5 13C21.1465 13 21.7665 12.7531 22.2236 12.3135C22.6807 11.874 22.9375 11.2779 22.9375 10.6563C22.9375 10.0347 22.6807 9.43851 22.2236 8.99897C21.7665 8.55943 21.1465 8.31251 20.5 8.31251C19.8535 8.31251 19.2336 8.55943 18.7764 8.99897C18.3193 9.43851 18.0625 10.0347 18.0625 10.6563C18.0625 11.2779 18.3193 11.874 18.7764 12.3135C19.2336 12.7531 19.8535 13 20.5 13ZM9.93751 11.4375C9.93751 12.0591 9.6807 12.6552 9.22358 13.0948C8.76646 13.5343 8.14647 13.7813 7.50001 13.7813C6.85354 13.7813 6.23355 13.5343 5.77643 13.0948C5.31931 12.6552 5.06251 12.0591 5.06251 11.4375C5.06251 10.8159 5.31931 10.2198 5.77643 9.78022C6.23355 9.34068 6.85354 9.09376 7.50001 9.09376C8.14647 9.09376 8.76646 9.34068 9.22358 9.78022C9.6807 10.2198 9.93751 10.8159 9.93751 11.4375ZM10.75 20.8125C11.3965 20.8125 12.0165 20.5656 12.4736 20.126C12.9307 19.6865 13.1875 19.0904 13.1875 18.4688C13.1875 17.8472 12.9307 17.251 12.4736 16.8115C12.0165 16.3719 11.3965 16.125 10.75 16.125C10.1035 16.125 9.48355 16.3719 9.02643 16.8115C8.56931 17.251 8.31251 17.8472 8.31251 18.4688C8.31251 19.0904 8.56931 19.6865 9.02643 20.126C9.48355 20.5656 10.1035 20.8125 10.75 20.8125Z" fill="white"/>
<path d="M27 13C27 17.9219 23.9678 17.0391 21.2036 16.2344C19.5575 15.7547 18.0056 15.3016 17.25 16.125C16.2701 17.1922 16.4781 18.9672 16.6796 20.6875C16.9673 23.1484 17.2435 25.5 14 25.5C11.4288 25.5 8.91543 24.7669 6.77759 23.3934C4.63975 22.0199 2.97351 20.0676 1.98957 17.7835C1.00563 15.4995 0.748189 12.9861 1.2498 10.5614C1.75141 8.13661 2.98953 5.90933 4.80762 4.16117C6.6257 2.41301 8.94208 1.2225 11.4638 0.74019C13.9856 0.257874 16.5994 0.505416 18.9749 1.45151C21.3503 2.39761 23.3807 3.99976 24.8091 6.05538C26.2376 8.11099 27 10.5277 27 13ZM14 23.9375C14.9929 23.9375 15.0628 23.6703 15.0644 23.6625C15.1911 23.4344 15.2659 22.9375 15.1781 21.9141C15.1554 21.6516 15.118 21.3359 15.079 20.9906C14.9945 20.2656 14.897 19.4203 14.8873 18.7063C14.871 17.6016 15.0221 16.1906 16.0313 15.0906C16.6309 14.4391 17.4044 14.1875 18.0983 14.125C18.7548 14.0656 19.4178 14.1656 19.9833 14.2875C20.5406 14.4078 21.124 14.5781 21.6489 14.7313L21.6944 14.7438C22.2566 14.9078 22.7636 15.0547 23.243 15.1594C24.3041 15.3906 24.712 15.2891 24.8534 15.1969C24.9151 15.1563 25.375 14.8141 25.375 13C25.375 10.8368 24.7079 8.72212 23.458 6.92346C22.2081 5.12479 20.4315 3.72291 18.353 2.89507C16.2745 2.06724 13.9874 1.85064 11.7809 2.27267C9.57432 2.69469 7.54749 3.73639 5.95667 5.26603C4.36584 6.79566 3.28248 8.74454 2.84357 10.8662C2.40467 12.9879 2.62993 15.187 3.49088 17.1856C4.35182 19.1842 5.80979 20.8924 7.68039 22.0942C9.551 23.296 11.7502 23.9375 14 23.9375Z" fill="white"/>
<path d="M14 8.31251C14.3201 8.31251 14.6371 8.25188 14.9328 8.1341C15.2285 8.01631 15.4972 7.84368 15.7236 7.62604C15.9499 7.4084 16.1295 7.15003 16.252 6.86567C16.3745 6.58131 16.4375 6.27654 16.4375 5.96876C16.4375 5.66097 16.3745 5.3562 16.252 5.07184C16.1295 4.78748 15.9499 4.52911 15.7236 4.31147C15.4972 4.09384 15.2285 3.9212 14.9328 3.80341C14.6371 3.68563 14.3201 3.62501 14 3.62501C13.3535 3.62501 12.7336 3.87194 12.2764 4.31147C11.8193 4.75101 11.5625 5.34715 11.5625 5.96876C11.5625 6.59036 11.8193 7.1865 12.2764 7.62604C12.7336 8.06558 13.3535 8.31251 14 8.31251ZM20.5 13C21.1465 13 21.7665 12.7531 22.2236 12.3135C22.6807 11.874 22.9375 11.2779 22.9375 10.6563C22.9375 10.0347 22.6807 9.43851 22.2236 8.99897C21.7665 8.55943 21.1465 8.31251 20.5 8.31251C19.8535 8.31251 19.2336 8.55943 18.7764 8.99897C18.3193 9.43851 18.0625 10.0347 18.0625 10.6563C18.0625 11.2779 18.3193 11.874 18.7764 12.3135C19.2336 12.7531 19.8535 13 20.5 13ZM9.93751 11.4375C9.93751 12.0591 9.6807 12.6552 9.22358 13.0948C8.76646 13.5343 8.14647 13.7813 7.50001 13.7813C6.85354 13.7813 6.23355 13.5343 5.77643 13.0948C5.31931 12.6552 5.06251 12.0591 5.06251 11.4375C5.06251 10.8159 5.31931 10.2198 5.77643 9.78022C6.23355 9.34068 6.85354 9.09376 7.50001 9.09376C8.14647 9.09376 8.76646 9.34068 9.22358 9.78022C9.6807 10.2198 9.93751 10.8159 9.93751 11.4375ZM10.75 20.8125C11.3965 20.8125 12.0165 20.5656 12.4736 20.126C12.9307 19.6865 13.1875 19.0904 13.1875 18.4688C13.1875 17.8472 12.9307 17.251 12.4736 16.8115C12.0165 16.3719 11.3965 16.125 10.75 16.125C10.1035 16.125 9.48355 16.3719 9.02643 16.8115C8.56931 17.251 8.31251 17.8472 8.31251 18.4688C8.31251 19.0904 8.56931 19.6865 9.02643 20.126C9.48355 20.5656 10.1035 20.8125 10.75 20.8125Z" stroke="white" stroke-width="0.6"/>
<path d="M27 13C27 17.9219 23.9678 17.0391 21.2036 16.2344C19.5575 15.7547 18.0056 15.3016 17.25 16.125C16.2701 17.1922 16.4781 18.9672 16.6796 20.6875C16.9673 23.1484 17.2435 25.5 14 25.5C11.4288 25.5 8.91543 24.7669 6.77759 23.3934C4.63975 22.0199 2.97351 20.0676 1.98957 17.7835C1.00563 15.4995 0.748189 12.9861 1.2498 10.5614C1.75141 8.13661 2.98953 5.90933 4.80762 4.16117C6.6257 2.41301 8.94208 1.2225 11.4638 0.74019C13.9856 0.257874 16.5994 0.505416 18.9749 1.45151C21.3503 2.39761 23.3807 3.99976 24.8091 6.05538C26.2376 8.11099 27 10.5277 27 13ZM14 23.9375C14.9929 23.9375 15.0628 23.6703 15.0644 23.6625C15.1911 23.4344 15.2659 22.9375 15.1781 21.9141C15.1554 21.6516 15.118 21.3359 15.079 20.9906C14.9945 20.2656 14.897 19.4203 14.8873 18.7063C14.871 17.6016 15.0221 16.1906 16.0313 15.0906C16.6309 14.4391 17.4044 14.1875 18.0983 14.125C18.7548 14.0656 19.4178 14.1656 19.9833 14.2875C20.5406 14.4078 21.124 14.5781 21.6489 14.7313L21.6944 14.7438C22.2566 14.9078 22.7636 15.0547 23.243 15.1594C24.3041 15.3906 24.712 15.2891 24.8534 15.1969C24.9151 15.1563 25.375 14.8141 25.375 13C25.375 10.8368 24.7079 8.72212 23.458 6.92346C22.2081 5.12479 20.4315 3.72291 18.353 2.89507C16.2745 2.06724 13.9874 1.85064 11.7809 2.27267C9.57432 2.69469 7.54749 3.73639 5.95667 5.26603C4.36584 6.79566 3.28248 8.74454 2.84357 10.8662C2.40467 12.9879 2.62993 15.187 3.49088 17.1856C4.35182 19.1842 5.80979 20.8924 7.68039 22.0942C9.551 23.296 11.7502 23.9375 14 23.9375Z" stroke="white" stroke-width="0.6"/>
</g>
<defs>
<clipPath id="clip0_1205_4597">
<rect width="26" height="25" fill="white" transform="translate(1 0.5)"/>
</clipPath>
</defs>
</svg>
