<svg width="177" height="177" viewBox="0 0 177 177" fill="none" xmlns="http://www.w3.org/2000/svg">
<rect opacity="0.4" width="177" height="177" rx="20" fill="#EEEAE1"/>
<path d="M55.7893 50.6203C59.9095 50.6203 63.2496 47.2681 63.2496 43.1329C63.2496 38.9978 59.9095 35.6456 55.7893 35.6456C51.6692 35.6456 48.3291 38.9978 48.3291 43.1329C48.3291 47.2681 51.6692 50.6203 55.7893 50.6203Z" stroke="#AA9767" stroke-width="4" stroke-miterlimit="10" stroke-linecap="round" stroke-linejoin="round"/>
<path d="M67.8411 66.7468H44.8867V57.8645C44.8867 53.8637 48.2199 50.6203 52.3318 50.6203H60.3961C64.5079 50.6203 67.8413 53.8635 67.8413 57.8645L67.8411 66.7468Z" stroke="#AA9767" stroke-width="4" stroke-miterlimit="10" stroke-linecap="round" stroke-linejoin="round"/>
<path d="M122.358 50.6203C126.478 50.6203 129.818 47.2681 129.818 43.1329C129.818 38.9978 126.478 35.6456 122.358 35.6456C118.238 35.6456 114.897 38.9978 114.897 43.1329C114.897 47.2681 118.238 50.6203 122.358 50.6203Z" stroke="#AA9767" stroke-width="4" stroke-miterlimit="10" stroke-linecap="round" stroke-linejoin="round"/>
<path d="M134.408 66.7468H111.454V57.8645C111.454 53.8637 114.787 50.6203 118.899 50.6203H126.964C131.075 50.6203 134.409 53.8635 134.409 57.8645L134.408 66.7468Z" stroke="#AA9767" stroke-width="4" stroke-miterlimit="10" stroke-linecap="round" stroke-linejoin="round"/>
<path d="M102.272 66.7468H77.0225V57.8966C77.0225 55.7865 78.7857 54.0759 80.9609 54.0759H98.3338C100.509 54.0759 102.272 55.7865 102.272 57.8966V66.7468H102.272Z" stroke="#AA9767" stroke-width="4" stroke-miterlimit="10" stroke-linecap="round" stroke-linejoin="round"/>
<path d="M80.5244 74.8101H42.3021C41.1941 74.8101 40.2959 73.9076 40.2959 72.7943V68.7627C40.2959 67.6493 41.1941 66.7468 42.3021 66.7468H136.994C138.102 66.7468 139 67.6493 139 68.7627V72.7943C139 73.9076 138.102 74.8101 136.994 74.8101H98.8048" stroke="#AA9767" stroke-width="4" stroke-miterlimit="10" stroke-linecap="round" stroke-linejoin="round"/>
<path d="M134.409 74.8101V96.9404C134.409 98.0779 133.511 99 132.402 99H46.894C45.7854 99 44.8867 98.0779 44.8867 96.9404V74.8101" stroke="#AA9767" stroke-width="4" stroke-miterlimit="10" stroke-linecap="round" stroke-linejoin="round"/>
<g clip-path="url(#clip0_817_78330)">
<path d="M60.7679 133.504H63.8879V140.656C63.8879 141.808 63.7999 142.784 63.6239 143.584C63.4479 144.384 63.1359 145.032 62.6879 145.528C62.2559 146.04 61.6479 146.408 60.8639 146.632C60.0959 146.856 59.1119 146.976 57.9119 146.992V144.064C58.5679 144.048 59.0799 143.976 59.4479 143.848C59.8319 143.72 60.1199 143.512 60.3119 143.224C60.5039 142.952 60.6239 142.6 60.6719 142.168C60.7359 141.752 60.7679 141.248 60.7679 140.656V133.504ZM72.4399 140.56C72.4399 141.104 72.3599 141.48 72.1999 141.688C72.0559 141.896 71.8239 142 71.5039 142H70.4959C69.9519 142 69.4479 141.944 68.9839 141.832C68.5359 141.704 68.1439 141.504 67.8079 141.232C67.4879 140.944 67.2319 140.568 67.0399 140.104C66.8639 139.64 66.7759 139.064 66.7759 138.376V124.864H69.8959V137.944C69.8959 138.504 69.9919 138.864 70.1839 139.024C70.3919 139.168 70.6799 139.24 71.0479 139.24H71.5039C71.6319 139.24 71.7519 139.256 71.8639 139.288C71.9759 139.304 72.0719 139.36 72.1519 139.456C72.2479 139.536 72.3199 139.664 72.3679 139.84C72.4159 140.016 72.4399 140.256 72.4399 140.56ZM76.7566 139.24C77.3006 139.24 77.6846 139.16 77.9086 139C78.1486 138.824 78.2686 138.552 78.2686 138.184C78.2686 137.88 78.1486 137.52 77.9086 137.104C77.6846 136.672 77.3246 136.208 76.8286 135.712C76.3486 135.216 75.7166 134.704 74.9326 134.176C74.1486 133.632 73.2046 133.088 72.1006 132.544C72.1646 132.032 72.2366 131.616 72.3166 131.296C72.3966 130.976 72.4846 130.72 72.5806 130.528C72.6766 130.336 72.7726 130.192 72.8686 130.096C72.9806 130 73.0926 129.92 73.2046 129.856L82.1086 125.992V129.256L76.7326 131.56V131.656C77.9486 132.424 78.9086 133.272 79.6126 134.2C80.3166 135.112 80.8526 136.072 81.2206 137.08C81.4766 137.784 81.7886 138.32 82.1566 138.688C82.5406 139.056 83.0526 139.24 83.6926 139.24C83.8206 139.24 83.9406 139.256 84.0526 139.288C84.1646 139.304 84.2606 139.36 84.3406 139.456C84.4366 139.536 84.5086 139.664 84.5566 139.84C84.6046 140.016 84.6286 140.256 84.6286 140.56C84.6286 141.104 84.5486 141.48 84.3886 141.688C84.2446 141.896 84.0126 142 83.6926 142C83.4206 142 83.1406 141.992 82.8526 141.976C82.5646 141.944 82.2766 141.88 81.9886 141.784C81.7166 141.672 81.4446 141.52 81.1726 141.328C80.9166 141.12 80.6686 140.84 80.4286 140.488C80.1566 140.84 79.8766 141.12 79.5886 141.328C79.3006 141.52 78.9886 141.672 78.6526 141.784C78.3166 141.88 77.9566 141.944 77.5726 141.976C77.2046 141.992 76.8046 142 76.3726 142H71.4766C71.3486 142 71.2286 141.992 71.1166 141.976C71.0046 141.944 70.9086 141.888 70.8286 141.808C70.7326 141.712 70.6606 141.576 70.6126 141.4C70.5646 141.224 70.5406 140.984 70.5406 140.68C70.5406 140.136 70.6206 139.76 70.7806 139.552C70.9246 139.344 71.1566 139.24 71.4766 139.24H76.7566ZM85.1515 139.24C85.6955 139.24 86.0715 139.16 86.2795 139C86.5035 138.824 86.6155 138.44 86.6155 137.848V132.448H89.7355V137.584C89.7355 138.176 89.8475 138.6 90.0715 138.856C90.2955 139.112 90.7915 139.24 91.5595 139.24C91.6875 139.24 91.8075 139.256 91.9195 139.288C92.0315 139.304 92.1275 139.36 92.2075 139.456C92.3035 139.536 92.3755 139.664 92.4235 139.84C92.4715 140.016 92.4955 140.256 92.4955 140.56C92.4955 141.104 92.4155 141.48 92.2555 141.688C92.1115 141.896 91.8795 142 91.5595 142C91.0955 142 90.6475 141.928 90.2155 141.784C89.7835 141.624 89.4235 141.288 89.1355 140.776C88.9435 141.048 88.7115 141.272 88.4395 141.448C88.1675 141.608 87.8795 141.728 87.5755 141.808C87.2715 141.888 86.9515 141.944 86.6155 141.976C86.2955 141.992 85.9755 142 85.6555 142H83.6875C83.5595 142 83.4395 141.992 83.3275 141.976C83.2155 141.944 83.1195 141.888 83.0395 141.808C82.9435 141.712 82.8715 141.576 82.8235 141.4C82.7755 141.224 82.7515 140.984 82.7515 140.68C82.7515 140.136 82.8315 139.76 82.9915 139.552C83.1355 139.344 83.3675 139.24 83.6875 139.24H85.1515ZM84.3115 128.296C84.3115 127.832 84.4795 127.432 84.8155 127.096C85.1515 126.76 85.5515 126.592 86.0155 126.592C86.4795 126.592 86.8795 126.76 87.2155 127.096C87.5515 127.432 87.7195 127.832 87.7195 128.296C87.7195 128.76 87.5515 129.16 87.2155 129.496C86.8795 129.832 86.4795 130 86.0155 130C85.5515 130 85.1515 129.832 84.8155 129.496C84.4795 129.16 84.3115 128.76 84.3115 128.296ZM88.2235 128.296C88.2235 127.832 88.3915 127.432 88.7275 127.096C89.0635 126.76 89.4635 126.592 89.9275 126.592C90.3915 126.592 90.7915 126.76 91.1275 127.096C91.4635 127.432 91.6315 127.832 91.6315 128.296C91.6315 128.76 91.4635 129.16 91.1275 129.496C90.7915 129.832 90.3915 130 89.9275 130C89.4635 130 89.0635 129.832 88.7275 129.496C88.3915 129.16 88.2235 128.76 88.2235 128.296ZM94.3225 139.24V132.448H97.4665V142H91.5625C91.4345 142 91.3145 141.992 91.2025 141.976C91.0905 141.944 90.9945 141.888 90.9145 141.808C90.8185 141.712 90.7465 141.576 90.6985 141.4C90.6505 141.224 90.6265 140.984 90.6265 140.68C90.6265 140.136 90.7065 139.76 90.8665 139.552C91.0105 139.344 91.2425 139.24 91.5625 139.24H94.3225ZM93.9385 145.96C93.9385 145.496 94.1065 145.096 94.4425 144.76C94.7785 144.424 95.1785 144.256 95.6425 144.256C96.1065 144.256 96.5065 144.424 96.8425 144.76C97.1785 145.096 97.3465 145.496 97.3465 145.96C97.3465 146.424 97.1785 146.824 96.8425 147.16C96.5065 147.496 96.1065 147.664 95.6425 147.664C95.1785 147.664 94.7785 147.496 94.4425 147.16C94.1065 146.824 93.9385 146.424 93.9385 145.96ZM113.586 124.864V142H99.6184V139.24H104.226V130.768H107.37V139.24H110.442V124.864H113.586ZM119.559 124.864V142H116.463V124.864H119.559Z" fill="#004876"/>
</g>
<defs>
<clipPath id="clip0_817_78330">
<rect width="64" height="36" fill="white" transform="translate(57 113)"/>
</clipPath>
</defs>
</svg>
