<svg width="197" height="154" viewBox="0 0 197 154" fill="none" xmlns="http://www.w3.org/2000/svg">
<g id="Dot">
<circle id="Ellipse 5" cx="4.27858" cy="3.49635" r="3.49635" fill="#EEEAE1"/>
<circle id="Ellipse 15" cx="4.27858" cy="24.4745" r="3.49635" fill="#EEEAE1"/>
<circle id="Ellipse 25" cx="4.27858" cy="45.4525" r="3.49635" fill="#EEEAE1"/>
<circle id="Ellipse 35" cx="4.27858" cy="66.4307" r="3.49635" fill="#EEEAE1"/>
<circle id="Ellipse 45" cx="4.27858" cy="87.4088" r="3.49635" fill="#EEEAE1"/>
<circle id="Ellipse 55" cx="4.27858" cy="108.387" r="3.49635" fill="#EEEAE1"/>
<circle id="Ellipse 65" cx="4.27858" cy="129.365" r="3.49635" fill="#EEEAE1"/>
<circle id="Ellipse 75" cx="4.27858" cy="150.343" r="3.49635" fill="#EEEAE1"/>
<circle id="Ellipse 6" cx="25.2571" cy="3.49635" r="3.49635" fill="#EEEAE1"/>
<circle id="Ellipse 16" cx="25.2571" cy="24.4745" r="3.49635" fill="#EEEAE1"/>
<circle id="Ellipse 26" cx="25.2571" cy="45.4525" r="3.49635" fill="#EEEAE1"/>
<circle id="Ellipse 36" cx="25.2571" cy="66.4307" r="3.49635" fill="#EEEAE1"/>
<circle id="Ellipse 46" cx="25.2571" cy="87.4088" r="3.49635" fill="#EEEAE1"/>
<circle id="Ellipse 56" cx="25.2571" cy="108.387" r="3.49635" fill="#EEEAE1"/>
<circle id="Ellipse 66" cx="25.2571" cy="129.365" r="3.49635" fill="#EEEAE1"/>
<circle id="Ellipse 76" cx="25.2571" cy="150.343" r="3.49635" fill="#EEEAE1"/>
<circle id="Ellipse 7" cx="46.2346" cy="3.49635" r="3.49635" fill="#EEEAE1"/>
<circle id="Ellipse 17" cx="46.2346" cy="24.4745" r="3.49635" fill="#EEEAE1"/>
<circle id="Ellipse 27" cx="46.2346" cy="45.4525" r="3.49635" fill="#EEEAE1"/>
<circle id="Ellipse 37" cx="46.2346" cy="66.4307" r="3.49635" fill="#EEEAE1"/>
<circle id="Ellipse 47" cx="46.2346" cy="87.4088" r="3.49635" fill="#EEEAE1"/>
<circle id="Ellipse 57" cx="46.2346" cy="108.387" r="3.49635" fill="#EEEAE1"/>
<circle id="Ellipse 67" cx="46.2346" cy="129.365" r="3.49635" fill="#EEEAE1"/>
<circle id="Ellipse 77" cx="46.2346" cy="150.343" r="3.49635" fill="#EEEAE1"/>
<circle id="Ellipse 8" cx="67.2132" cy="3.49635" r="3.49635" fill="#EEEAE1"/>
<circle id="Ellipse 18" cx="67.2132" cy="24.4745" r="3.49635" fill="#EEEAE1"/>
<circle id="Ellipse 28" cx="67.2132" cy="45.4525" r="3.49635" fill="#EEEAE1"/>
<circle id="Ellipse 38" cx="67.2132" cy="66.4307" r="3.49635" fill="#EEEAE1"/>
<circle id="Ellipse 48" cx="67.2132" cy="87.4088" r="3.49635" fill="#EEEAE1"/>
<circle id="Ellipse 58" cx="67.2132" cy="108.387" r="3.49635" fill="#EEEAE1"/>
<circle id="Ellipse 68" cx="67.2132" cy="129.365" r="3.49635" fill="#EEEAE1"/>
<circle id="Ellipse 78" cx="67.2132" cy="150.343" r="3.49635" fill="#EEEAE1"/>
<circle id="Ellipse 9" cx="88.1907" cy="3.49635" r="3.49635" fill="#EEEAE1"/>
<circle id="Ellipse 19" cx="88.1907" cy="24.4745" r="3.49635" fill="#EEEAE1"/>
<circle id="Ellipse 29" cx="88.1907" cy="45.4525" r="3.49635" fill="#EEEAE1"/>
<circle id="Ellipse 39" cx="88.1907" cy="66.4307" r="3.49635" fill="#EEEAE1"/>
<circle id="Ellipse 49" cx="88.1907" cy="87.4088" r="3.49635" fill="#EEEAE1"/>
<circle id="Ellipse 59" cx="88.1907" cy="108.387" r="3.49635" fill="#EEEAE1"/>
<circle id="Ellipse 69" cx="88.1907" cy="129.365" r="3.49635" fill="#EEEAE1"/>
<circle id="Ellipse 79" cx="88.1907" cy="150.343" r="3.49635" fill="#EEEAE1"/>
<circle id="Ellipse 10" cx="109.169" cy="3.49635" r="3.49635" fill="#EEEAE1"/>
<circle id="Ellipse 20" cx="109.169" cy="24.4745" r="3.49635" fill="#EEEAE1"/>
<circle id="Ellipse 30" cx="109.169" cy="45.4525" r="3.49635" fill="#EEEAE1"/>
<circle id="Ellipse 40" cx="109.169" cy="66.4307" r="3.49635" fill="#EEEAE1"/>
<circle id="Ellipse 50" cx="109.169" cy="87.4088" r="3.49635" fill="#EEEAE1"/>
<circle id="Ellipse 60" cx="109.169" cy="108.387" r="3.49635" fill="#EEEAE1"/>
<circle id="Ellipse 70" cx="109.169" cy="129.365" r="3.49635" fill="#EEEAE1"/>
<circle id="Ellipse 80" cx="109.169" cy="150.343" r="3.49635" fill="#EEEAE1"/>
<circle id="Ellipse 11" cx="130.148" cy="3.49635" r="3.49635" fill="#EEEAE1"/>
<circle id="Ellipse 21" cx="130.148" cy="24.4745" r="3.49635" fill="#EEEAE1"/>
<circle id="Ellipse 31" cx="130.148" cy="45.4525" r="3.49635" fill="#EEEAE1"/>
<circle id="Ellipse 41" cx="130.148" cy="66.4307" r="3.49635" fill="#EEEAE1"/>
<circle id="Ellipse 51" cx="130.148" cy="87.4088" r="3.49635" fill="#EEEAE1"/>
<circle id="Ellipse 61" cx="130.148" cy="108.387" r="3.49635" fill="#EEEAE1"/>
<circle id="Ellipse 71" cx="130.148" cy="129.365" r="3.49635" fill="#EEEAE1"/>
<circle id="Ellipse 81" cx="130.148" cy="150.343" r="3.49635" fill="#EEEAE1"/>
<circle id="Ellipse 12" cx="151.125" cy="3.49635" r="3.49635" fill="#EEEAE1"/>
<circle id="Ellipse 22" cx="151.125" cy="24.4745" r="3.49635" fill="#EEEAE1"/>
<circle id="Ellipse 32" cx="151.125" cy="45.4525" r="3.49635" fill="#EEEAE1"/>
<circle id="Ellipse 42" cx="151.125" cy="66.4307" r="3.49635" fill="#EEEAE1"/>
<circle id="Ellipse 52" cx="151.125" cy="87.4088" r="3.49635" fill="#EEEAE1"/>
<circle id="Ellipse 62" cx="151.125" cy="108.387" r="3.49635" fill="#EEEAE1"/>
<circle id="Ellipse 72" cx="151.125" cy="129.365" r="3.49635" fill="#EEEAE1"/>
<circle id="Ellipse 82" cx="151.125" cy="150.343" r="3.49635" fill="#EEEAE1"/>
<circle id="Ellipse 13" cx="172.103" cy="3.49635" r="3.49635" fill="#EEEAE1"/>
<circle id="Ellipse 23" cx="172.103" cy="24.4745" r="3.49635" fill="#EEEAE1"/>
<circle id="Ellipse 33" cx="172.103" cy="45.4525" r="3.49635" fill="#EEEAE1"/>
<circle id="Ellipse 43" cx="172.103" cy="66.4307" r="3.49635" fill="#EEEAE1"/>
<circle id="Ellipse 53" cx="172.103" cy="87.4088" r="3.49635" fill="#EEEAE1"/>
<circle id="Ellipse 63" cx="172.103" cy="108.387" r="3.49635" fill="#EEEAE1"/>
<circle id="Ellipse 73" cx="172.103" cy="129.365" r="3.49635" fill="#EEEAE1"/>
<circle id="Ellipse 83" cx="172.103" cy="150.343" r="3.49635" fill="#EEEAE1"/>
<circle id="Ellipse 14" cx="193.081" cy="3.49635" r="3.49635" fill="#EEEAE1"/>
<circle id="Ellipse 24" cx="193.081" cy="24.4745" r="3.49635" fill="#EEEAE1"/>
<circle id="Ellipse 34" cx="193.081" cy="45.4525" r="3.49635" fill="#EEEAE1"/>
<circle id="Ellipse 44" cx="193.081" cy="66.4307" r="3.49635" fill="#EEEAE1"/>
<circle id="Ellipse 54" cx="193.081" cy="87.4088" r="3.49635" fill="#EEEAE1"/>
<circle id="Ellipse 64" cx="193.081" cy="108.387" r="3.49635" fill="#EEEAE1"/>
<circle id="Ellipse 74" cx="193.081" cy="129.365" r="3.49635" fill="#EEEAE1"/>
<circle id="Ellipse 84" cx="193.081" cy="150.343" r="3.49635" fill="#EEEAE1"/>
</g>
</svg>
