<svg width="16" height="24" viewBox="0 0 16 24" fill="none" xmlns="http://www.w3.org/2000/svg">
<g id="icon">
<path id="Vector" d="M5.63853 19.221V19.371H5.78853H14.3234C14.7399 19.371 15.0707 19.5874 15.3039 19.9509C15.5394 20.318 15.6703 20.8306 15.6703 21.3918C15.6703 21.8765 15.5624 22.3745 15.3376 22.7458C15.1161 23.1118 14.786 23.35 14.3234 23.35H2.98588C2.46483 23.35 1.95268 23.2284 1.57608 22.995C1.20351 22.764 0.970313 22.4299 0.970313 21.9897V2.01027C0.970313 1.57014 1.20351 1.236 1.57608 1.00504C1.95268 0.771589 2.46483 0.65 2.98588 0.65H14.3234C14.786 0.65 15.1161 0.888238 15.3376 1.25418C15.5624 1.62554 15.6703 2.12352 15.6703 2.60817C15.6703 3.16947 15.5394 3.68204 15.3039 4.04916C15.0707 4.41258 14.7399 4.62904 14.3234 4.62904H5.78853H5.63853V4.77904V10.0965V10.2465H5.78853H10.5655C10.989 10.2465 11.3202 10.4463 11.5504 10.7662C11.7833 11.0898 11.9123 11.5372 11.9123 12.0159C11.9123 12.4177 11.8063 12.8507 11.5839 13.1784C11.3652 13.5007 11.0349 13.7222 10.5655 13.7222H5.78853H5.63853V13.8722V19.221Z" fill="#004876" stroke="white" stroke-width="0.3"/>
</g>
</svg>
