<svg width="28" height="24" viewBox="0 0 28 24" fill="none" xmlns="http://www.w3.org/2000/svg">
<g clip-path="url(#clip0_1205_4591)">
<rect width="27" height="23" transform="translate(0.5 0.5)" fill="white" fill-opacity="0.01"/>
<g clip-path="url(#clip1_1205_4591)">
<path d="M20.0244 22.0047L12.58 1.95649C12.4437 1.58206 12.0987 1.33486 11.7141 1.33606H8.83693C8.45304 1.33722 8.10918 1.5836 7.971 1.95649L0.531216 22.0047C0.476051 22.1535 0.494773 22.3211 0.581266 22.4528C0.66776 22.5845 0.810948 22.6634 0.96421 22.6639H3.90192C4.0951 22.6637 4.26856 22.5408 4.33955 22.3537L5.88989 18.1269C5.95898 17.9404 6.13091 17.8172 6.32288 17.8166H14.2281C14.4213 17.8168 14.5948 17.9398 14.6658 18.1269L16.2161 22.3537C16.2852 22.5401 16.4571 22.6633 16.6491 22.6639H19.5868C19.7403 22.6634 19.8838 22.5848 19.971 22.4533C20.0583 22.3219 20.0782 22.1543 20.0244 22.0047ZM12.7476 14.4236H7.80334C7.64175 14.4243 7.49033 14.3416 7.39898 14.2028C7.30764 14.064 7.28823 13.8871 7.34709 13.7305L9.81921 6.99768C9.88988 6.79896 10.0719 6.66701 10.2755 6.66701C10.479 6.66701 10.661 6.79896 10.7317 6.99768L13.2085 13.7305C13.2653 13.888 13.2443 14.0644 13.1524 14.2027C13.0604 14.341 12.9092 14.4236 12.7476 14.4236Z" fill="white"/>
<path d="M27.4688 22.0047L23.693 11.6558C23.5557 11.2794 23.2092 11.0305 22.8224 11.0305H21.4722C21.0855 11.0305 20.739 11.2794 20.6016 11.6558L18.907 16.2995L20.0337 19.3435C20.1057 19.2949 20.1899 19.2696 20.2757 19.2708H24.0189C24.2097 19.2707 24.3813 19.3917 24.4519 19.5762L25.5227 22.3585C25.5933 22.543 25.7648 22.664 25.9556 22.6638H27.0358C27.189 22.6633 27.3322 22.5844 27.4187 22.4527C27.5052 22.3211 27.5239 22.1535 27.4688 22.0047ZM23.2647 17.3319H21.0347C20.9557 17.3326 20.8816 17.2919 20.8375 17.2236C20.7935 17.1553 20.7853 17.0685 20.8158 16.9926L21.9285 14.094C21.962 13.9981 22.0494 13.9343 22.1474 13.9343C22.2453 13.9343 22.3327 13.9981 22.3662 14.094L23.4835 16.9926C23.5131 17.0685 23.5045 17.1548 23.4606 17.2227C23.4168 17.2908 23.3433 17.3317 23.2647 17.3319Z" fill="white"/>
</g>
</g>
<defs>
<clipPath id="clip0_1205_4591">
<rect width="27" height="23" fill="white" transform="translate(0.5 0.5)"/>
</clipPath>
<clipPath id="clip1_1205_4591">
<rect width="27" height="23" fill="white" transform="translate(0.5 0.5)"/>
</clipPath>
</defs>
</svg>
