<svg width="103" height="93" viewBox="0 0 103 93" fill="none" xmlns="http://www.w3.org/2000/svg">
<path d="M17.7893 42.6203C21.9095 42.6203 25.2496 39.2681 25.2496 35.1329C25.2496 30.9978 21.9095 27.6456 17.7893 27.6456C13.6692 27.6456 10.3291 30.9978 10.3291 35.1329C10.3291 39.2681 13.6692 42.6203 17.7893 42.6203Z" stroke="#AA9767" stroke-width="4" stroke-miterlimit="10" stroke-linecap="round" stroke-linejoin="round"/>
<path d="M29.8411 58.7468H6.88672V49.8645C6.88672 45.8637 10.2199 42.6203 14.3318 42.6203H22.3961C26.5079 42.6203 29.8413 45.8635 29.8413 49.8645L29.8411 58.7468Z" stroke="#AA9767" stroke-width="4" stroke-miterlimit="10" stroke-linecap="round" stroke-linejoin="round"/>
<path d="M84.3577 42.6203C88.4779 42.6203 91.8179 39.2681 91.8179 35.1329C91.8179 30.9978 88.4779 27.6456 84.3577 27.6456C80.2375 27.6456 76.8975 30.9978 76.8975 35.1329C76.8975 39.2681 80.2375 42.6203 84.3577 42.6203Z" stroke="#AA9767" stroke-width="4" stroke-miterlimit="10" stroke-linecap="round" stroke-linejoin="round"/>
<path d="M96.4085 58.7468H73.4541V49.8645C73.4541 45.8637 76.7873 42.6203 80.8992 42.6203H88.9635C93.0752 42.6203 96.4086 45.8635 96.4086 49.8645L96.4085 58.7468Z" stroke="#AA9767" stroke-width="4" stroke-miterlimit="10" stroke-linecap="round" stroke-linejoin="round"/>
<path d="M64.2725 58.7468H39.0225V49.8966C39.0225 47.7865 40.7857 46.0759 42.9609 46.0759H60.3338C62.509 46.0759 64.2723 47.7865 64.2723 49.8966V58.7468H64.2725Z" stroke="#AA9767" stroke-width="4" stroke-miterlimit="10" stroke-linecap="round" stroke-linejoin="round"/>
<path d="M42.5244 66.8101H4.30209C3.19407 66.8101 2.2959 65.9076 2.2959 64.7943V60.7627C2.2959 59.6493 3.19407 58.7468 4.30209 58.7468H98.9943C100.102 58.7468 101 59.6493 101 60.7627V64.7943C101 65.9076 100.102 66.8101 98.9943 66.8101H60.8048" stroke="#AA9767" stroke-width="4" stroke-miterlimit="10" stroke-linecap="round" stroke-linejoin="round"/>
<path d="M96.4094 66.8101V88.9404C96.4094 90.0779 95.5108 91 94.4022 91H8.89401C7.78538 91 6.88672 90.0779 6.88672 88.9404V66.8101" stroke="#AA9767" stroke-width="4" stroke-miterlimit="10" stroke-linecap="round" stroke-linejoin="round"/>
</svg>
