<svg width="177" height="177" viewBox="0 0 177 177" fill="none" xmlns="http://www.w3.org/2000/svg">
<rect opacity="0.4" width="177" height="177" rx="20" fill="#E7EEF8"/>
<path d="M55.7893 77.6203C59.9095 77.6203 63.2496 74.2681 63.2496 70.1329C63.2496 65.9978 59.9095 62.6456 55.7893 62.6456C51.6692 62.6456 48.3291 65.9978 48.3291 70.1329C48.3291 74.2681 51.6692 77.6203 55.7893 77.6203Z" stroke="#238DC1" stroke-width="4" stroke-miterlimit="10" stroke-linecap="round" stroke-linejoin="round"/>
<path d="M67.8411 93.7468H44.8867V84.8645C44.8867 80.8637 48.2199 77.6202 52.3318 77.6202H60.3961C64.5079 77.6202 67.8413 80.8635 67.8413 84.8645L67.8411 93.7468Z" stroke="#238DC1" stroke-width="4" stroke-miterlimit="10" stroke-linecap="round" stroke-linejoin="round"/>
<path d="M122.358 77.6203C126.478 77.6203 129.818 74.2681 129.818 70.1329C129.818 65.9978 126.478 62.6456 122.358 62.6456C118.238 62.6456 114.897 65.9978 114.897 70.1329C114.897 74.2681 118.238 77.6203 122.358 77.6203Z" stroke="#238DC1" stroke-width="4" stroke-miterlimit="10" stroke-linecap="round" stroke-linejoin="round"/>
<path d="M134.408 93.7468H111.454V84.8645C111.454 80.8637 114.787 77.6202 118.899 77.6202H126.964C131.075 77.6202 134.409 80.8635 134.409 84.8645L134.408 93.7468Z" stroke="#238DC1" stroke-width="4" stroke-miterlimit="10" stroke-linecap="round" stroke-linejoin="round"/>
<path d="M102.272 93.7468H77.0225V84.8966C77.0225 82.7865 78.7857 81.076 80.9609 81.076H98.3338C100.509 81.076 102.272 82.7865 102.272 84.8966V93.7468H102.272Z" stroke="#238DC1" stroke-width="4" stroke-miterlimit="10" stroke-linecap="round" stroke-linejoin="round"/>
<path d="M80.5244 101.81H42.3021C41.1941 101.81 40.2959 100.908 40.2959 99.7943V95.7626C40.2959 94.6493 41.1941 93.7468 42.3021 93.7468H136.994C138.102 93.7468 139 94.6493 139 95.7626V99.7943C139 100.908 138.102 101.81 136.994 101.81H98.8048" stroke="#238DC1" stroke-width="4" stroke-miterlimit="10" stroke-linecap="round" stroke-linejoin="round"/>
<path d="M134.409 101.81V123.94C134.409 125.078 133.511 126 132.402 126H46.894C45.7854 126 44.8867 125.078 44.8867 123.94V101.81" stroke="#238DC1" stroke-width="4" stroke-miterlimit="10" stroke-linecap="round" stroke-linejoin="round"/>
</svg>
