<svg width="177" height="177" viewBox="0 0 177 177" fill="none" xmlns="http://www.w3.org/2000/svg">
<rect opacity="0.4" width="177" height="177" rx="20" fill="#EEEAE1"/>
<path d="M55.7893 50.6203C59.9095 50.6203 63.2496 47.2681 63.2496 43.1329C63.2496 38.9978 59.9095 35.6456 55.7893 35.6456C51.6692 35.6456 48.3291 38.9978 48.3291 43.1329C48.3291 47.2681 51.6692 50.6203 55.7893 50.6203Z" stroke="#AA9767" stroke-width="4" stroke-miterlimit="10" stroke-linecap="round" stroke-linejoin="round"/>
<path d="M67.8411 66.7468H44.8867V57.8645C44.8867 53.8637 48.2199 50.6203 52.3318 50.6203H60.3961C64.5079 50.6203 67.8413 53.8635 67.8413 57.8645L67.8411 66.7468Z" stroke="#AA9767" stroke-width="4" stroke-miterlimit="10" stroke-linecap="round" stroke-linejoin="round"/>
<path d="M122.358 50.6203C126.478 50.6203 129.818 47.2681 129.818 43.1329C129.818 38.9978 126.478 35.6456 122.358 35.6456C118.238 35.6456 114.897 38.9978 114.897 43.1329C114.897 47.2681 118.238 50.6203 122.358 50.6203Z" stroke="#AA9767" stroke-width="4" stroke-miterlimit="10" stroke-linecap="round" stroke-linejoin="round"/>
<path d="M134.408 66.7468H111.454V57.8645C111.454 53.8637 114.787 50.6203 118.899 50.6203H126.964C131.075 50.6203 134.409 53.8635 134.409 57.8645L134.408 66.7468Z" stroke="#AA9767" stroke-width="4" stroke-miterlimit="10" stroke-linecap="round" stroke-linejoin="round"/>
<path d="M102.272 66.7468H77.0225V57.8966C77.0225 55.7865 78.7857 54.0759 80.9609 54.0759H98.3338C100.509 54.0759 102.272 55.7865 102.272 57.8966V66.7468H102.272Z" stroke="#AA9767" stroke-width="4" stroke-miterlimit="10" stroke-linecap="round" stroke-linejoin="round"/>
<path d="M80.5244 74.8101H42.3021C41.1941 74.8101 40.2959 73.9076 40.2959 72.7943V68.7627C40.2959 67.6493 41.1941 66.7468 42.3021 66.7468H136.994C138.102 66.7468 139 67.6493 139 68.7627V72.7943C139 73.9076 138.102 74.8101 136.994 74.8101H98.8048" stroke="#AA9767" stroke-width="4" stroke-miterlimit="10" stroke-linecap="round" stroke-linejoin="round"/>
<path d="M134.409 74.8101V96.9404C134.409 98.0779 133.511 99 132.402 99H46.894C45.7854 99 44.8867 98.0779 44.8867 96.9404V74.8101" stroke="#AA9767" stroke-width="4" stroke-miterlimit="10" stroke-linecap="round" stroke-linejoin="round"/>
<g clip-path="url(#clip0_817_78354)">
<path d="M76.1202 142C75.8962 143.744 75.1762 145.008 73.9602 145.792C72.7442 146.592 70.9282 146.992 68.5122 146.992H67.7682V144.064H68.3202C69.1522 144.064 69.8482 144.016 70.4082 143.92C70.9682 143.824 71.4242 143.68 71.7762 143.488C72.1442 143.312 72.4162 143.096 72.5922 142.84C72.7682 142.6 72.8802 142.32 72.9282 142H71.4402C70.7362 142 70.0882 141.92 69.4962 141.76C68.9042 141.6 68.3922 141.344 67.9602 140.992C67.5282 140.624 67.1922 140.16 66.9522 139.6C66.7122 139.024 66.5922 138.336 66.5922 137.536C66.5922 136.896 66.6962 136.264 66.9042 135.64C67.1282 135.016 67.4482 134.456 67.8642 133.96C68.2802 133.464 68.7922 133.072 69.4002 132.784C70.0082 132.48 70.7042 132.328 71.4882 132.328C72.3682 132.328 73.1042 132.48 73.6962 132.784C74.3042 133.088 74.7922 133.52 75.1602 134.08C75.5282 134.624 75.7922 135.28 75.9522 136.048C76.1122 136.8 76.1922 137.632 76.1922 138.544V139.24H77.9442C78.0722 139.24 78.1922 139.256 78.3042 139.288C78.4162 139.304 78.5122 139.36 78.5922 139.456C78.6882 139.536 78.7602 139.664 78.8082 139.84C78.8562 140.016 78.8802 140.256 78.8802 140.56C78.8802 141.104 78.8002 141.48 78.6402 141.688C78.4962 141.896 78.2642 142 77.9442 142H76.1202ZM69.6642 137.248C69.6642 138.016 69.8242 138.544 70.1442 138.832C70.4802 139.104 70.9202 139.24 71.4642 139.24H73.0482V137.8C73.0482 137.032 72.9282 136.4 72.6882 135.904C72.4482 135.392 72.0002 135.136 71.3442 135.136C70.7522 135.136 70.3202 135.336 70.0482 135.736C69.7922 136.136 69.6642 136.64 69.6642 137.248ZM79.1933 139.24C79.3853 139.24 79.6173 139.08 79.8893 138.76C80.1773 138.44 80.4333 137.976 80.6573 137.368C81.0093 136.456 81.3853 135.704 81.7853 135.112C82.2013 134.504 82.6333 134.024 83.0813 133.672C83.5293 133.304 83.9773 133.048 84.4253 132.904C84.8733 132.76 85.3133 132.688 85.7453 132.688C86.3693 132.688 86.9533 132.808 87.4973 133.048C88.0413 133.288 88.5053 133.624 88.8893 134.056C89.2893 134.488 89.6013 135.008 89.8253 135.616C90.0493 136.224 90.1613 136.888 90.1613 137.608C90.1613 137.72 90.1533 137.824 90.1373 137.92C90.1373 138.016 90.1373 138.112 90.1373 138.208C90.3453 138.592 90.6653 138.864 91.0973 139.024C91.5293 139.168 91.9373 139.24 92.3213 139.24C92.4493 139.24 92.5693 139.256 92.6813 139.288C92.7933 139.304 92.8893 139.36 92.9693 139.456C93.0653 139.536 93.1373 139.664 93.1853 139.84C93.2333 140.016 93.2573 140.256 93.2573 140.56C93.2573 141.104 93.1773 141.48 93.0173 141.688C92.8733 141.896 92.6413 142 92.3213 142C91.7133 142 91.1693 141.888 90.6893 141.664C90.2093 141.424 89.7933 141.048 89.4413 140.536C89.1053 141.096 88.6413 141.528 88.0493 141.832C87.4573 142.136 86.7373 142.288 85.8893 142.288C85.2493 142.288 84.6013 142.192 83.9453 142C83.2893 141.808 82.6093 141.48 81.9053 141.016C81.4893 141.48 81.0653 141.76 80.6333 141.856C80.2013 141.952 79.7293 142 79.2173 142H77.9453C77.8173 142 77.6973 141.992 77.5853 141.976C77.4733 141.944 77.3773 141.888 77.2973 141.808C77.2013 141.712 77.1293 141.576 77.0813 141.4C77.0333 141.224 77.0093 140.984 77.0093 140.68C77.0093 140.136 77.0893 139.76 77.2493 139.552C77.3933 139.344 77.6253 139.24 77.9453 139.24H79.1933ZM87.1133 137.536C87.1133 137.296 87.0813 137.056 87.0173 136.816C86.9693 136.576 86.8813 136.368 86.7533 136.192C86.6413 136 86.4813 135.848 86.2733 135.736C86.0813 135.608 85.8413 135.544 85.5533 135.544C85.1373 135.544 84.7053 135.768 84.2573 136.216C83.8093 136.664 83.4573 137.456 83.2013 138.592C83.6013 138.832 83.9773 139.032 84.3293 139.192C84.6973 139.336 85.0893 139.408 85.5053 139.408C86.0173 139.408 86.4093 139.24 86.6813 138.904C86.9693 138.552 87.1133 138.096 87.1133 137.536ZM93.7765 139.24C94.3205 139.24 94.6965 139.16 94.9045 139C95.1285 138.824 95.2405 138.44 95.2405 137.848V132.448H98.3605V137.584C98.3605 138.176 98.4725 138.6 98.6965 138.856C98.9205 139.112 99.4165 139.24 100.185 139.24C100.313 139.24 100.433 139.256 100.545 139.288C100.657 139.304 100.753 139.36 100.833 139.456C100.929 139.536 101.001 139.664 101.049 139.84C101.097 140.016 101.121 140.256 101.121 140.56C101.121 141.104 101.041 141.48 100.881 141.688C100.737 141.896 100.505 142 100.185 142C99.7205 142 99.2725 141.928 98.8405 141.784C98.4085 141.624 98.0485 141.288 97.7605 140.776C97.5685 141.048 97.3365 141.272 97.0645 141.448C96.7925 141.608 96.5045 141.728 96.2005 141.808C95.8965 141.888 95.5765 141.944 95.2405 141.976C94.9205 141.992 94.6005 142 94.2805 142H92.3125C92.1845 142 92.0645 141.992 91.9525 141.976C91.8405 141.944 91.7445 141.888 91.6645 141.808C91.5685 141.712 91.4965 141.576 91.4485 141.4C91.4005 141.224 91.3765 140.984 91.3765 140.68C91.3765 140.136 91.4565 139.76 91.6165 139.552C91.7605 139.344 91.9925 139.24 92.3125 139.24H93.7765ZM95.0725 128.296C95.0725 127.832 95.2405 127.432 95.5765 127.096C95.9125 126.76 96.3125 126.592 96.7765 126.592C97.2405 126.592 97.6405 126.76 97.9765 127.096C98.3125 127.432 98.4805 127.832 98.4805 128.296C98.4805 128.76 98.3125 129.16 97.9765 129.496C97.6405 129.832 97.2405 130 96.7765 130C96.3125 130 95.9125 129.832 95.5765 129.496C95.2405 129.16 95.0725 128.76 95.0725 128.296ZM102.948 139.24V124.864H106.092V142H100.188C100.059 142 99.9395 141.992 99.8275 141.976C99.7155 141.944 99.6195 141.888 99.5395 141.808C99.4435 141.712 99.3715 141.576 99.3235 141.4C99.2755 141.224 99.2515 140.984 99.2515 140.68C99.2515 140.136 99.3315 139.76 99.4915 139.552C99.6355 139.344 99.8675 139.24 100.188 139.24H102.948ZM112.059 124.864V142H108.963V124.864H112.059Z" fill="#004876"/>
</g>
<defs>
<clipPath id="clip0_817_78354">
<rect width="48" height="36" fill="white" transform="translate(65.5 113)"/>
</clipPath>
</defs>
</svg>
