<svg width="177" height="177" viewBox="0 0 177 177" fill="none" xmlns="http://www.w3.org/2000/svg">
<rect opacity="0.4" width="177" height="177" rx="20" fill="#EEEAE1"/>
<path d="M55.7893 50.6203C59.9095 50.6203 63.2496 47.2681 63.2496 43.1329C63.2496 38.9978 59.9095 35.6456 55.7893 35.6456C51.6692 35.6456 48.3291 38.9978 48.3291 43.1329C48.3291 47.2681 51.6692 50.6203 55.7893 50.6203Z" stroke="#AA9767" stroke-width="4" stroke-miterlimit="10" stroke-linecap="round" stroke-linejoin="round"/>
<path d="M67.8411 66.7468H44.8867V57.8645C44.8867 53.8637 48.2199 50.6203 52.3318 50.6203H60.3961C64.5079 50.6203 67.8413 53.8635 67.8413 57.8645L67.8411 66.7468Z" stroke="#AA9767" stroke-width="4" stroke-miterlimit="10" stroke-linecap="round" stroke-linejoin="round"/>
<path d="M122.358 50.6203C126.478 50.6203 129.818 47.2681 129.818 43.1329C129.818 38.9978 126.478 35.6456 122.358 35.6456C118.238 35.6456 114.897 38.9978 114.897 43.1329C114.897 47.2681 118.238 50.6203 122.358 50.6203Z" stroke="#AA9767" stroke-width="4" stroke-miterlimit="10" stroke-linecap="round" stroke-linejoin="round"/>
<path d="M134.408 66.7468H111.454V57.8645C111.454 53.8637 114.787 50.6203 118.899 50.6203H126.964C131.075 50.6203 134.409 53.8635 134.409 57.8645L134.408 66.7468Z" stroke="#AA9767" stroke-width="4" stroke-miterlimit="10" stroke-linecap="round" stroke-linejoin="round"/>
<path d="M102.272 66.7468H77.0225V57.8966C77.0225 55.7865 78.7857 54.0759 80.9609 54.0759H98.3338C100.509 54.0759 102.272 55.7865 102.272 57.8966V66.7468H102.272Z" stroke="#AA9767" stroke-width="4" stroke-miterlimit="10" stroke-linecap="round" stroke-linejoin="round"/>
<path d="M80.5244 74.8101H42.3021C41.1941 74.8101 40.2959 73.9076 40.2959 72.7943V68.7627C40.2959 67.6493 41.1941 66.7468 42.3021 66.7468H136.994C138.102 66.7468 139 67.6493 139 68.7627V72.7943C139 73.9076 138.102 74.8101 136.994 74.8101H98.8048" stroke="#AA9767" stroke-width="4" stroke-miterlimit="10" stroke-linecap="round" stroke-linejoin="round"/>
<path d="M134.409 74.8101V96.9404C134.409 98.0779 133.511 99 132.402 99H46.894C45.7854 99 44.8867 98.0779 44.8867 96.9404V74.8101" stroke="#AA9767" stroke-width="4" stroke-miterlimit="10" stroke-linecap="round" stroke-linejoin="round"/>
<g clip-path="url(#clip0_817_78366)">
<path d="M62.5402 135.76C62.5402 135.952 62.5642 136.16 62.6122 136.384C62.6602 136.592 62.7482 136.784 62.8762 136.96C63.0042 137.12 63.1722 137.256 63.3802 137.368C63.6042 137.48 63.8842 137.536 64.2202 137.536C64.4282 137.536 64.6362 137.528 64.8442 137.512C65.0682 137.496 65.2922 137.448 65.5162 137.368V134.056H64.3162C63.7242 134.056 63.2762 134.216 62.9722 134.536C62.6842 134.84 62.5402 135.248 62.5402 135.76ZM69.2362 142C68.8522 142 68.4762 141.976 68.1082 141.928C67.7562 141.864 67.4282 141.76 67.1242 141.616C66.8202 141.472 66.5482 141.28 66.3082 141.04C66.0842 140.784 65.9082 140.456 65.7802 140.056C65.5082 140.12 65.2282 140.176 64.9402 140.224C64.6522 140.256 64.3642 140.272 64.0762 140.272C63.6762 140.272 63.2122 140.216 62.6842 140.104C62.1562 139.976 61.6522 139.752 61.1722 139.432C60.7082 139.112 60.3082 138.672 59.9722 138.112C59.6522 137.536 59.4922 136.8 59.4922 135.904C59.4922 135.024 59.6442 134.28 59.9482 133.672C60.2682 133.064 60.6682 132.568 61.1482 132.184C61.6442 131.8 62.1882 131.528 62.7802 131.368C63.3882 131.192 63.9802 131.104 64.5562 131.104H68.6362V138.28C68.6362 138.648 68.6842 138.904 68.7802 139.048C68.8762 139.176 69.1002 139.24 69.4522 139.24H70.0282C70.1562 139.24 70.2762 139.256 70.3882 139.288C70.5002 139.304 70.5962 139.36 70.6762 139.456C70.7722 139.536 70.8442 139.664 70.8922 139.84C70.9402 140.016 70.9642 140.256 70.9642 140.56C70.9642 141.104 70.8842 141.48 70.7242 141.688C70.5802 141.896 70.3482 142 70.0282 142H69.2362ZM61.1002 127.096C61.1002 126.632 61.2682 126.232 61.6042 125.896C61.9402 125.56 62.3402 125.392 62.8042 125.392C63.2682 125.392 63.6682 125.56 64.0042 125.896C64.3402 126.232 64.5082 126.632 64.5082 127.096C64.5082 127.56 64.3402 127.96 64.0042 128.296C63.6682 128.632 63.2682 128.8 62.8042 128.8C62.3402 128.8 61.9402 128.632 61.6042 128.296C61.2682 127.96 61.1002 127.56 61.1002 127.096ZM65.0122 127.096C65.0122 126.632 65.1802 126.232 65.5162 125.896C65.8522 125.56 66.2522 125.392 66.7162 125.392C67.1802 125.392 67.5802 125.56 67.9162 125.896C68.2522 126.232 68.4202 126.632 68.4202 127.096C68.4202 127.56 68.2522 127.96 67.9162 128.296C67.5802 128.632 67.1802 128.8 66.7162 128.8C66.2522 128.8 65.8522 128.632 65.5162 128.296C65.1802 127.96 65.0122 127.56 65.0122 127.096ZM72.5831 128.296C72.5831 127.832 72.7511 127.432 73.0871 127.096C73.4231 126.76 73.8231 126.592 74.2871 126.592C74.7511 126.592 75.1511 126.76 75.4871 127.096C75.8231 127.432 75.9911 127.832 75.9911 128.296C75.9911 128.76 75.8231 129.16 75.4871 129.496C75.1511 129.832 74.7511 130 74.2871 130C73.8231 130 73.4231 129.832 73.0871 129.496C72.7511 129.16 72.5831 128.76 72.5831 128.296ZM72.7751 139.24V132.448H75.9191V142H70.0151C69.8871 142 69.7671 141.992 69.6551 141.976C69.5431 141.944 69.4471 141.888 69.3671 141.808C69.2711 141.712 69.1991 141.576 69.1511 141.4C69.1031 141.224 69.0791 140.984 69.0791 140.68C69.0791 140.136 69.1591 139.76 69.3191 139.552C69.4631 139.344 69.6951 139.24 70.0151 139.24H72.7751ZM84.4556 140.56C84.4556 141.104 84.3756 141.48 84.2156 141.688C84.0716 141.896 83.8396 142 83.5196 142H82.5116C81.9676 142 81.4636 141.944 80.9996 141.832C80.5516 141.704 80.1596 141.504 79.8236 141.232C79.5036 140.944 79.2476 140.568 79.0556 140.104C78.8796 139.64 78.7916 139.064 78.7916 138.376V124.864H81.9116V137.944C81.9116 138.504 82.0076 138.864 82.1996 139.024C82.4076 139.168 82.6956 139.24 83.0636 139.24H83.5196C83.6476 139.24 83.7676 139.256 83.8796 139.288C83.9916 139.304 84.0876 139.36 84.1676 139.456C84.2636 139.536 84.3356 139.664 84.3836 139.84C84.4316 140.016 84.4556 140.256 84.4556 140.56ZM92.6602 137.536C92.6602 137.296 92.6282 137.056 92.5642 136.816C92.5162 136.576 92.4282 136.368 92.3002 136.192C92.1882 136 92.0282 135.848 91.8202 135.736C91.6282 135.608 91.3882 135.544 91.1002 135.544C90.6842 135.544 90.2522 135.768 89.8042 136.216C89.3562 136.664 89.0042 137.456 88.7482 138.592C89.1482 138.832 89.5242 139.032 89.8762 139.192C90.2442 139.336 90.6362 139.408 91.0522 139.408C91.5642 139.408 91.9562 139.24 92.2282 138.904C92.5162 138.552 92.6602 138.096 92.6602 137.536ZM84.7402 139.24C84.9322 139.24 85.1642 139.08 85.4362 138.76C85.7242 138.44 85.9802 137.976 86.2042 137.368C86.5562 136.456 86.9322 135.704 87.3322 135.112C87.7482 134.504 88.1802 134.024 88.6282 133.672C89.0762 133.304 89.5242 133.048 89.9722 132.904C90.4202 132.76 90.8602 132.688 91.2922 132.688C91.9162 132.688 92.5002 132.808 93.0442 133.048C93.5882 133.288 94.0522 133.624 94.4362 134.056C94.8362 134.488 95.1482 135.008 95.3722 135.616C95.5962 136.224 95.7082 136.888 95.7082 137.608C95.7082 139.048 95.3562 140.192 94.6522 141.04C93.9482 141.872 92.8762 142.288 91.4362 142.288C90.7962 142.288 90.1482 142.192 89.4922 142C88.8362 141.808 88.1562 141.48 87.4522 141.016C87.0362 141.48 86.6122 141.76 86.1802 141.856C85.7482 141.952 85.2762 142 84.7642 142H83.4922C83.3642 142 83.2442 141.992 83.1322 141.976C83.0202 141.944 82.9242 141.888 82.8442 141.808C82.7482 141.712 82.6762 141.576 82.6282 141.4C82.5802 141.224 82.5562 140.984 82.5562 140.68C82.5562 140.136 82.6362 139.76 82.7962 139.552C82.9402 139.344 83.1722 139.24 83.4922 139.24H84.7402ZM111.586 124.864V142H97.6184V139.24H102.226V130.768H105.37V139.24H108.442V124.864H111.586ZM105.994 128.632H101.314V126.952H102.274C102.194 126.84 102.138 126.68 102.106 126.472C102.074 126.264 102.058 126.096 102.058 125.968C102.058 125.6 102.114 125.28 102.226 125.008C102.354 124.72 102.522 124.488 102.73 124.312C102.938 124.12 103.17 123.976 103.426 123.88C103.698 123.784 103.97 123.736 104.242 123.736C104.498 123.736 104.73 123.76 104.938 123.808C105.146 123.856 105.33 123.912 105.49 123.976V125.56C105.074 125.464 104.778 125.416 104.602 125.416C104.298 125.416 104.074 125.488 103.93 125.632C103.802 125.776 103.738 125.952 103.738 126.16C103.738 126.384 103.802 126.576 103.93 126.736C104.074 126.88 104.338 126.952 104.722 126.952H105.994V128.632ZM117.559 124.864V142H114.463V124.864H117.559Z" fill="#004876"/>
</g>
<defs>
<clipPath id="clip0_817_78366">
<rect width="60" height="36" fill="white" transform="translate(59 113)"/>
</clipPath>
</defs>
</svg>
