<svg width="23" height="24" viewBox="0 0 23 24" fill="none" xmlns="http://www.w3.org/2000/svg">
<g id="icon" clip-path="url(#clip0_1018_30618)">
<path id="Vector" d="M11.8203 22.0625C14.373 22.0625 16.8212 21.0023 18.6262 19.1153C20.4313 17.2282 21.4453 14.6687 21.4453 12C21.4453 9.33126 20.4313 6.77182 18.6262 4.88474C16.8212 2.99765 14.373 1.9375 11.8203 1.9375V22.0625ZM11.8203 23.5C8.90293 23.5 6.10504 22.2884 4.04214 20.1317C1.97924 17.9751 0.820313 15.05 0.820312 12C0.820313 8.95001 1.97924 6.02494 4.04214 3.86827C6.10504 1.7116 8.90293 0.5 11.8203 0.5C14.7377 0.5 17.5356 1.7116 19.5985 3.86827C21.6614 6.02494 22.8203 8.95001 22.8203 12C22.8203 15.05 21.6614 17.9751 19.5985 20.1317C17.5356 22.2884 14.7377 23.5 11.8203 23.5Z" fill="#004876"/>
</g>
<defs>
<clipPath id="clip0_1018_30618">
<rect width="22" height="23" fill="white" transform="translate(0.820312 0.5)"/>
</clipPath>
</defs>
</svg>
