<svg width="148" height="148" viewBox="0 0 148 148" fill="none" xmlns="http://www.w3.org/2000/svg">
<rect opacity="0.4" x="0.154053" width="147.827" height="147.827" rx="20" fill="#E7EEF8"/>
<path d="M46.7487 64.8269C50.1898 64.8269 52.9793 62.0272 52.9793 58.5736C52.9793 55.12 50.1898 52.3203 46.7487 52.3203C43.3076 52.3203 40.5181 55.12 40.5181 58.5736C40.5181 62.0272 43.3076 64.8269 46.7487 64.8269Z" stroke="#238DC1" stroke-width="4" stroke-miterlimit="10" stroke-linecap="round" stroke-linejoin="round"/>
<path d="M56.8134 78.2958H37.6423V70.8774C37.6423 67.536 40.4262 64.8271 43.8604 64.8271H50.5955C54.0295 64.8271 56.8135 67.5359 56.8135 70.8774L56.8134 78.2958Z" stroke="#238DC1" stroke-width="4" stroke-miterlimit="10" stroke-linecap="round" stroke-linejoin="round"/>
<path d="M102.345 64.8269C105.786 64.8269 108.576 62.0272 108.576 58.5736C108.576 55.12 105.786 52.3203 102.345 52.3203C98.9041 52.3203 96.1145 55.12 96.1145 58.5736C96.1145 62.0272 98.9041 64.8269 102.345 64.8269Z" stroke="#238DC1" stroke-width="4" stroke-miterlimit="10" stroke-linecap="round" stroke-linejoin="round"/>
<path d="M112.41 78.2958H93.2389V70.8774C93.2389 67.536 96.0227 64.8271 99.4569 64.8271H106.192C109.626 64.8271 112.41 67.5359 112.41 70.8774L112.41 78.2958Z" stroke="#238DC1" stroke-width="4" stroke-miterlimit="10" stroke-linecap="round" stroke-linejoin="round"/>
<path d="M85.5704 78.2954H64.4821V70.9038C64.4821 69.1415 65.9547 67.7129 67.7713 67.7129H82.2809C84.0976 67.7129 85.5702 69.1415 85.5702 70.9038V78.2954H85.5704Z" stroke="#238DC1" stroke-width="4" stroke-miterlimit="10" stroke-linecap="round" stroke-linejoin="round"/>
<path d="M67.4062 85.0302H35.4836C34.5582 85.0302 33.8081 84.2765 33.8081 83.3466V79.9795C33.8081 79.0496 34.5582 78.2959 35.4836 78.2959H114.569C115.494 78.2959 116.244 79.0496 116.244 79.9795V83.3466C116.244 84.2765 115.494 85.0302 114.569 85.0302H82.6737" stroke="#238DC1" stroke-width="4" stroke-miterlimit="10" stroke-linecap="round" stroke-linejoin="round"/>
<path d="M112.41 85.0303V103.513C112.41 104.463 111.659 105.233 110.734 105.233H39.3188C38.3929 105.233 37.6423 104.463 37.6423 103.513V85.0303" stroke="#238DC1" stroke-width="4" stroke-miterlimit="10" stroke-linecap="round" stroke-linejoin="round"/>
</svg>
