<svg width="19" height="19" viewBox="0 0 19 19" fill="none" xmlns="http://www.w3.org/2000/svg">
<g id="instagram">
<path id="Vector" d="M14.25 0H4.75C2.13773 0 0 2.13768 0 4.74988V14.2501C0 16.8616 2.13773 19 4.75 19H14.25C16.8623 19 19 16.8616 19 14.2501V4.74988C19 2.13768 16.8623 0 14.25 0ZM17.4166 14.2501C17.4166 15.9957 15.9966 17.4166 14.25 17.4166H4.75C3.00414 17.4166 1.58341 15.9957 1.58341 14.2501V4.74988C1.58341 3.00384 3.00414 1.58337 4.75 1.58337H14.25C15.9966 1.58337 17.4166 3.00384 17.4166 4.74988V14.2501Z" fill="white" stroke="#006098" stroke-width="0.2"/>
<path id="Vector_2" d="M14.6465 5.54218C15.3023 5.54218 15.834 5.01053 15.834 4.35471C15.834 3.69889 15.3023 3.16724 14.6465 3.16724C13.9906 3.16724 13.459 3.69889 13.459 4.35471C13.459 5.01053 13.9906 5.54218 14.6465 5.54218Z" fill="white"/>
<path id="Vector_3" d="M9.5 4.74988C6.87609 4.74988 4.75 6.87615 4.75 9.49976C4.75 12.1224 6.87609 14.2501 9.5 14.2501C12.1232 14.2501 14.25 12.1224 14.25 9.49976C14.25 6.87615 12.1232 4.74988 9.5 4.74988ZM9.5 12.6667C7.75127 12.6667 6.33341 11.2489 6.33341 9.49976C6.33341 7.75061 7.75127 6.33325 9.5 6.33325C11.2487 6.33325 12.6666 7.75061 12.6666 9.49976C12.6666 11.2489 11.2487 12.6667 9.5 12.6667Z" fill="white" stroke="#006098" stroke-width="0.2"/>
</g>
</svg>
