<svg width="177" height="177" viewBox="0 0 177 177" fill="none" xmlns="http://www.w3.org/2000/svg">
<rect opacity="0.4" width="177" height="177" rx="20" fill="#EEEAE1"/>
<path d="M55.7893 50.6203C59.9095 50.6203 63.2496 47.2681 63.2496 43.1329C63.2496 38.9978 59.9095 35.6456 55.7893 35.6456C51.6692 35.6456 48.3291 38.9978 48.3291 43.1329C48.3291 47.2681 51.6692 50.6203 55.7893 50.6203Z" stroke="#AA9767" stroke-width="4" stroke-miterlimit="10" stroke-linecap="round" stroke-linejoin="round"/>
<path d="M67.8411 66.7468H44.8867V57.8645C44.8867 53.8637 48.2199 50.6203 52.3318 50.6203H60.3961C64.5079 50.6203 67.8413 53.8635 67.8413 57.8645L67.8411 66.7468Z" stroke="#AA9767" stroke-width="4" stroke-miterlimit="10" stroke-linecap="round" stroke-linejoin="round"/>
<path d="M122.358 50.6203C126.478 50.6203 129.818 47.2681 129.818 43.1329C129.818 38.9978 126.478 35.6456 122.358 35.6456C118.238 35.6456 114.897 38.9978 114.897 43.1329C114.897 47.2681 118.238 50.6203 122.358 50.6203Z" stroke="#AA9767" stroke-width="4" stroke-miterlimit="10" stroke-linecap="round" stroke-linejoin="round"/>
<path d="M134.408 66.7468H111.454V57.8645C111.454 53.8637 114.787 50.6203 118.899 50.6203H126.964C131.075 50.6203 134.409 53.8635 134.409 57.8645L134.408 66.7468Z" stroke="#AA9767" stroke-width="4" stroke-miterlimit="10" stroke-linecap="round" stroke-linejoin="round"/>
<path d="M102.272 66.7468H77.0225V57.8966C77.0225 55.7865 78.7857 54.0759 80.9609 54.0759H98.3338C100.509 54.0759 102.272 55.7865 102.272 57.8966V66.7468H102.272Z" stroke="#AA9767" stroke-width="4" stroke-miterlimit="10" stroke-linecap="round" stroke-linejoin="round"/>
<path d="M80.5244 74.8101H42.3021C41.1941 74.8101 40.2959 73.9076 40.2959 72.7943V68.7627C40.2959 67.6493 41.1941 66.7468 42.3021 66.7468H136.994C138.102 66.7468 139 67.6493 139 68.7627V72.7943C139 73.9076 138.102 74.8101 136.994 74.8101H98.8048" stroke="#AA9767" stroke-width="4" stroke-miterlimit="10" stroke-linecap="round" stroke-linejoin="round"/>
<path d="M134.409 74.8101V96.9404C134.409 98.0779 133.511 99 132.402 99H46.894C45.7854 99 44.8867 98.0779 44.8867 96.9404V74.8101" stroke="#AA9767" stroke-width="4" stroke-miterlimit="10" stroke-linecap="round" stroke-linejoin="round"/>
<g clip-path="url(#clip0_817_78342)">
<path d="M68.6364 142C68.5884 143.168 68.4044 144.136 68.0844 144.904C67.7644 145.688 67.3244 146.312 66.7644 146.776C66.2044 147.256 65.5244 147.592 64.7244 147.784C63.9244 147.992 63.0204 148.096 62.0124 148.096C59.8524 148.096 58.2204 147.576 57.1164 146.536C56.0284 145.496 55.4844 143.944 55.4844 141.88V138.112H58.6044V141.76C58.6044 142.88 58.8764 143.736 59.4204 144.328C59.9644 144.92 60.8604 145.216 62.1084 145.216C63.2924 145.216 64.1644 144.96 64.7244 144.448C65.2844 143.952 65.5644 143.112 65.5644 141.928V124.864H68.6604V139.24H70.5564C70.6844 139.24 70.8044 139.256 70.9164 139.288C71.0284 139.304 71.1244 139.36 71.2044 139.456C71.3004 139.536 71.3724 139.664 71.4204 139.84C71.4684 140.016 71.4924 140.256 71.4924 140.56C71.4924 141.104 71.4124 141.48 71.2524 141.688C71.1084 141.896 70.8764 142 70.5564 142H68.6364ZM79.7227 137.536C79.7227 137.296 79.6907 137.056 79.6267 136.816C79.5787 136.576 79.4907 136.368 79.3627 136.192C79.2507 136 79.0907 135.848 78.8827 135.736C78.6907 135.608 78.4507 135.544 78.1627 135.544C77.7467 135.544 77.3147 135.768 76.8667 136.216C76.4187 136.664 76.0667 137.456 75.8107 138.592C76.2107 138.832 76.5867 139.032 76.9387 139.192C77.3067 139.336 77.6987 139.408 78.1147 139.408C78.6267 139.408 79.0187 139.24 79.2907 138.904C79.5787 138.552 79.7227 138.096 79.7227 137.536ZM71.8027 139.24C71.9947 139.24 72.2267 139.08 72.4987 138.76C72.7867 138.44 73.0427 137.976 73.2667 137.368C73.6187 136.456 73.9947 135.704 74.3947 135.112C74.8107 134.504 75.2427 134.024 75.6907 133.672C76.1387 133.304 76.5867 133.048 77.0347 132.904C77.4827 132.76 77.9227 132.688 78.3547 132.688C78.9787 132.688 79.5627 132.808 80.1067 133.048C80.6507 133.288 81.1147 133.624 81.4987 134.056C81.8987 134.488 82.2107 135.008 82.4347 135.616C82.6587 136.224 82.7707 136.888 82.7707 137.608C82.7707 139.048 82.4187 140.192 81.7147 141.04C81.0107 141.872 79.9387 142.288 78.4987 142.288C77.8587 142.288 77.2107 142.192 76.5547 142C75.8987 141.808 75.2187 141.48 74.5147 141.016C74.0987 141.48 73.6747 141.76 73.2427 141.856C72.8107 141.952 72.3387 142 71.8267 142H70.5547C70.4267 142 70.3067 141.992 70.1947 141.976C70.0827 141.944 69.9867 141.888 69.9067 141.808C69.8107 141.712 69.7387 141.576 69.6907 141.4C69.6427 141.224 69.6187 140.984 69.6187 140.68C69.6187 140.136 69.6987 139.76 69.8587 139.552C70.0027 139.344 70.2347 139.24 70.5547 139.24H71.8027ZM91.0649 140.56C91.0649 141.104 90.9849 141.48 90.8249 141.688C90.6809 141.896 90.4489 142 90.1289 142H89.1209C88.5769 142 88.0729 141.944 87.6089 141.832C87.1609 141.704 86.7689 141.504 86.4329 141.232C86.1129 140.944 85.8569 140.568 85.6649 140.104C85.4889 139.64 85.4009 139.064 85.4009 138.376V124.864H88.5209V137.944C88.5209 138.504 88.6169 138.864 88.8089 139.024C89.0169 139.168 89.3049 139.24 89.6729 139.24H90.1289C90.2569 139.24 90.3769 139.256 90.4889 139.288C90.6009 139.304 90.6969 139.36 90.7769 139.456C90.8729 139.536 90.9449 139.664 90.9929 139.84C91.0409 140.016 91.0649 140.256 91.0649 140.56ZM95.3816 139.24C95.9256 139.24 96.3096 139.16 96.5336 139C96.7736 138.824 96.8936 138.552 96.8936 138.184C96.8936 137.88 96.7736 137.52 96.5336 137.104C96.3096 136.672 95.9496 136.208 95.4536 135.712C94.9736 135.216 94.3416 134.704 93.5576 134.176C92.7736 133.632 91.8296 133.088 90.7256 132.544C90.7896 132.032 90.8616 131.616 90.9416 131.296C91.0216 130.976 91.1096 130.72 91.2056 130.528C91.3016 130.336 91.3976 130.192 91.4936 130.096C91.6056 130 91.7176 129.92 91.8296 129.856L100.734 125.992V129.256L95.3576 131.56V131.656C96.5736 132.424 97.5336 133.272 98.2376 134.2C98.9416 135.112 99.4776 136.072 99.8456 137.08C100.102 137.784 100.414 138.32 100.782 138.688C101.166 139.056 101.678 139.24 102.318 139.24C102.446 139.24 102.566 139.256 102.678 139.288C102.79 139.304 102.886 139.36 102.966 139.456C103.062 139.536 103.134 139.664 103.182 139.84C103.23 140.016 103.254 140.256 103.254 140.56C103.254 141.104 103.174 141.48 103.014 141.688C102.87 141.896 102.638 142 102.318 142C102.046 142 101.766 141.992 101.478 141.976C101.19 141.944 100.902 141.88 100.614 141.784C100.342 141.672 100.07 141.52 99.7976 141.328C99.5416 141.12 99.2936 140.84 99.0536 140.488C98.7816 140.84 98.5016 141.12 98.2136 141.328C97.9256 141.52 97.6136 141.672 97.2776 141.784C96.9416 141.88 96.5816 141.944 96.1976 141.976C95.8296 141.992 95.4296 142 94.9976 142H90.1016C89.9736 142 89.8536 141.992 89.7416 141.976C89.6296 141.944 89.5336 141.888 89.4536 141.808C89.3576 141.712 89.2856 141.576 89.2376 141.4C89.1896 141.224 89.1656 140.984 89.1656 140.68C89.1656 140.136 89.2456 139.76 89.4056 139.552C89.5496 139.344 89.7816 139.24 90.1016 139.24H95.3816ZM103.777 139.24C104.321 139.24 104.697 139.16 104.905 139C105.129 138.824 105.241 138.44 105.241 137.848V132.448H108.361V137.584C108.361 138.176 108.473 138.6 108.697 138.856C108.921 139.112 109.417 139.24 110.185 139.24C110.313 139.24 110.433 139.256 110.545 139.288C110.657 139.304 110.753 139.36 110.833 139.456C110.929 139.536 111.001 139.664 111.049 139.84C111.097 140.016 111.121 140.256 111.121 140.56C111.121 141.104 111.041 141.48 110.881 141.688C110.737 141.896 110.505 142 110.185 142C109.721 142 109.273 141.928 108.841 141.784C108.409 141.624 108.049 141.288 107.761 140.776C107.569 141.048 107.337 141.272 107.065 141.448C106.793 141.608 106.505 141.728 106.201 141.808C105.897 141.888 105.577 141.944 105.241 141.976C104.921 141.992 104.601 142 104.281 142H102.312C102.184 142 102.064 141.992 101.952 141.976C101.84 141.944 101.744 141.888 101.664 141.808C101.568 141.712 101.496 141.576 101.448 141.4C101.4 141.224 101.376 140.984 101.376 140.68C101.376 140.136 101.456 139.76 101.616 139.552C101.76 139.344 101.992 139.24 102.312 139.24H103.777ZM102.937 128.296C102.937 127.832 103.105 127.432 103.441 127.096C103.777 126.76 104.177 126.592 104.641 126.592C105.105 126.592 105.505 126.76 105.84 127.096C106.177 127.432 106.345 127.832 106.345 128.296C106.345 128.76 106.177 129.16 105.84 129.496C105.505 129.832 105.105 130 104.641 130C104.177 130 103.777 129.832 103.441 129.496C103.105 129.16 102.937 128.76 102.937 128.296ZM106.849 128.296C106.849 127.832 107.017 127.432 107.353 127.096C107.689 126.76 108.089 126.592 108.553 126.592C109.017 126.592 109.417 126.76 109.753 127.096C110.089 127.432 110.257 127.832 110.257 128.296C110.257 128.76 110.089 129.16 109.753 129.496C109.417 129.832 109.017 130 108.553 130C108.089 130 107.689 129.832 107.353 129.496C107.017 129.16 106.849 128.76 106.849 128.296ZM112.948 139.24V124.864H116.092V142H110.188C110.059 142 109.939 141.992 109.827 141.976C109.715 141.944 109.619 141.888 109.539 141.808C109.443 141.712 109.371 141.576 109.323 141.4C109.275 141.224 109.251 140.984 109.251 140.68C109.251 140.136 109.331 139.76 109.491 139.552C109.635 139.344 109.867 139.24 110.188 139.24H112.948ZM122.059 124.864V142H118.963V124.864H122.059Z" fill="#004876"/>
</g>
<defs>
<clipPath id="clip0_817_78342">
<rect width="69" height="36" fill="white" transform="translate(54.5 113)"/>
</clipPath>
</defs>
</svg>
