<svg width="16" height="24" viewBox="0 0 16 24" fill="none" xmlns="http://www.w3.org/2000/svg">
<path d="M5.31821 19.221V19.371H5.46821H14.0031C14.4196 19.371 14.7504 19.5874 14.9835 19.9509C15.2191 20.318 15.35 20.8306 15.35 21.3918C15.35 21.8765 15.2421 22.3745 15.0173 22.7458C14.7958 23.1118 14.4657 23.35 14.0031 23.35H2.66557C2.14452 23.35 1.63237 23.2284 1.25577 22.995C0.883198 22.764 0.65 22.4299 0.65 21.9897V2.01027C0.65 1.57014 0.883198 1.236 1.25577 1.00504C1.63237 0.771589 2.14452 0.65 2.66557 0.65H14.0031C14.4657 0.65 14.7958 0.888238 15.0173 1.25418C15.2421 1.62554 15.35 2.12352 15.35 2.60817C15.35 3.16947 15.2191 3.68204 14.9835 4.04916C14.7504 4.41258 14.4196 4.62904 14.0031 4.62904H5.46821H5.31821V4.77904V10.0965V10.2465H5.46821H10.2452C10.6687 10.2465 10.9999 10.4463 11.2301 10.7662C11.463 11.0898 11.592 11.5372 11.592 12.0159C11.592 12.4177 11.486 12.8507 11.2636 13.1784C11.0449 13.5007 10.7146 13.7222 10.2452 13.7222H5.46821H5.31821V13.8722V19.221Z" fill="white" stroke="white" stroke-width="0.3"/>
</svg>
