<svg width="25" height="19" viewBox="0 0 25 19" fill="none" xmlns="http://www.w3.org/2000/svg">
<g id="Group">
<g id="Group_2">
<path id="Vector" d="M22.7541 0.519165H2.19258C0.986078 0.519165 0 1.52191 0 2.75866V16.1956C0 17.4328 0.986711 18.4351 2.19258 18.4351H22.7541C23.9606 18.4351 24.9467 17.4324 24.9467 16.1956V2.75866C24.9467 1.52161 23.9602 0.519165 22.7541 0.519165ZM22.4175 2.01216C21.7086 2.7386 13.3818 11.2712 13.0397 11.6218C12.754 11.9145 12.1929 11.9147 11.907 11.6218L2.52927 2.01216H22.4175ZM1.46172 15.9212V3.03312L7.7503 9.47714L1.46172 15.9212ZM2.52927 16.9421L8.78222 10.5346L10.8718 12.6758C11.728 13.5532 13.219 13.5529 14.075 12.6758L16.1646 10.5346L22.4175 16.9421H2.52927ZM23.485 15.9212L17.1964 9.47714L23.485 3.03312V15.9212Z" fill="white"/>
</g>
</g>
</svg>
