<svg width="82" height="102" viewBox="0 0 82 102" fill="none" xmlns="http://www.w3.org/2000/svg">
<rect width="82" height="81" rx="40" fill="white"/>
<rect width="58" height="69" transform="translate(12 6)" fill="white" fill-opacity="0.01"/>
<mask id="path-2-outside-1_1222_277" maskUnits="userSpaceOnUse" x="29.5029" y="27.4998" width="23" height="26" fill="black">
<rect fill="white" x="29.5029" y="27.4998" width="23" height="26"/>
<path d="M41.0029 52.5011C41.7986 52.5011 42.5616 52.185 43.1242 51.6224C43.6869 51.0598 44.0029 50.2967 44.0029 49.5011H38.0029C38.0029 50.2967 38.319 51.0598 38.8816 51.6224C39.4442 52.185 40.2073 52.5011 41.0029 52.5011ZM41.0029 31.3781L39.8074 31.6196C38.4514 31.8959 37.2324 32.6323 36.3569 33.704C35.4814 34.7758 35.0031 36.1172 35.0029 37.5011C35.0029 38.4431 34.8019 40.7966 34.3144 43.1141C34.0744 44.2646 33.7504 45.4631 33.3199 46.5011H48.6859C48.2554 45.4631 47.9329 44.2661 47.6914 43.1141C47.2039 40.7966 47.0029 38.4431 47.0029 37.5011C47.0024 36.1174 46.524 34.7764 45.6485 33.705C44.773 32.6335 43.5542 31.8973 42.1984 31.6211L41.0029 31.3766V31.3781ZM50.3329 46.5011C50.6674 47.1716 51.0544 47.7026 51.5029 48.0011H30.5029C30.9514 47.7026 31.3384 47.1716 31.6729 46.5011C33.0229 43.8011 33.5029 38.8211 33.5029 37.5011C33.5029 33.8711 36.0829 30.8411 39.5104 30.1496C39.4895 29.941 39.5125 29.7304 39.578 29.5313C39.6435 29.3321 39.7499 29.1489 39.8906 28.9935C40.0312 28.838 40.2028 28.7138 40.3944 28.6288C40.586 28.5437 40.7933 28.4998 41.0029 28.4998C41.2125 28.4998 41.4198 28.5437 41.6114 28.6288C41.803 28.7138 41.9747 28.838 42.1153 28.9935C42.2559 29.1489 42.3624 29.3321 42.4279 29.5313C42.4934 29.7304 42.5164 29.941 42.4954 30.1496C44.1909 30.4945 45.715 31.4146 46.8098 32.7544C47.9046 34.0941 48.5027 35.771 48.5029 37.5011C48.5029 38.8211 48.9829 43.8011 50.3329 46.5011Z"/>
</mask>
<path d="M41.0029 52.5011C41.7986 52.5011 42.5616 52.185 43.1242 51.6224C43.6869 51.0598 44.0029 50.2967 44.0029 49.5011H38.0029C38.0029 50.2967 38.319 51.0598 38.8816 51.6224C39.4442 52.185 40.2073 52.5011 41.0029 52.5011ZM41.0029 31.3781L39.8074 31.6196C38.4514 31.8959 37.2324 32.6323 36.3569 33.704C35.4814 34.7758 35.0031 36.1172 35.0029 37.5011C35.0029 38.4431 34.8019 40.7966 34.3144 43.1141C34.0744 44.2646 33.7504 45.4631 33.3199 46.5011H48.6859C48.2554 45.4631 47.9329 44.2661 47.6914 43.1141C47.2039 40.7966 47.0029 38.4431 47.0029 37.5011C47.0024 36.1174 46.524 34.7764 45.6485 33.705C44.773 32.6335 43.5542 31.8973 42.1984 31.6211L41.0029 31.3766V31.3781ZM50.3329 46.5011C50.6674 47.1716 51.0544 47.7026 51.5029 48.0011H30.5029C30.9514 47.7026 31.3384 47.1716 31.6729 46.5011C33.0229 43.8011 33.5029 38.8211 33.5029 37.5011C33.5029 33.8711 36.0829 30.8411 39.5104 30.1496C39.4895 29.941 39.5125 29.7304 39.578 29.5313C39.6435 29.3321 39.7499 29.1489 39.8906 28.9935C40.0312 28.838 40.2028 28.7138 40.3944 28.6288C40.586 28.5437 40.7933 28.4998 41.0029 28.4998C41.2125 28.4998 41.4198 28.5437 41.6114 28.6288C41.803 28.7138 41.9747 28.838 42.1153 28.9935C42.2559 29.1489 42.3624 29.3321 42.4279 29.5313C42.4934 29.7304 42.5164 29.941 42.4954 30.1496C44.1909 30.4945 45.715 31.4146 46.8098 32.7544C47.9046 34.0941 48.5027 35.771 48.5029 37.5011C48.5029 38.8211 48.9829 43.8011 50.3329 46.5011Z" fill="#004876"/>
<path d="M44.0029 49.5011H44.4029C44.4029 49.2802 44.2238 49.1011 44.0029 49.1011V49.5011ZM38.0029 49.5011V49.1011C37.8968 49.1011 37.7951 49.1432 37.7201 49.2183C37.6451 49.2933 37.6029 49.395 37.6029 49.5011H38.0029ZM41.0029 31.3781L41.0821 31.7702C41.2687 31.7325 41.4029 31.5685 41.4029 31.3781H41.0029ZM39.8074 31.6196L39.7282 31.2275L39.7276 31.2277L39.8074 31.6196ZM35.0029 37.5011L34.6029 37.5011V37.5011H35.0029ZM34.3144 43.1141L33.923 43.0318L33.9229 43.0324L34.3144 43.1141ZM33.3199 46.5011L32.9504 46.3479C32.8993 46.4713 32.9131 46.6121 32.9873 46.7233C33.0615 46.8344 33.1863 46.9011 33.3199 46.9011V46.5011ZM48.6859 46.5011V46.9011C48.8196 46.9011 48.9444 46.8344 49.0186 46.7233C49.0928 46.6121 49.1066 46.4713 49.0554 46.3479L48.6859 46.5011ZM47.6914 43.1141L48.0829 43.032L48.0829 43.0318L47.6914 43.1141ZM47.0029 37.5011H47.4029V37.501L47.0029 37.5011ZM42.1984 31.6211L42.1183 32.013L42.1186 32.013L42.1984 31.6211ZM41.0029 31.3766L41.0831 30.9847C40.9654 30.9606 40.8431 30.9907 40.75 31.0667C40.6569 31.1427 40.6029 31.2565 40.6029 31.3766H41.0029ZM50.3329 46.5011L50.6909 46.3225L50.6907 46.3222L50.3329 46.5011ZM51.5029 48.0011V48.4011C51.6793 48.4011 51.8348 48.2856 51.8858 48.1169C51.9368 47.9481 51.8713 47.7658 51.7246 47.6681L51.5029 48.0011ZM30.5029 48.0011L30.2813 47.6681C30.1345 47.7658 30.069 47.9481 30.12 48.1169C30.1711 48.2856 30.3266 48.4011 30.5029 48.4011V48.0011ZM31.6729 46.5011L31.3152 46.3222L31.315 46.3225L31.6729 46.5011ZM39.5104 30.1496L39.5895 30.5417C39.7911 30.501 39.929 30.3142 39.9084 30.1096L39.5104 30.1496ZM41.0029 28.4998V28.8998V28.4998ZM42.4954 30.1496L42.0974 30.1096C42.0769 30.314 42.2145 30.5006 42.4157 30.5416L42.4954 30.1496ZM48.5029 37.5011H48.9029V37.501L48.5029 37.5011ZM41.0029 52.9011C41.9047 52.9011 42.7695 52.5429 43.4071 51.9053L42.8414 51.3396C42.3538 51.8272 41.6925 52.1011 41.0029 52.1011V52.9011ZM43.4071 51.9053C44.0447 51.2676 44.4029 50.4028 44.4029 49.5011H43.6029C43.6029 50.1907 43.329 50.852 42.8414 51.3396L43.4071 51.9053ZM44.0029 49.1011H38.0029V49.9011H44.0029V49.1011ZM37.6029 49.5011C37.6029 50.4028 37.9611 51.2676 38.5988 51.9053L39.1645 51.3396C38.6769 50.852 38.4029 50.1907 38.4029 49.5011H37.6029ZM38.5988 51.9053C39.2364 52.5429 40.1012 52.9011 41.0029 52.9011V52.1011C40.3134 52.1011 39.652 51.8272 39.1645 51.3396L38.5988 51.9053ZM40.9237 30.986L39.7282 31.2275L39.8866 32.0117L41.0821 31.7702L40.9237 30.986ZM39.7276 31.2277C38.2812 31.5224 36.981 32.3078 36.0471 33.451L36.6667 33.9571C37.4839 32.9567 38.6216 32.2694 39.8873 32.0115L39.7276 31.2277ZM36.0471 33.451C35.1133 34.5942 34.6031 36.0249 34.6029 37.5011L35.4029 37.5011C35.4031 36.2094 35.8495 34.9574 36.6667 33.9571L36.0471 33.451ZM34.6029 37.5011C34.6029 38.4115 34.4057 40.7372 33.923 43.0318L34.7059 43.1964C35.1982 40.856 35.4029 38.4747 35.4029 37.5011H34.6029ZM33.9229 43.0324C33.6856 44.1697 33.3678 45.3416 32.9504 46.3479L33.6894 46.6543C34.1331 45.5846 34.4632 44.3595 34.706 43.1958L33.9229 43.0324ZM33.3199 46.9011H48.6859V46.1011H33.3199V46.9011ZM49.0554 46.3479C48.6381 45.3417 48.3218 44.1714 48.0829 43.032L47.2999 43.1962C47.5441 44.3608 47.8727 45.5845 48.3164 46.6543L49.0554 46.3479ZM48.0829 43.0318C47.6002 40.7372 47.4029 38.4115 47.4029 37.5011H46.6029C46.6029 38.4747 46.8077 40.856 47.3 43.1964L48.0829 43.0318ZM47.4029 37.501C47.4024 36.0251 46.8921 34.5947 45.9582 33.4519L45.3387 33.958C46.1559 34.9581 46.6025 36.2098 46.6029 37.5012L47.4029 37.501ZM45.9582 33.4519C45.0244 32.309 43.7244 31.5238 42.2783 31.2292L42.1186 32.013C43.384 32.2709 44.5216 32.958 45.3387 33.958L45.9582 33.4519ZM42.2786 31.2292L41.0831 30.9847L40.9228 31.7685L42.1183 32.013L42.2786 31.2292ZM40.6029 31.3766V31.3781H41.4029V31.3766H40.6029ZM49.975 46.6797C50.3215 47.3741 50.7471 47.9785 51.2813 48.3341L51.7246 47.6681C51.3618 47.4267 51.0134 46.9691 50.6909 46.3225L49.975 46.6797ZM51.5029 47.6011H30.5029V48.4011H51.5029V47.6011ZM30.7246 48.3341C31.2588 47.9785 31.6844 47.3741 32.0309 46.6797L31.315 46.3225C30.9925 46.9691 30.6441 47.4267 30.2813 47.6681L30.7246 48.3341ZM32.0307 46.68C32.7336 45.2743 33.1986 43.3054 33.4888 41.5488C33.7799 39.7871 33.9029 38.1893 33.9029 37.5011H33.1029C33.1029 38.1329 32.9859 39.685 32.6995 41.4184C32.4123 43.1568 31.9623 45.0279 31.3152 46.3222L32.0307 46.68ZM33.9029 37.5011C33.9029 34.0651 36.3451 31.1963 39.5895 30.5417L39.4313 29.7575C35.8207 30.4859 33.1029 33.6771 33.1029 37.5011H33.9029ZM39.9084 30.1096C39.8931 29.9567 39.91 29.8022 39.958 29.6562L39.198 29.4063C39.1151 29.6585 39.0859 29.9254 39.1124 30.1895L39.9084 30.1096ZM39.958 29.6562C40.006 29.5102 40.0841 29.3758 40.1872 29.2618L39.5939 28.7251C39.4158 28.922 39.2809 29.1541 39.198 29.4063L39.958 29.6562ZM40.1872 29.2618C40.2903 29.1478 40.4162 29.0567 40.5567 28.9944L40.2322 28.2631C39.9895 28.3709 39.7721 28.5282 39.5939 28.7251L40.1872 29.2618ZM40.5567 28.9944C40.6972 28.932 40.8492 28.8998 41.0029 28.8998V28.0998C40.7374 28.0998 40.4748 28.1554 40.2322 28.2631L40.5567 28.9944ZM41.0029 28.8998C41.1566 28.8998 41.3087 28.932 41.4492 28.9944L41.7737 28.2631C41.531 28.1554 41.2684 28.0998 41.0029 28.0998V28.8998ZM41.4492 28.9944C41.5897 29.0567 41.7155 29.1478 41.8187 29.2618L42.4119 28.7251C42.2338 28.5282 42.0164 28.3709 41.7737 28.2631L41.4492 28.9944ZM41.8187 29.2618C41.9218 29.3758 41.9999 29.5102 42.0479 29.6562L42.8079 29.4063C42.7249 29.1541 42.5901 28.922 42.4119 28.7251L41.8187 29.2618ZM42.0479 29.6562C42.0959 29.8022 42.1128 29.9567 42.0974 30.1096L42.8934 30.1895C42.9199 29.9254 42.8908 29.6585 42.8079 29.4063L42.0479 29.6562ZM42.4157 30.5416C44.0207 30.868 45.4636 31.7392 46.5 33.0075L47.1195 32.5012C45.9664 31.0901 44.361 30.1209 42.5752 29.7576L42.4157 30.5416ZM46.5 33.0075C47.5365 34.2757 48.1027 35.8632 48.1029 37.5011L48.9029 37.501C48.9027 35.6787 48.2727 33.9124 47.1195 32.5012L46.5 33.0075ZM48.1029 37.5011C48.1029 38.1893 48.2259 39.7871 48.517 41.5488C48.8073 43.3054 49.2723 45.2743 49.9752 46.68L50.6907 46.3222C50.0436 45.0279 49.5936 43.1568 49.3063 41.4184C49.0199 39.685 48.9029 38.1329 48.9029 37.5011H48.1029Z" fill="#005487" mask="url(#path-2-outside-1_1222_277)"/>
<rect x="2" y="74" width="77" height="28" rx="14" fill="#006098"/>
<g clip-path="url(#clip0_1222_277)">
<path d="M25.3726 93H15.8046C15.1752 93 14.6472 92.9573 14.2206 92.872C13.7939 92.776 13.4526 92.6267 13.1966 92.424C12.9406 92.2213 12.7539 91.96 12.6366 91.64C12.5299 91.32 12.4766 90.9307 12.4766 90.472V87.832H14.5726V90.168C14.5726 90.3707 14.5992 90.536 14.6526 90.664C14.7059 90.792 14.8019 90.8933 14.9406 90.968C15.0792 91.0427 15.2659 91.096 15.5006 91.128C15.7352 91.1493 16.0339 91.16 16.3966 91.16H23.2926V86.632H25.3726V93ZM16.5726 84.792C16.5726 84.4827 16.6846 84.216 16.9086 83.992C17.1326 83.768 17.3992 83.656 17.7086 83.656C18.0179 83.656 18.2846 83.768 18.5086 83.992C18.7326 84.216 18.8446 84.4827 18.8446 84.792C18.8446 85.1013 18.7326 85.368 18.5086 85.592C18.2846 85.816 18.0179 85.928 17.7086 85.928C17.3992 85.928 17.1326 85.816 16.9086 85.592C16.6846 85.368 16.5726 85.1013 16.5726 84.792ZM19.1806 84.792C19.1806 84.4827 19.2926 84.216 19.5166 83.992C19.7406 83.768 20.0072 83.656 20.3166 83.656C20.6259 83.656 20.8926 83.768 21.1166 83.992C21.3406 84.216 21.4526 84.4827 21.4526 84.792C21.4526 85.1013 21.3406 85.368 21.1166 85.592C20.8926 85.816 20.6259 85.928 20.3166 85.928C20.0072 85.928 19.7406 85.816 19.5166 85.592C19.2926 85.368 19.1806 85.1013 19.1806 84.792ZM31.0719 92.04C31.0719 92.4027 31.0186 92.6533 30.9119 92.792C30.8159 92.9307 30.6613 93 30.4479 93H29.7759C29.4133 93 29.0773 92.9627 28.7679 92.888C28.4693 92.8027 28.2079 92.6693 27.9839 92.488C27.7706 92.296 27.5999 92.0453 27.4719 91.736C27.3546 91.4267 27.2959 91.0427 27.2959 90.584V81.576H29.3759V90.296C29.3759 90.6693 29.4399 90.9093 29.5679 91.016C29.7066 91.112 29.8986 91.16 30.1439 91.16H30.4479C30.5333 91.16 30.6133 91.1707 30.6879 91.192C30.7626 91.2027 30.8266 91.24 30.8799 91.304C30.9439 91.3573 30.9919 91.4427 31.0239 91.56C31.0559 91.6773 31.0719 91.8373 31.0719 92.04ZM32.1257 91.16V90.536C32.1257 89.2453 32.3924 88.2427 32.9257 87.528C33.4697 86.8027 34.227 86.44 35.1977 86.44C35.699 86.44 36.1257 86.5307 36.4777 86.712C36.8297 86.8933 37.1124 87.1227 37.3257 87.4C37.5497 87.6667 37.7097 87.96 37.8057 88.28C37.9124 88.6 37.9657 88.8987 37.9657 89.176C37.9657 89.5173 37.923 89.8533 37.8377 90.184C37.7524 90.504 37.603 90.808 37.3897 91.096V91.16H39.1657C39.251 91.16 39.331 91.1707 39.4057 91.192C39.4804 91.2027 39.5444 91.24 39.5977 91.304C39.6617 91.3573 39.7097 91.4427 39.7417 91.56C39.7737 91.6773 39.7897 91.8373 39.7897 92.04C39.7897 92.4027 39.7364 92.6533 39.6297 92.792C39.5337 92.9307 39.379 93 39.1657 93H37.4377V93.048C37.5444 93.144 37.6297 93.256 37.6937 93.384C37.7577 93.512 37.8057 93.6347 37.8377 93.752C37.8804 93.88 37.907 93.9973 37.9177 94.104C37.9284 94.2107 37.9337 94.296 37.9337 94.36C37.9337 94.7013 37.875 95.0267 37.7577 95.336C37.651 95.6453 37.4857 95.912 37.2617 96.136C37.0377 96.3707 36.7497 96.5573 36.3977 96.696C36.0564 96.8347 35.6457 96.904 35.1657 96.904C34.611 96.904 34.1417 96.8133 33.7577 96.632C33.3737 96.4613 33.059 96.2107 32.8137 95.88C32.579 95.56 32.403 95.1653 32.2857 94.696C32.179 94.2267 32.1257 93.6987 32.1257 93.112V93H30.4297C30.3444 93 30.2644 92.9947 30.1897 92.984C30.115 92.9627 30.051 92.9253 29.9977 92.872C29.9337 92.808 29.8857 92.7173 29.8537 92.6C29.8217 92.4827 29.8057 92.3227 29.8057 92.12C29.8057 91.7573 29.859 91.5067 29.9657 91.368C30.0617 91.2293 30.2164 91.16 30.4297 91.16H32.1257ZM33.9657 91.16H34.3657C34.643 91.16 34.883 91.112 35.0857 91.016C35.2884 90.9093 35.4537 90.776 35.5817 90.616C35.7097 90.4453 35.8004 90.2533 35.8537 90.04C35.9177 89.816 35.9497 89.592 35.9497 89.368C35.9497 89.0693 35.8804 88.824 35.7417 88.632C35.603 88.44 35.4004 88.344 35.1337 88.344C34.7497 88.344 34.4564 88.536 34.2537 88.92C34.0617 89.2933 33.9657 89.752 33.9657 90.296V91.16ZM33.9657 93C33.9657 93.608 34.0564 94.0987 34.2377 94.472C34.4297 94.856 34.739 95.048 35.1657 95.048C35.4537 95.048 35.6564 94.9627 35.7737 94.792C35.9017 94.6213 35.9657 94.4027 35.9657 94.136C35.9657 94.072 35.9497 93.976 35.9177 93.848C35.8857 93.72 35.827 93.592 35.7417 93.464C35.6564 93.3467 35.5337 93.24 35.3737 93.144C35.2244 93.048 35.027 93 34.7817 93H33.9657ZM44.8921 93C44.7427 93 44.5827 92.9893 44.4121 92.968C44.2414 92.9467 44.0761 92.9093 43.9161 92.856C43.7561 92.792 43.6014 92.7067 43.4521 92.6C43.3134 92.4933 43.1961 92.3547 43.1001 92.184C42.9721 92.3653 42.8174 92.5147 42.6361 92.632C42.4547 92.7387 42.2627 92.8187 42.0601 92.872C41.8574 92.9253 41.6441 92.9627 41.4201 92.984C41.2067 92.9947 40.9934 93 40.7801 93H39.1641C39.0787 93 38.9987 92.9947 38.9241 92.984C38.8494 92.9627 38.7854 92.9253 38.7321 92.872C38.6681 92.808 38.6201 92.7173 38.5881 92.6C38.5561 92.4827 38.5401 92.3227 38.5401 92.12C38.5401 91.7573 38.5934 91.5067 38.7001 91.368C38.7961 91.2293 38.9507 91.16 39.1641 91.16H40.4441C40.8067 91.16 41.0574 91.1067 41.1961 91C41.3454 90.8827 41.4201 90.6267 41.4201 90.232V86.632H43.5001V90.056C43.5001 90.4507 43.6014 90.7333 43.8041 90.904C44.0174 91.0747 44.3801 91.16 44.8921 91.16C44.9774 91.16 45.0574 91.1707 45.1321 91.192C45.2067 91.2027 45.2707 91.24 45.3241 91.304C45.3881 91.3573 45.4361 91.4427 45.4681 91.56C45.5001 91.6773 45.5161 91.8373 45.5161 92.04C45.5161 92.4027 45.4627 92.6533 45.3561 92.792C45.2601 92.9307 45.1054 93 44.8921 93ZM39.5801 95.688C39.5801 95.3787 39.6921 95.112 39.9161 94.888C40.1401 94.664 40.4067 94.552 40.7161 94.552C41.0254 94.552 41.2921 94.664 41.5161 94.888C41.7401 95.112 41.8521 95.3787 41.8521 95.688C41.8521 95.9973 41.7401 96.264 41.5161 96.488C41.2921 96.712 41.0254 96.824 40.7161 96.824C40.4067 96.824 40.1401 96.712 39.9161 96.488C39.6921 96.264 39.5801 95.9973 39.5801 95.688ZM42.1881 95.688C42.1881 95.3787 42.3001 95.112 42.5241 94.888C42.7481 94.664 43.0147 94.552 43.3241 94.552C43.6334 94.552 43.9001 94.664 44.1241 94.888C44.3481 95.112 44.4601 95.3787 44.4601 95.688C44.4601 95.9973 44.3481 96.264 44.1241 96.488C43.9001 96.712 43.6334 96.824 43.3241 96.824C43.0147 96.824 42.7481 96.712 42.5241 96.488C42.3001 96.264 42.1881 95.9973 42.1881 95.688ZM45.8744 91.16C46.2371 91.16 46.4878 91.1067 46.6264 91C46.7758 90.8827 46.8504 90.6267 46.8504 90.232V86.632H48.9304V90.056C48.9304 90.4507 49.0051 90.7333 49.1544 90.904C49.3038 91.0747 49.6344 91.16 50.1464 91.16C50.2318 91.16 50.3118 91.1707 50.3864 91.192C50.4611 91.2027 50.5251 91.24 50.5784 91.304C50.6424 91.3573 50.6904 91.4427 50.7224 91.56C50.7544 91.6773 50.7704 91.8373 50.7704 92.04C50.7704 92.4027 50.7171 92.6533 50.6104 92.792C50.5144 92.9307 50.3598 93 50.1464 93C49.8371 93 49.5384 92.952 49.2504 92.856C48.9624 92.7493 48.7224 92.5253 48.5304 92.184C48.4024 92.3653 48.2478 92.5147 48.0664 92.632C47.8851 92.7387 47.6931 92.8187 47.4904 92.872C47.2878 92.9253 47.0744 92.9627 46.8504 92.984C46.6371 92.9947 46.4238 93 46.2104 93H44.8984C44.8131 93 44.7331 92.9947 44.6584 92.984C44.5838 92.9627 44.5198 92.9253 44.4664 92.872C44.4024 92.808 44.3544 92.7173 44.3224 92.6C44.2904 92.4827 44.2744 92.3227 44.2744 92.12C44.2744 91.7573 44.3278 91.5067 44.4344 91.368C44.5304 91.2293 44.6851 91.16 44.8984 91.16H45.8744ZM46.7544 95.64C46.7544 95.3307 46.8664 95.064 47.0904 94.84C47.3144 94.616 47.5811 94.504 47.8904 94.504C48.1998 94.504 48.4664 94.616 48.6904 94.84C48.9144 95.064 49.0264 95.3307 49.0264 95.64C49.0264 95.9493 48.9144 96.216 48.6904 96.44C48.4664 96.664 48.1998 96.776 47.8904 96.776C47.5811 96.776 47.3144 96.664 47.0904 96.44C46.8664 96.216 46.7544 95.9493 46.7544 95.64ZM51.1244 91.16C51.4871 91.16 51.7378 91.1067 51.8764 91C52.0258 90.8827 52.1004 90.6267 52.1004 90.232V86.632H54.1804V90.056C54.1804 90.4507 54.2551 90.7333 54.4044 90.904C54.5538 91.0747 54.8844 91.16 55.3964 91.16C55.4818 91.16 55.5618 91.1707 55.6364 91.192C55.7111 91.2027 55.7751 91.24 55.8284 91.304C55.8924 91.3573 55.9404 91.4427 55.9724 91.56C56.0044 91.6773 56.0204 91.8373 56.0204 92.04C56.0204 92.4027 55.9671 92.6533 55.8604 92.792C55.7644 92.9307 55.6098 93 55.3964 93C55.0871 93 54.7884 92.952 54.5004 92.856C54.2124 92.7493 53.9724 92.5253 53.7804 92.184C53.6524 92.3653 53.4978 92.5147 53.3164 92.632C53.1351 92.7387 52.9431 92.8187 52.7404 92.872C52.5378 92.9253 52.3244 92.9627 52.1004 92.984C51.8871 92.9947 51.6738 93 51.4604 93H50.1484C50.0631 93 49.9831 92.9947 49.9084 92.984C49.8338 92.9627 49.7698 92.9253 49.7164 92.872C49.6524 92.808 49.6044 92.7173 49.5724 92.6C49.5404 92.4827 49.5244 92.3227 49.5244 92.12C49.5244 91.7573 49.5778 91.5067 49.6844 91.368C49.7804 91.2293 49.9351 91.16 50.1484 91.16H51.1244ZM51.9884 83.864C51.9884 83.5547 52.1004 83.288 52.3244 83.064C52.5484 82.84 52.8151 82.728 53.1244 82.728C53.4338 82.728 53.7004 82.84 53.9244 83.064C54.1484 83.288 54.2604 83.5547 54.2604 83.864C54.2604 84.1733 54.1484 84.44 53.9244 84.664C53.7004 84.888 53.4338 85 53.1244 85C52.8151 85 52.5484 84.888 52.3244 84.664C52.1004 84.44 51.9884 84.1733 51.9884 83.864ZM56.3744 91.16C56.7371 91.16 56.9878 91.1067 57.1264 91C57.2758 90.8827 57.3504 90.6267 57.3504 90.232V86.632H59.4304V90.056C59.4304 90.4507 59.5051 90.7333 59.6544 90.904C59.8038 91.0747 60.1344 91.16 60.6464 91.16C60.7318 91.16 60.8118 91.1707 60.8864 91.192C60.9611 91.2027 61.0251 91.24 61.0784 91.304C61.1424 91.3573 61.1904 91.4427 61.2224 91.56C61.2544 91.6773 61.2704 91.8373 61.2704 92.04C61.2704 92.4027 61.2171 92.6533 61.1104 92.792C61.0144 92.9307 60.8598 93 60.6464 93C60.3371 93 60.0384 92.952 59.7504 92.856C59.4624 92.7493 59.2224 92.5253 59.0304 92.184C58.9024 92.3653 58.7478 92.5147 58.5664 92.632C58.3851 92.7387 58.1931 92.8187 57.9904 92.872C57.7878 92.9253 57.5744 92.9627 57.3504 92.984C57.1371 92.9947 56.9238 93 56.7104 93H55.3984C55.3131 93 55.2331 92.9947 55.1584 92.984C55.0838 92.9627 55.0198 92.9253 54.9664 92.872C54.9024 92.808 54.8544 92.7173 54.8224 92.6C54.7904 92.4827 54.7744 92.3227 54.7744 92.12C54.7744 91.7573 54.8278 91.5067 54.9344 91.368C55.0304 91.2293 55.1851 91.16 55.3984 91.16H56.3744ZM55.8144 83.864C55.8144 83.5547 55.9264 83.288 56.1504 83.064C56.3744 82.84 56.6411 82.728 56.9504 82.728C57.2598 82.728 57.5264 82.84 57.7504 83.064C57.9744 83.288 58.0864 83.5547 58.0864 83.864C58.0864 84.1733 57.9744 84.44 57.7504 84.664C57.5264 84.888 57.2598 85 56.9504 85C56.6411 85 56.3744 84.888 56.1504 84.664C55.9264 84.44 55.8144 84.1733 55.8144 83.864ZM58.4224 83.864C58.4224 83.5547 58.5344 83.288 58.7584 83.064C58.9824 82.84 59.2491 82.728 59.5584 82.728C59.8678 82.728 60.1344 82.84 60.3584 83.064C60.5824 83.288 60.6944 83.5547 60.6944 83.864C60.6944 84.1733 60.5824 84.44 60.3584 84.664C60.1344 84.888 59.8678 85 59.5584 85C59.2491 85 58.9824 84.888 58.7584 84.664C58.5344 84.44 58.4224 84.1733 58.4224 83.864ZM62.4884 91.16V81.576H64.5844V93H60.6484C60.5631 93 60.4831 92.9947 60.4084 92.984C60.3338 92.9627 60.2698 92.9253 60.2164 92.872C60.1524 92.808 60.1044 92.7173 60.0724 92.6C60.0404 92.4827 60.0244 92.3227 60.0244 92.12C60.0244 91.7573 60.0778 91.5067 60.1844 91.368C60.2804 91.2293 60.4351 91.16 60.6484 91.16H62.4884ZM68.5631 81.576V93H66.4991V81.576H68.5631Z" fill="white"/>
</g>
<defs>
<clipPath id="clip0_1222_277">
<rect width="58" height="21" fill="white" transform="translate(12 77)"/>
</clipPath>
</defs>
</svg>
