<svg width="27" height="26" viewBox="0 0 27 26" fill="none" xmlns="http://www.w3.org/2000/svg">
<g id="icon" clip-path="url(#clip0_1018_30621)">
<g id="Vector">
<path d="M13.3203 8.31251C13.6404 8.31251 13.9574 8.25188 14.2531 8.1341C14.5488 8.01631 14.8175 7.84368 15.0439 7.62604C15.2702 7.4084 15.4498 7.15003 15.5723 6.86567C15.6948 6.58131 15.7578 6.27654 15.7578 5.96876C15.7578 5.66097 15.6948 5.3562 15.5723 5.07184C15.4498 4.78748 15.2702 4.52911 15.0439 4.31147C14.8175 4.09384 14.5488 3.9212 14.2531 3.80341C13.9574 3.68563 13.6404 3.62501 13.3203 3.62501C12.6739 3.62501 12.0539 3.87194 11.5967 4.31147C11.1396 4.75101 10.8828 5.34715 10.8828 5.96876C10.8828 6.59036 11.1396 7.1865 11.5967 7.62604C12.0539 8.06558 12.6739 8.31251 13.3203 8.31251ZM19.8203 13C20.4668 13 21.0868 12.7531 21.5439 12.3135C22.001 11.874 22.2578 11.2779 22.2578 10.6563C22.2578 10.0347 22.001 9.43851 21.5439 8.99897C21.0868 8.55943 20.4668 8.31251 19.8203 8.31251C19.1739 8.31251 18.5539 8.55943 18.0967 8.99897C17.6396 9.43851 17.3828 10.0347 17.3828 10.6563C17.3828 11.2779 17.6396 11.874 18.0967 12.3135C18.5539 12.7531 19.1739 13 19.8203 13ZM9.25782 11.4375C9.25782 12.0591 9.00101 12.6552 8.54389 13.0948C8.08677 13.5343 7.46678 13.7813 6.82032 13.7813C6.17385 13.7813 5.55387 13.5343 5.09675 13.0948C4.63963 12.6552 4.38282 12.0591 4.38282 11.4375C4.38282 10.8159 4.63963 10.2198 5.09675 9.78022C5.55387 9.34068 6.17385 9.09376 6.82032 9.09376C7.46678 9.09376 8.08677 9.34068 8.54389 9.78022C9.00101 10.2198 9.25782 10.8159 9.25782 11.4375ZM10.0703 20.8125C10.7168 20.8125 11.3368 20.5656 11.7939 20.126C12.251 19.6865 12.5078 19.0904 12.5078 18.4688C12.5078 17.8472 12.251 17.251 11.7939 16.8115C11.3368 16.3719 10.7168 16.125 10.0703 16.125C9.42385 16.125 8.80386 16.3719 8.34674 16.8115C7.88963 17.251 7.63282 17.8472 7.63282 18.4688C7.63282 19.0904 7.88963 19.6865 8.34674 20.126C8.80386 20.5656 9.42385 20.8125 10.0703 20.8125Z" fill="#004876"/>
<path d="M26.3203 13C26.3203 17.9219 23.2881 17.0391 20.5239 16.2344C18.8778 15.7547 17.3259 15.3016 16.5703 16.125C15.5904 17.1922 15.7984 18.9672 15.9999 20.6875C16.2876 23.1484 16.5638 25.5 13.3203 25.5C10.7492 25.5 8.23574 24.7669 6.0979 23.3934C3.96007 22.0199 2.29382 20.0676 1.30988 17.7835C0.325945 15.4995 0.0685019 12.9861 0.57011 10.5614C1.07172 8.13661 2.30985 5.90933 4.12793 4.16117C5.94601 2.41301 8.26239 1.2225 10.7841 0.74019C13.3059 0.257874 15.9198 0.505416 18.2952 1.45151C20.6706 2.39761 22.701 3.99976 24.1294 6.05538C25.5579 8.11099 26.3203 10.5277 26.3203 13ZM13.3203 23.9375C14.3132 23.9375 14.3831 23.6703 14.3847 23.6625C14.5114 23.4344 14.5862 22.9375 14.4984 21.9141C14.4757 21.6516 14.4383 21.3359 14.3993 20.9906C14.3148 20.2656 14.2173 19.4203 14.2076 18.7063C14.1913 17.6016 14.3424 16.1906 15.3516 15.0906C15.9512 14.4391 16.7247 14.1875 17.4186 14.125C18.0751 14.0656 18.7381 14.1656 19.3036 14.2875C19.8609 14.4078 20.4443 14.5781 20.9692 14.7313L21.0147 14.7438C21.5769 14.9078 22.0839 15.0547 22.5633 15.1594C23.6244 15.3906 24.0323 15.2891 24.1737 15.1969C24.2354 15.1563 24.6953 14.8141 24.6953 13C24.6953 10.8368 24.0282 8.72212 22.7783 6.92346C21.5284 5.12479 19.7519 3.72291 17.6733 2.89507C15.5948 2.06724 13.3077 1.85064 11.1012 2.27267C8.89463 2.69469 6.8678 3.73639 5.27698 5.26603C3.68616 6.79566 2.60279 8.74454 2.16389 10.8662C1.72498 12.9879 1.95024 15.187 2.81119 17.1856C3.67214 19.1842 5.1301 20.8924 7.00071 22.0942C8.87132 23.296 11.0706 23.9375 13.3203 23.9375Z" fill="#004876"/>
<path d="M13.3203 8.31251C13.6404 8.31251 13.9574 8.25188 14.2531 8.1341C14.5488 8.01631 14.8175 7.84368 15.0439 7.62604C15.2702 7.4084 15.4498 7.15003 15.5723 6.86567C15.6948 6.58131 15.7578 6.27654 15.7578 5.96876C15.7578 5.66097 15.6948 5.3562 15.5723 5.07184C15.4498 4.78748 15.2702 4.52911 15.0439 4.31147C14.8175 4.09384 14.5488 3.9212 14.2531 3.80341C13.9574 3.68563 13.6404 3.62501 13.3203 3.62501C12.6739 3.62501 12.0539 3.87194 11.5967 4.31147C11.1396 4.75101 10.8828 5.34715 10.8828 5.96876C10.8828 6.59036 11.1396 7.1865 11.5967 7.62604C12.0539 8.06558 12.6739 8.31251 13.3203 8.31251ZM19.8203 13C20.4668 13 21.0868 12.7531 21.5439 12.3135C22.001 11.874 22.2578 11.2779 22.2578 10.6563C22.2578 10.0347 22.001 9.43851 21.5439 8.99897C21.0868 8.55943 20.4668 8.31251 19.8203 8.31251C19.1739 8.31251 18.5539 8.55943 18.0967 8.99897C17.6396 9.43851 17.3828 10.0347 17.3828 10.6563C17.3828 11.2779 17.6396 11.874 18.0967 12.3135C18.5539 12.7531 19.1739 13 19.8203 13ZM9.25782 11.4375C9.25782 12.0591 9.00101 12.6552 8.54389 13.0948C8.08677 13.5343 7.46678 13.7813 6.82032 13.7813C6.17385 13.7813 5.55387 13.5343 5.09675 13.0948C4.63963 12.6552 4.38282 12.0591 4.38282 11.4375C4.38282 10.8159 4.63963 10.2198 5.09675 9.78022C5.55387 9.34068 6.17385 9.09376 6.82032 9.09376C7.46678 9.09376 8.08677 9.34068 8.54389 9.78022C9.00101 10.2198 9.25782 10.8159 9.25782 11.4375ZM10.0703 20.8125C10.7168 20.8125 11.3368 20.5656 11.7939 20.126C12.251 19.6865 12.5078 19.0904 12.5078 18.4688C12.5078 17.8472 12.251 17.251 11.7939 16.8115C11.3368 16.3719 10.7168 16.125 10.0703 16.125C9.42385 16.125 8.80386 16.3719 8.34674 16.8115C7.88963 17.251 7.63282 17.8472 7.63282 18.4688C7.63282 19.0904 7.88963 19.6865 8.34674 20.126C8.80386 20.5656 9.42385 20.8125 10.0703 20.8125Z" stroke="#004876" stroke-width="0.6"/>
<path d="M26.3203 13C26.3203 17.9219 23.2881 17.0391 20.5239 16.2344C18.8778 15.7547 17.3259 15.3016 16.5703 16.125C15.5904 17.1922 15.7984 18.9672 15.9999 20.6875C16.2876 23.1484 16.5638 25.5 13.3203 25.5C10.7492 25.5 8.23574 24.7669 6.0979 23.3934C3.96007 22.0199 2.29382 20.0676 1.30988 17.7835C0.325945 15.4995 0.0685019 12.9861 0.57011 10.5614C1.07172 8.13661 2.30985 5.90933 4.12793 4.16117C5.94601 2.41301 8.26239 1.2225 10.7841 0.74019C13.3059 0.257874 15.9198 0.505416 18.2952 1.45151C20.6706 2.39761 22.701 3.99976 24.1294 6.05538C25.5579 8.11099 26.3203 10.5277 26.3203 13ZM13.3203 23.9375C14.3132 23.9375 14.3831 23.6703 14.3847 23.6625C14.5114 23.4344 14.5862 22.9375 14.4984 21.9141C14.4757 21.6516 14.4383 21.3359 14.3993 20.9906C14.3148 20.2656 14.2173 19.4203 14.2076 18.7063C14.1913 17.6016 14.3424 16.1906 15.3516 15.0906C15.9512 14.4391 16.7247 14.1875 17.4186 14.125C18.0751 14.0656 18.7381 14.1656 19.3036 14.2875C19.8609 14.4078 20.4443 14.5781 20.9692 14.7313L21.0147 14.7438C21.5769 14.9078 22.0839 15.0547 22.5633 15.1594C23.6244 15.3906 24.0323 15.2891 24.1737 15.1969C24.2354 15.1563 24.6953 14.8141 24.6953 13C24.6953 10.8368 24.0282 8.72212 22.7783 6.92346C21.5284 5.12479 19.7519 3.72291 17.6733 2.89507C15.5948 2.06724 13.3077 1.85064 11.1012 2.27267C8.89463 2.69469 6.8678 3.73639 5.27698 5.26603C3.68616 6.79566 2.60279 8.74454 2.16389 10.8662C1.72498 12.9879 1.95024 15.187 2.81119 17.1856C3.67214 19.1842 5.1301 20.8924 7.00071 22.0942C8.87132 23.296 11.0706 23.9375 13.3203 23.9375Z" stroke="#004876" stroke-width="0.6"/>
</g>
</g>
<defs>
<clipPath id="clip0_1018_30621">
<rect width="26" height="25" fill="white" transform="translate(0.320312 0.5)"/>
</clipPath>
</defs>
</svg>
