<svg width="29" height="28" viewBox="0 0 29 28" fill="none" xmlns="http://www.w3.org/2000/svg">
<g id="people">
<path id="Vector" d="M26.3125 24.5C26.3125 24.5 28 24.5 28 22.75C28 21 26.3125 15.75 19.5625 15.75C12.8125 15.75 11.125 21 11.125 22.75C11.125 24.5 12.8125 24.5 12.8125 24.5H26.3125ZM12.8496 22.75C12.8372 22.7482 12.8248 22.7459 12.8125 22.743C12.8142 22.281 13.0943 20.9405 14.095 19.733C15.0265 18.6007 16.6634 17.5 19.5625 17.5C22.4599 17.5 24.0968 18.6025 25.03 19.733C26.0307 20.9405 26.3091 22.2828 26.3125 22.743L26.299 22.7465C26.2912 22.7479 26.2833 22.749 26.2754 22.75H12.8496ZM19.5625 12.25C20.4576 12.25 21.316 11.8813 21.949 11.2249C22.5819 10.5685 22.9375 9.67826 22.9375 8.75C22.9375 7.82174 22.5819 6.9315 21.949 6.27513C21.316 5.61875 20.4576 5.25 19.5625 5.25C18.6674 5.25 17.809 5.61875 17.176 6.27513C16.5431 6.9315 16.1875 7.82174 16.1875 8.75C16.1875 9.67826 16.5431 10.5685 17.176 11.2249C17.809 11.8813 18.6674 12.25 19.5625 12.25ZM24.625 8.75C24.625 9.43944 24.4941 10.1221 24.2396 10.7591C23.9852 11.396 23.6123 11.9748 23.1422 12.4623C22.6721 12.9498 22.114 13.3365 21.4998 13.6004C20.8856 13.8642 20.2273 14 19.5625 14C18.8977 14 18.2394 13.8642 17.6252 13.6004C17.011 13.3365 16.4529 12.9498 15.9828 12.4623C15.5127 11.9748 15.1398 11.396 14.8854 10.7591C14.6309 10.1221 14.5 9.43944 14.5 8.75C14.5 7.35761 15.0334 6.02226 15.9828 5.03769C16.9322 4.05312 18.2198 3.5 19.5625 3.5C20.9052 3.5 22.1928 4.05312 23.1422 5.03769C24.0916 6.02226 24.625 7.35761 24.625 8.75ZM12.7045 16.24C12.0295 16.0196 11.3336 15.8747 10.6289 15.8077C10.2329 15.7687 9.83529 15.7494 9.4375 15.75C2.6875 15.75 1 21 1 22.75C1 23.9172 1.56194 24.5 2.6875 24.5H9.802C9.55184 23.9537 9.42708 23.3547 9.4375 22.75C9.4375 20.9825 10.0737 19.1765 11.2769 17.668C11.6869 17.1535 12.1645 16.6722 12.7045 16.24ZM9.3025 17.5C8.30376 19.0562 7.76424 20.8807 7.75 22.75H2.6875C2.6875 22.295 2.96425 20.9475 3.97 19.733C4.88969 18.62 6.48775 17.535 9.3025 17.5018V17.5ZM3.53125 9.625C3.53125 8.23261 4.06462 6.89726 5.01402 5.91269C5.96343 4.92812 7.25109 4.375 8.59375 4.375C9.93641 4.375 11.2241 4.92812 12.1735 5.91269C13.1229 6.89726 13.6562 8.23261 13.6562 9.625C13.6562 11.0174 13.1229 12.3527 12.1735 13.3373C11.2241 14.3219 9.93641 14.875 8.59375 14.875C7.25109 14.875 5.96343 14.3219 5.01402 13.3373C4.06462 12.3527 3.53125 11.0174 3.53125 9.625ZM8.59375 6.125C7.69864 6.125 6.8402 6.49375 6.20726 7.15013C5.57433 7.8065 5.21875 8.69674 5.21875 9.625C5.21875 10.5533 5.57433 11.4435 6.20726 12.0999C6.8402 12.7563 7.69864 13.125 8.59375 13.125C9.48886 13.125 10.3473 12.7563 10.9802 12.0999C11.6132 11.4435 11.9688 10.5533 11.9688 9.625C11.9688 8.69674 11.6132 7.8065 10.9802 7.15013C10.3473 6.49375 9.48886 6.125 8.59375 6.125Z" fill="#004876" stroke="#004876" stroke-width="0.6"/>
</g>
</svg>
