<svg width="19" height="19" viewBox="0 0 19 19" fill="none" xmlns="http://www.w3.org/2000/svg">
<g id="icon" clip-path="url(#clip0_1018_11617)">
<path id="Vector" d="M4.3392 1.99409C4.26909 1.90866 4.18061 1.83833 4.07961 1.78779C3.97862 1.73725 3.86743 1.70764 3.75342 1.70094C3.63942 1.69423 3.52522 1.71059 3.4184 1.74891C3.31159 1.78723 3.2146 1.84665 3.13388 1.92321L1.90601 3.08759C1.33245 3.63209 1.12107 4.40271 1.37163 5.07884C2.41157 7.87737 4.10323 10.4182 6.32113 12.5128C8.53217 14.614 11.2141 16.2166 14.1681 17.2018C14.8818 17.4392 15.6953 17.239 16.27 16.6956L17.4979 15.5323C17.5787 15.4559 17.6414 15.364 17.6819 15.2628C17.7223 15.1616 17.7396 15.0534 17.7325 14.9454C17.7254 14.8374 17.6942 14.7321 17.6408 14.6364C17.5875 14.5407 17.5132 14.4569 17.4231 14.3905L14.6835 12.3722C14.5872 12.3014 14.4751 12.2523 14.3558 12.2285C14.2365 12.2047 14.113 12.2069 13.9948 12.235L11.3941 12.8503C11.047 12.9325 10.6833 12.9282 10.3385 12.8377C9.99368 12.7472 9.67946 12.5737 9.42645 12.334L6.50995 9.56984C6.25673 9.33025 6.07333 9.03263 5.97761 8.70595C5.88188 8.37927 5.87708 8.03467 5.9637 7.70571L6.61445 5.24196C6.64402 5.12991 6.64635 5.01295 6.62126 4.89992C6.59616 4.78689 6.54429 4.68073 6.46957 4.58946L4.3392 1.99409ZM2.23732 1.07496C2.44513 0.878031 2.69478 0.725234 2.9697 0.626719C3.24462 0.528204 3.53852 0.486224 3.83187 0.503567C4.12523 0.520911 4.41134 0.59718 4.6712 0.727312C4.93106 0.857443 5.15872 1.03846 5.33907 1.25834L7.46945 3.85259C7.86013 4.32846 7.99788 4.94834 7.84351 5.53334L7.19395 7.99709C7.16036 8.1247 7.16218 8.25836 7.19921 8.38511C7.23625 8.51186 7.30725 8.62738 7.40532 8.72046L10.323 11.4846C10.4214 11.5777 10.5435 11.6451 10.6775 11.6802C10.8116 11.7152 10.9529 11.7169 11.0878 11.6848L13.6872 11.0695C13.9919 10.9973 14.31 10.9917 14.6173 11.0531C14.9247 11.1145 15.2133 11.2412 15.4613 11.4238L18.1997 13.4421C19.1841 14.1677 19.2744 15.5458 18.3933 16.3795L17.1654 17.5427C16.2866 18.3752 14.9733 18.7408 13.7489 18.3325C10.6154 17.2879 7.77021 15.5884 5.42457 13.36C3.07248 11.1381 1.27854 8.4431 0.175821 5.47484C-0.254054 4.31609 0.131883 3.07071 1.01063 2.23821L2.23851 1.07496H2.23732Z" fill="white"/>
</g>
<defs>
<clipPath id="clip0_1018_11617">
<rect width="19" height="18" fill="white" transform="translate(0 0.5)"/>
</clipPath>
</defs>
</svg>
