<svg width="55" height="55" viewBox="0 0 55 55" fill="none" xmlns="http://www.w3.org/2000/svg">
<rect width="55" height="55" rx="27.5" fill="#AA9767"/>
<path d="M27.5 31.375C28.5277 31.375 29.5133 30.9667 30.24 30.24C30.9667 29.5133 31.375 28.5277 31.375 27.5C31.375 26.4723 30.9667 25.4867 30.24 24.76C29.5133 24.0333 28.5277 23.625 27.5 23.625C26.4723 23.625 25.4867 24.0333 24.76 24.76C24.0333 25.4867 23.625 26.4723 23.625 27.5C23.625 28.5277 24.0333 29.5133 24.76 30.24C25.4867 30.9667 26.4723 31.375 27.5 31.375Z" fill="white"/>
<path d="M12 19.75C12 19.2361 12.2041 18.7433 12.5675 18.38C12.9308 18.0166 13.4236 17.8125 13.9375 17.8125H41.0625C41.5764 17.8125 42.0692 18.0166 42.4325 18.38C42.7959 18.7433 43 19.2361 43 19.75V35.25C43 35.7639 42.7959 36.2567 42.4325 36.62C42.0692 36.9834 41.5764 37.1875 41.0625 37.1875H13.9375C13.4236 37.1875 12.9308 36.9834 12.5675 36.62C12.2041 36.2567 12 35.7639 12 35.25V19.75ZM17.8125 19.75C17.8125 20.7777 17.4042 21.7633 16.6775 22.49C15.9508 23.2167 14.9652 23.625 13.9375 23.625V31.375C14.9652 31.375 15.9508 31.7833 16.6775 32.51C17.4042 33.2367 17.8125 34.2223 17.8125 35.25H37.1875C37.1875 34.2223 37.5958 33.2367 38.3225 32.51C39.0492 31.7833 40.0348 31.375 41.0625 31.375V23.625C40.0348 23.625 39.0492 23.2167 38.3225 22.49C37.5958 21.7633 37.1875 20.7777 37.1875 19.75H17.8125Z" fill="white"/>
</svg>
