<svg width="38" height="37" viewBox="0 0 38 37" fill="none" xmlns="http://www.w3.org/2000/svg">
<g id="printer">
<g id="Vector">
<path d="M6.625 18.5C6.92337 18.5 7.20952 18.3782 7.4205 18.1613C7.63147 17.9445 7.75 17.6504 7.75 17.3438C7.75 17.0371 7.63147 16.743 7.4205 16.5262C7.20952 16.3093 6.92337 16.1875 6.625 16.1875C6.32663 16.1875 6.04048 16.3093 5.8295 16.5262C5.61853 16.743 5.5 17.0371 5.5 17.3438C5.5 17.6504 5.61853 17.9445 5.8295 18.1613C6.04048 18.3782 6.32663 18.5 6.625 18.5Z" fill="#AA9767"/>
<path d="M12.25 2.3125C11.0565 2.3125 9.91193 2.79978 9.06802 3.66713C8.22411 4.53449 7.75 5.71087 7.75 6.9375V11.5625H5.5C4.30653 11.5625 3.16193 12.0498 2.31802 12.9171C1.47411 13.7845 1 14.9609 1 16.1875V23.125C1 24.3516 1.47411 25.528 2.31802 26.3954C3.16193 27.2627 4.30653 27.75 5.5 27.75H7.75V30.0625C7.75 31.2891 8.22411 32.4655 9.06802 33.3329C9.91193 34.2002 11.0565 34.6875 12.25 34.6875H25.75C26.9435 34.6875 28.0881 34.2002 28.932 33.3329C29.7759 32.4655 30.25 31.2891 30.25 30.0625V27.75H32.5C33.6935 27.75 34.8381 27.2627 35.682 26.3954C36.5259 25.528 37 24.3516 37 23.125V16.1875C37 14.9609 36.5259 13.7845 35.682 12.9171C34.8381 12.0498 33.6935 11.5625 32.5 11.5625H30.25V6.9375C30.25 5.71087 29.7759 4.53449 28.932 3.66713C28.0881 2.79978 26.9435 2.3125 25.75 2.3125H12.25ZM10 6.9375C10 6.32419 10.2371 5.73599 10.659 5.30232C11.081 4.86864 11.6533 4.625 12.25 4.625H25.75C26.3467 4.625 26.919 4.86864 27.341 5.30232C27.7629 5.73599 28 6.32419 28 6.9375V11.5625H10V6.9375ZM12.25 18.5C11.0565 18.5 9.91193 18.9873 9.06802 19.8546C8.22411 20.722 7.75 21.8984 7.75 23.125V25.4375H5.5C4.90326 25.4375 4.33097 25.1939 3.90901 24.7602C3.48705 24.3265 3.25 23.7383 3.25 23.125V16.1875C3.25 15.5742 3.48705 14.986 3.90901 14.5523C4.33097 14.1186 4.90326 13.875 5.5 13.875H32.5C33.0967 13.875 33.669 14.1186 34.091 14.5523C34.5129 14.986 34.75 15.5742 34.75 16.1875V23.125C34.75 23.7383 34.5129 24.3265 34.091 24.7602C33.669 25.1939 33.0967 25.4375 32.5 25.4375H30.25V23.125C30.25 21.8984 29.7759 20.722 28.932 19.8546C28.0881 18.9873 26.9435 18.5 25.75 18.5H12.25ZM28 23.125V30.0625C28 30.6758 27.7629 31.264 27.341 31.6977C26.919 32.1314 26.3467 32.375 25.75 32.375H12.25C11.6533 32.375 11.081 32.1314 10.659 31.6977C10.2371 31.264 10 30.6758 10 30.0625V23.125C10 22.5117 10.2371 21.9235 10.659 21.4898C11.081 21.0561 11.6533 20.8125 12.25 20.8125H25.75C26.3467 20.8125 26.919 21.0561 27.341 21.4898C27.7629 21.9235 28 22.5117 28 23.125Z" fill="#AA9767"/>
<path d="M6.625 18.5C6.92337 18.5 7.20952 18.3782 7.4205 18.1613C7.63147 17.9445 7.75 17.6504 7.75 17.3438C7.75 17.0371 7.63147 16.743 7.4205 16.5262C7.20952 16.3093 6.92337 16.1875 6.625 16.1875C6.32663 16.1875 6.04048 16.3093 5.8295 16.5262C5.61853 16.743 5.5 17.0371 5.5 17.3438C5.5 17.6504 5.61853 17.9445 5.8295 18.1613C6.04048 18.3782 6.32663 18.5 6.625 18.5Z" stroke="#AA9767" stroke-width="0.6"/>
<path d="M12.25 2.3125C11.0565 2.3125 9.91193 2.79978 9.06802 3.66713C8.22411 4.53449 7.75 5.71087 7.75 6.9375V11.5625H5.5C4.30653 11.5625 3.16193 12.0498 2.31802 12.9171C1.47411 13.7845 1 14.9609 1 16.1875V23.125C1 24.3516 1.47411 25.528 2.31802 26.3954C3.16193 27.2627 4.30653 27.75 5.5 27.75H7.75V30.0625C7.75 31.2891 8.22411 32.4655 9.06802 33.3329C9.91193 34.2002 11.0565 34.6875 12.25 34.6875H25.75C26.9435 34.6875 28.0881 34.2002 28.932 33.3329C29.7759 32.4655 30.25 31.2891 30.25 30.0625V27.75H32.5C33.6935 27.75 34.8381 27.2627 35.682 26.3954C36.5259 25.528 37 24.3516 37 23.125V16.1875C37 14.9609 36.5259 13.7845 35.682 12.9171C34.8381 12.0498 33.6935 11.5625 32.5 11.5625H30.25V6.9375C30.25 5.71087 29.7759 4.53449 28.932 3.66713C28.0881 2.79978 26.9435 2.3125 25.75 2.3125H12.25ZM10 6.9375C10 6.32419 10.2371 5.73599 10.659 5.30232C11.081 4.86864 11.6533 4.625 12.25 4.625H25.75C26.3467 4.625 26.919 4.86864 27.341 5.30232C27.7629 5.73599 28 6.32419 28 6.9375V11.5625H10V6.9375ZM12.25 18.5C11.0565 18.5 9.91193 18.9873 9.06802 19.8546C8.22411 20.722 7.75 21.8984 7.75 23.125V25.4375H5.5C4.90326 25.4375 4.33097 25.1939 3.90901 24.7602C3.48705 24.3265 3.25 23.7383 3.25 23.125V16.1875C3.25 15.5742 3.48705 14.986 3.90901 14.5523C4.33097 14.1186 4.90326 13.875 5.5 13.875H32.5C33.0967 13.875 33.669 14.1186 34.091 14.5523C34.5129 14.986 34.75 15.5742 34.75 16.1875V23.125C34.75 23.7383 34.5129 24.3265 34.091 24.7602C33.669 25.1939 33.0967 25.4375 32.5 25.4375H30.25V23.125C30.25 21.8984 29.7759 20.722 28.932 19.8546C28.0881 18.9873 26.9435 18.5 25.75 18.5H12.25ZM28 23.125V30.0625C28 30.6758 27.7629 31.264 27.341 31.6977C26.919 32.1314 26.3467 32.375 25.75 32.375H12.25C11.6533 32.375 11.081 32.1314 10.659 31.6977C10.2371 31.264 10 30.6758 10 30.0625V23.125C10 22.5117 10.2371 21.9235 10.659 21.4898C11.081 21.0561 11.6533 20.8125 12.25 20.8125H25.75C26.3467 20.8125 26.919 21.0561 27.341 21.4898C27.7629 21.9235 28 22.5117 28 23.125Z" stroke="#AA9767" stroke-width="0.6"/>
</g>
</g>
</svg>
