<svg width="25" height="25" viewBox="0 0 25 25" fill="none" xmlns="http://www.w3.org/2000/svg">
<path d="M18.1158 16.372C19.5683 14.39 20.2188 11.9327 19.9373 9.49171C19.6557 7.0507 18.4629 4.80599 16.5975 3.20668C14.732 1.60737 12.3314 0.771391 9.87607 0.866001C7.4207 0.960611 5.09159 1.97883 3.35471 3.71695C1.61784 5.45507 0.601287 7.7849 0.508435 10.2403C0.415582 12.6958 1.25328 15.0957 2.85392 16.9601C4.45457 18.8244 6.70013 20.0156 9.14134 20.2954C11.5826 20.5751 14.0394 19.9228 16.0203 18.469H16.0188C16.0638 18.529 16.1118 18.586 16.1658 18.6415L21.9408 24.4165C22.2221 24.6979 22.6036 24.8561 23.0015 24.8563C23.3994 24.8564 23.7811 24.6985 24.0626 24.4172C24.344 24.136 24.5022 23.7544 24.5024 23.3565C24.5025 22.9586 24.3446 22.5769 24.0633 22.2955L18.2883 16.5205C18.2347 16.4662 18.177 16.4161 18.1158 16.3705V16.372ZM18.5028 10.606C18.5028 11.6894 18.2894 12.7622 17.8748 13.7631C17.4602 14.7641 16.8525 15.6735 16.0864 16.4396C15.3204 17.2057 14.4109 17.8134 13.41 18.228C12.409 18.6426 11.3362 18.856 10.2528 18.856C9.16941 18.856 8.09661 18.6426 7.09567 18.228C6.09474 17.8134 5.18526 17.2057 4.41918 16.4396C3.6531 15.6735 3.04541 14.7641 2.63081 13.7631C2.2162 12.7622 2.00281 11.6894 2.00281 10.606C2.00281 8.41795 2.87201 6.31953 4.41918 4.77236C5.96636 3.22518 8.06478 2.35599 10.2528 2.35599C12.4408 2.35599 14.5393 3.22518 16.0864 4.77236C17.6336 6.31953 18.5028 8.41795 18.5028 10.606Z" fill="#C3D5ED"/>
</svg>
