<svg width="35" height="36" viewBox="0 0 35 36" fill="none" xmlns="http://www.w3.org/2000/svg">
<g id="share">
<path id="Vector" d="M28.8438 3.12506C28.0233 3.12506 27.2364 3.46088 26.6562 4.05865C26.076 4.65643 25.7501 5.46718 25.7501 6.31256C25.7501 7.15794 26.076 7.96869 26.6562 8.56646C27.2364 9.16423 28.0233 9.50006 28.8438 9.50006C29.6643 9.50006 30.4512 9.16423 31.0314 8.56646C31.6116 7.96869 31.9376 7.15794 31.9376 6.31256C31.9376 5.46718 31.6116 4.65643 31.0314 4.05865C30.4512 3.46088 29.6643 3.12506 28.8438 3.12506ZM23.6876 6.31256C23.6874 5.0661 24.1127 3.85928 24.8889 2.90323C25.6651 1.94718 26.743 1.30279 27.9338 1.0828C29.1246 0.862805 30.3525 1.08122 31.4028 1.69982C32.4531 2.31843 33.2588 3.29784 33.679 4.46669C34.0992 5.63555 34.1072 6.91941 33.7014 8.09367C33.2956 9.26793 32.5021 10.2578 31.4595 10.8901C30.4169 11.5224 29.1917 11.7569 27.9983 11.5525C26.8049 11.3481 25.7192 10.7179 24.9312 9.77206L11.0754 16.4021C11.3939 17.4421 11.3939 18.558 11.0754 19.5981L24.9312 26.2281C25.7642 25.23 26.9271 24.5861 28.1945 24.4211C29.462 24.2561 30.7438 24.5817 31.7915 25.3349C32.8392 26.0881 33.5782 27.2152 33.8653 28.4978C34.1524 29.7804 33.9671 31.1272 33.3454 32.277C32.7237 33.4269 31.7098 34.298 30.5002 34.7216C29.2906 35.1451 27.9714 35.091 26.7984 34.5696C25.6253 34.0481 24.682 33.0966 24.151 31.8994C23.6201 30.7022 23.5395 29.3445 23.9247 28.0896L10.0689 21.4596C9.38296 22.2831 8.46868 22.8705 7.44904 23.1427C6.4294 23.4149 5.3533 23.3589 4.36552 22.9821C3.37773 22.6053 2.52564 21.9258 1.92387 21.0352C1.3221 20.1445 0.999512 19.0853 0.999512 18.0001C0.999512 16.9148 1.3221 15.8556 1.92387 14.9649C2.52564 14.0743 3.37773 13.3948 4.36552 13.018C5.3533 12.6412 6.4294 12.5852 7.44904 12.8574C8.46868 13.1296 9.38296 13.717 10.0689 14.5406L23.9247 7.91056C23.767 7.39348 23.687 6.85457 23.6876 6.31256ZM6.15631 14.8126C5.3358 14.8126 4.54889 15.1484 3.9687 15.7462C3.38851 16.3439 3.06256 17.1547 3.06256 18.0001C3.06256 18.8454 3.38851 19.6562 3.9687 20.254C4.54889 20.8517 5.3358 21.1876 6.15631 21.1876C6.97682 21.1876 7.76373 20.8517 8.34392 20.254C8.92411 19.6562 9.25006 18.8454 9.25006 18.0001C9.25006 17.1547 8.92411 16.3439 8.34392 15.7462C7.76373 15.1484 6.97682 14.8126 6.15631 14.8126ZM28.8438 26.5001C28.0233 26.5001 27.2364 26.8359 26.6562 27.4337C26.076 28.0314 25.7501 28.8422 25.7501 29.6876C25.7501 30.5329 26.076 31.3437 26.6562 31.9415C27.2364 32.5392 28.0233 32.8751 28.8438 32.8751C29.6643 32.8751 30.4512 32.5392 31.0314 31.9415C31.6116 31.3437 31.9376 30.5329 31.9376 29.6876C31.9376 28.8422 31.6116 28.0314 31.0314 27.4337C30.4512 26.8359 29.6643 26.5001 28.8438 26.5001Z" fill="#AA9767" stroke="#AA9767"/>
</g>
</svg>
