<svg width="271" height="227" viewBox="0 0 271 227" fill="none" xmlns="http://www.w3.org/2000/svg">
<rect opacity="0.5" width="271" height="227" rx="40" fill="#E7EEF8"/>
<rect opacity="0.4" x="87" y="37" width="97" height="97" rx="20" fill="#64B2E8"/>
<g clip-path="url(#clip0_486_68519)">
<path d="M52.1325 183.604C52.1325 184.015 52.1985 184.389 52.3305 184.726C52.4771 185.078 52.7118 185.379 53.0345 185.628C53.3718 185.877 53.8118 186.068 54.3545 186.2C54.9118 186.347 55.6011 186.42 56.4225 186.42C57.4491 186.42 58.2778 186.347 58.9085 186.2C59.5538 186.053 60.0525 185.87 60.4045 185.65C60.7711 185.445 61.0205 185.217 61.1525 184.968C61.2845 184.719 61.3505 184.491 61.3505 184.286C61.3505 184.066 61.2625 183.89 61.0865 183.758C60.9251 183.626 60.6538 183.457 60.2725 183.252C59.8471 183.032 59.4438 182.805 59.0625 182.57C58.6958 182.335 58.3731 182.071 58.0945 181.778C57.8305 181.47 57.6178 181.125 57.4565 180.744C57.2951 180.363 57.2145 179.923 57.2145 179.424C57.2145 178.852 57.3171 178.28 57.5225 177.708C57.7278 177.121 58.0285 176.593 58.4245 176.124C58.8351 175.655 59.3485 175.273 59.9645 174.98C60.5805 174.687 61.2991 174.54 62.1205 174.54C62.6631 174.54 63.1398 174.599 63.5505 174.716C63.9758 174.833 64.2911 174.929 64.4965 175.002V177.576C63.9831 177.459 63.5358 177.385 63.1545 177.356C62.7878 177.312 62.5018 177.29 62.2965 177.29C61.9151 177.29 61.5851 177.349 61.3065 177.466C61.0278 177.569 60.7931 177.708 60.6025 177.884C60.4265 178.06 60.2945 178.258 60.2065 178.478C60.1185 178.683 60.0745 178.896 60.0745 179.116C60.0745 179.453 60.2211 179.739 60.5145 179.974C60.8225 180.209 61.1965 180.429 61.6365 180.634C62.1645 180.883 62.5971 181.125 62.9345 181.36C63.2718 181.595 63.5358 181.837 63.7265 182.086C63.9318 182.321 64.0711 182.577 64.1445 182.856C64.2325 183.12 64.2765 183.406 64.2765 183.714C64.2765 184.33 64.1518 184.961 63.9025 185.606C63.6531 186.251 63.2205 186.831 62.6045 187.344C62.0031 187.872 61.1965 188.297 60.1845 188.62C59.1871 188.957 57.9331 189.126 56.4225 189.126C55.0878 189.126 53.9658 188.987 53.0565 188.708C52.1471 188.444 51.4065 188.07 50.8345 187.586C50.2771 187.102 49.8738 186.53 49.6245 185.87C49.3898 185.225 49.2725 184.513 49.2725 183.736V180.194H52.1325V183.604ZM72.7117 184C72.5211 184 72.2571 183.956 71.9197 183.868C71.5824 183.78 71.2891 183.589 71.0397 183.296C71.0251 184.293 70.9077 185.122 70.6877 185.782C70.4677 186.457 70.1377 186.999 69.6977 187.41C69.2577 187.821 68.7004 188.114 68.0257 188.29C67.3511 188.466 66.5444 188.561 65.6057 188.576V185.892C66.2071 185.877 66.6837 185.811 67.0357 185.694C67.3877 185.577 67.6517 185.386 67.8277 185.122C68.0037 184.873 68.1137 184.55 68.1577 184.154C68.2164 183.773 68.2457 183.311 68.2457 182.768V176.212H71.0837V179.952C71.0837 180.245 71.1277 180.487 71.2157 180.678C71.3184 180.869 71.4431 181.023 71.5897 181.14C71.7511 181.257 71.9271 181.345 72.1177 181.404C72.3231 181.448 72.5211 181.47 72.7117 181.47C72.8291 181.47 72.9391 181.485 73.0417 181.514C73.1444 181.529 73.2324 181.58 73.3057 181.668C73.3937 181.741 73.4597 181.859 73.5037 182.02C73.5477 182.181 73.5697 182.401 73.5697 182.68C73.5697 183.179 73.4964 183.523 73.3497 183.714C73.2177 183.905 73.0051 184 72.7117 184ZM78.7619 177.444C78.2486 177.444 77.8159 177.51 77.4639 177.642C77.1119 177.759 76.8332 177.891 76.6279 178.038C76.7599 178.229 76.9139 178.434 77.0899 178.654C77.2659 178.874 77.4492 179.094 77.6399 179.314C77.8306 179.534 78.0139 179.747 78.1899 179.952C78.3806 180.157 78.5566 180.333 78.7179 180.48C79.1139 180.231 79.4292 179.908 79.6639 179.512C79.8986 179.101 80.0159 178.749 80.0159 178.456C80.0159 178.353 80.0012 178.243 79.9719 178.126C79.9426 177.994 79.8839 177.884 79.7959 177.796C79.7079 177.693 79.5759 177.613 79.3999 177.554C79.2386 177.481 79.0259 177.444 78.7619 177.444ZM74.2299 181.47C74.5232 181.47 74.8459 181.463 75.1979 181.448C75.5499 181.433 75.8726 181.397 76.1659 181.338L73.9659 178.698C74.0099 178.507 74.0686 178.309 74.1419 178.104C74.2299 177.884 74.3179 177.679 74.4059 177.488C74.4939 177.283 74.5892 177.099 74.6919 176.938C74.7946 176.777 74.8899 176.645 74.9779 176.542C75.4472 176.058 76.0119 175.677 76.6719 175.398C77.3466 175.105 78.0726 174.958 78.8499 174.958C79.5246 174.958 80.1112 175.046 80.6099 175.222C81.1086 175.398 81.5192 175.633 81.8419 175.926C82.1792 176.205 82.4286 176.527 82.5899 176.894C82.7512 177.261 82.8319 177.635 82.8319 178.016C82.8319 178.515 82.6559 179.087 82.3039 179.732C81.9666 180.377 81.4679 180.957 80.8079 181.47H84.3499C84.4672 181.47 84.5772 181.485 84.6799 181.514C84.7826 181.529 84.8706 181.58 84.9439 181.668C85.0319 181.741 85.0979 181.859 85.1419 182.02C85.1859 182.181 85.2079 182.401 85.2079 182.68C85.2079 183.179 85.1346 183.523 84.9879 183.714C84.8559 183.905 84.6432 184 84.3499 184H80.8079C80.4266 184 79.9939 183.941 79.5099 183.824C79.0406 183.692 78.6079 183.479 78.2119 183.186C77.5519 183.435 76.8992 183.633 76.2539 183.78C75.6232 183.927 74.9779 184 74.3179 184H72.7119C72.5946 184 72.4846 183.993 72.3819 183.978C72.2792 183.949 72.1912 183.897 72.1179 183.824C72.0299 183.736 71.9639 183.611 71.9199 183.45C71.8759 183.289 71.8539 183.069 71.8539 182.79C71.8539 182.291 71.9272 181.947 72.0739 181.756C72.2059 181.565 72.4186 181.47 72.7119 181.47H74.2299ZM77.2659 171.438C77.2659 171.013 77.4199 170.646 77.7279 170.338C78.0359 170.03 78.4026 169.876 78.8279 169.876C79.2532 169.876 79.6199 170.03 79.9279 170.338C80.2359 170.646 80.3899 171.013 80.3899 171.438C80.3899 171.863 80.2359 172.23 79.9279 172.538C79.6199 172.846 79.2532 173 78.8279 173C78.4026 173 78.0359 172.846 77.7279 172.538C77.4199 172.23 77.2659 171.863 77.2659 171.438ZM85.2584 181.47C85.5811 181.47 85.8451 181.463 86.0504 181.448C86.2704 181.433 86.4464 181.389 86.5784 181.316C86.7104 181.243 86.8058 181.14 86.8644 181.008C86.9231 180.861 86.9524 180.663 86.9524 180.414V176.212H89.7904V179.952C89.7904 180.421 89.9004 180.788 90.1204 181.052C90.3404 181.301 90.7071 181.433 91.2204 181.448C91.4991 180.656 91.8804 179.871 92.3644 179.094C92.8631 178.317 93.4498 177.627 94.1244 177.026C94.7991 176.41 95.5471 175.911 96.3684 175.53C97.1898 175.149 98.0624 174.958 98.9864 174.958C100.497 174.958 101.663 175.405 102.484 176.3C103.32 177.195 103.738 178.449 103.738 180.062V181.47H105.476C105.594 181.47 105.704 181.485 105.806 181.514C105.909 181.529 105.997 181.58 106.07 181.668C106.158 181.741 106.224 181.859 106.268 182.02C106.312 182.181 106.334 182.401 106.334 182.68C106.334 183.179 106.261 183.523 106.114 183.714C105.982 183.905 105.77 184 105.476 184H92.2104C91.4624 184 90.8244 183.883 90.2964 183.648C89.7831 183.399 89.4091 183.135 89.1744 182.856C88.7931 183.369 88.2871 183.692 87.6564 183.824C87.0258 183.941 86.2118 184 85.2144 184H84.3564C84.2391 184 84.1291 183.993 84.0264 183.978C83.9238 183.949 83.8358 183.897 83.7624 183.824C83.6744 183.736 83.6084 183.611 83.5644 183.45C83.5204 183.289 83.4984 183.069 83.4984 182.79C83.4984 182.291 83.5718 181.947 83.7184 181.756C83.8504 181.565 84.0631 181.47 84.3564 181.47H85.2584ZM100.9 181.47V180.436C100.9 179.688 100.739 179.072 100.416 178.588C100.094 178.104 99.5364 177.862 98.7444 177.862C98.2751 177.862 97.8204 177.965 97.3804 178.17C96.9551 178.361 96.5518 178.625 96.1704 178.962C95.8038 179.285 95.4591 179.666 95.1364 180.106C94.8284 180.531 94.5644 180.986 94.3444 181.47H100.9ZM108.006 181.47V168.292H110.888V184H105.476C105.358 184 105.248 183.993 105.146 183.978C105.043 183.949 104.955 183.897 104.882 183.824C104.794 183.736 104.728 183.611 104.684 183.45C104.64 183.289 104.618 183.069 104.618 182.79C104.618 182.291 104.691 181.947 104.838 181.756C104.97 181.565 105.182 181.47 105.476 181.47H108.006ZM116.358 168.292V184H113.52V168.292H116.358ZM141.534 184H128.378C127.512 184 126.786 183.941 126.2 183.824C125.613 183.692 125.144 183.487 124.792 183.208C124.44 182.929 124.183 182.57 124.022 182.13C123.875 181.69 123.802 181.155 123.802 180.524V176.894H126.684V180.106C126.684 180.385 126.72 180.612 126.794 180.788C126.867 180.964 126.999 181.103 127.19 181.206C127.38 181.309 127.637 181.382 127.96 181.426C128.282 181.455 128.693 181.47 129.192 181.47H138.674V175.244H141.534V184ZM129.434 172.714C129.434 172.289 129.588 171.922 129.896 171.614C130.204 171.306 130.57 171.152 130.996 171.152C131.421 171.152 131.788 171.306 132.096 171.614C132.404 171.922 132.558 172.289 132.558 172.714C132.558 173.139 132.404 173.506 132.096 173.814C131.788 174.122 131.421 174.276 130.996 174.276C130.57 174.276 130.204 174.122 129.896 173.814C129.588 173.506 129.434 173.139 129.434 172.714ZM133.02 172.714C133.02 172.289 133.174 171.922 133.482 171.614C133.79 171.306 134.156 171.152 134.582 171.152C135.007 171.152 135.374 171.306 135.682 171.614C135.99 171.922 136.144 172.289 136.144 172.714C136.144 173.139 135.99 173.506 135.682 173.814C135.374 174.122 135.007 174.276 134.582 174.276C134.156 174.276 133.79 174.122 133.482 173.814C133.174 173.506 133.02 173.139 133.02 172.714ZM149.37 182.68C149.37 183.179 149.297 183.523 149.15 183.714C149.018 183.905 148.806 184 148.512 184H147.588C147.09 184 146.628 183.949 146.202 183.846C145.792 183.729 145.432 183.545 145.124 183.296C144.831 183.032 144.596 182.687 144.42 182.262C144.259 181.837 144.178 181.309 144.178 180.678V168.292H147.038V180.282C147.038 180.795 147.126 181.125 147.302 181.272C147.493 181.404 147.757 181.47 148.094 181.47H148.512C148.63 181.47 148.74 181.485 148.842 181.514C148.945 181.529 149.033 181.58 149.106 181.668C149.194 181.741 149.26 181.859 149.304 182.02C149.348 182.181 149.37 182.401 149.37 182.68ZM149.257 181.47C149.58 181.47 149.844 181.463 150.049 181.448C150.269 181.433 150.445 181.389 150.577 181.316C150.709 181.243 150.805 181.14 150.863 181.008C150.922 180.861 150.951 180.663 150.951 180.414V176.212H153.789V179.952C153.789 180.421 153.914 180.795 154.163 181.074C154.427 181.338 154.823 181.47 155.351 181.47C155.791 181.47 156.158 181.404 156.451 181.272C156.759 181.14 156.913 180.854 156.913 180.414V176.212H159.751V179.952C159.751 180.465 159.861 180.847 160.081 181.096C160.316 181.345 160.697 181.47 161.225 181.47C161.636 181.47 161.966 181.404 162.215 181.272C162.465 181.125 162.589 180.817 162.589 180.348V175.244H165.427V179.952C165.427 180.495 165.537 180.883 165.757 181.118C165.977 181.353 166.447 181.47 167.165 181.47C167.283 181.47 167.393 181.485 167.495 181.514C167.598 181.529 167.686 181.58 167.759 181.668C167.847 181.741 167.913 181.859 167.957 182.02C168.001 182.181 168.023 182.401 168.023 182.68C168.023 183.179 167.95 183.523 167.803 183.714C167.671 183.905 167.459 184 167.165 184C166.74 184 166.322 183.927 165.911 183.78C165.501 183.619 165.163 183.303 164.899 182.834C164.694 183.113 164.474 183.333 164.239 183.494C164.019 183.641 163.792 183.758 163.557 183.846C163.323 183.919 163.088 183.963 162.853 183.978C162.619 183.993 162.391 184 162.171 184C161.907 184 161.629 183.978 161.335 183.934C161.042 183.89 160.756 183.824 160.477 183.736C160.199 183.633 159.942 183.516 159.707 183.384C159.473 183.237 159.289 183.061 159.157 182.856C158.703 183.355 158.241 183.67 157.771 183.802C157.317 183.934 156.818 184 156.275 184C154.838 184 153.804 183.619 153.173 182.856C152.777 183.369 152.264 183.692 151.633 183.824C151.003 183.941 150.196 184 149.213 184H148.487C148.37 184 148.26 183.993 148.157 183.978C148.055 183.949 147.967 183.897 147.893 183.824C147.805 183.736 147.739 183.611 147.695 183.45C147.651 183.289 147.629 183.069 147.629 182.79C147.629 182.291 147.703 181.947 147.849 181.756C147.981 181.565 148.194 181.47 148.487 181.47H149.257ZM168.059 181.47C168.382 181.47 168.646 181.463 168.851 181.448C169.071 181.433 169.247 181.389 169.379 181.316C169.511 181.243 169.607 181.14 169.665 181.008C169.724 180.861 169.753 180.663 169.753 180.414V176.212H172.569V179.952C172.569 180.421 172.694 180.795 172.943 181.074C173.207 181.338 173.611 181.47 174.153 181.47C174.579 181.47 174.938 181.404 175.231 181.272C175.539 181.14 175.693 180.854 175.693 180.414V176.212H178.553V179.952C178.553 180.964 178.986 181.47 179.851 181.47H181.215V175.244H184.075V184H180.709C179.932 184 179.345 183.912 178.949 183.736C178.553 183.545 178.216 183.252 177.937 182.856C177.717 183.135 177.483 183.355 177.233 183.516C176.984 183.663 176.727 183.773 176.463 183.846C176.199 183.919 175.935 183.963 175.671 183.978C175.422 183.993 175.18 184 174.945 184C174.197 184 173.567 183.883 173.053 183.648C172.555 183.399 172.195 183.135 171.975 182.856C171.579 183.369 171.066 183.692 170.435 183.824C169.805 183.941 168.998 184 168.015 184H167.157C167.04 184 166.93 183.993 166.827 183.978C166.725 183.949 166.637 183.897 166.563 183.824C166.475 183.736 166.409 183.611 166.365 183.45C166.321 183.289 166.299 183.069 166.299 182.79C166.299 182.291 166.373 181.947 166.519 181.756C166.651 181.565 166.864 181.47 167.157 181.47H168.059ZM194.681 184C194.476 185.599 193.816 186.757 192.701 187.476C191.587 188.209 189.922 188.576 187.707 188.576H187.025V185.892H187.531C188.294 185.892 188.932 185.848 189.445 185.76C189.959 185.672 190.377 185.54 190.699 185.364C191.037 185.203 191.286 185.005 191.447 184.77C191.609 184.55 191.711 184.293 191.755 184H190.391C189.746 184 189.152 183.927 188.609 183.78C188.067 183.633 187.597 183.399 187.201 183.076C186.805 182.739 186.497 182.313 186.277 181.8C186.057 181.272 185.947 180.641 185.947 179.908C185.947 179.321 186.043 178.742 186.233 178.17C186.439 177.598 186.732 177.085 187.113 176.63C187.495 176.175 187.964 175.816 188.521 175.552C189.079 175.273 189.717 175.134 190.435 175.134C191.242 175.134 191.917 175.273 192.459 175.552C193.017 175.831 193.464 176.227 193.801 176.74C194.139 177.239 194.381 177.84 194.527 178.544C194.674 179.233 194.747 179.996 194.747 180.832V181.47H196.353C196.471 181.47 196.581 181.485 196.683 181.514C196.786 181.529 196.874 181.58 196.947 181.668C197.035 181.741 197.101 181.859 197.145 182.02C197.189 182.181 197.211 182.401 197.211 182.68C197.211 183.179 197.138 183.523 196.991 183.714C196.859 183.905 196.647 184 196.353 184H194.681ZM188.763 179.644C188.763 180.348 188.91 180.832 189.203 181.096C189.511 181.345 189.915 181.47 190.413 181.47H191.865V180.15C191.865 179.446 191.755 178.867 191.535 178.412C191.315 177.943 190.905 177.708 190.303 177.708C189.761 177.708 189.365 177.891 189.115 178.258C188.881 178.625 188.763 179.087 188.763 179.644ZM192.899 173.044H187.883V171.24H188.895C188.822 171.123 188.763 170.961 188.719 170.756C188.69 170.536 188.675 170.353 188.675 170.206C188.675 169.81 188.741 169.465 188.873 169.172C189.005 168.879 189.181 168.637 189.401 168.446C189.621 168.241 189.871 168.087 190.149 167.984C190.428 167.881 190.721 167.83 191.029 167.83C191.293 167.83 191.535 167.859 191.755 167.918C191.99 167.977 192.188 168.035 192.349 168.094V169.788C192.129 169.729 191.931 169.693 191.755 169.678C191.594 169.649 191.477 169.634 191.403 169.634C191.066 169.634 190.824 169.715 190.677 169.876C190.545 170.023 190.479 170.206 190.479 170.426C190.479 170.646 190.545 170.837 190.677 170.998C190.824 171.159 191.11 171.24 191.535 171.24H192.899V173.044ZM197.498 181.47C197.674 181.47 197.887 181.323 198.136 181.03C198.4 180.737 198.635 180.311 198.84 179.754C199.163 178.918 199.508 178.229 199.874 177.686C200.256 177.129 200.652 176.689 201.062 176.366C201.473 176.029 201.884 175.794 202.294 175.662C202.705 175.53 203.108 175.464 203.504 175.464C204.076 175.464 204.612 175.574 205.11 175.794C205.609 176.014 206.034 176.322 206.386 176.718C206.753 177.114 207.039 177.591 207.244 178.148C207.45 178.705 207.552 179.314 207.552 179.974C207.552 180.077 207.545 180.172 207.53 180.26C207.53 180.348 207.53 180.436 207.53 180.524C207.721 180.876 208.014 181.125 208.41 181.272C208.806 181.404 209.18 181.47 209.532 181.47C209.65 181.47 209.76 181.485 209.862 181.514C209.965 181.529 210.053 181.58 210.126 181.668C210.214 181.741 210.28 181.859 210.324 182.02C210.368 182.181 210.39 182.401 210.39 182.68C210.39 183.179 210.317 183.523 210.17 183.714C210.038 183.905 209.826 184 209.532 184C208.975 184 208.476 183.897 208.036 183.692C207.596 183.472 207.215 183.127 206.892 182.658C206.584 183.171 206.159 183.567 205.616 183.846C205.074 184.125 204.414 184.264 203.636 184.264C203.05 184.264 202.456 184.176 201.854 184C201.253 183.824 200.63 183.523 199.984 183.098C199.603 183.523 199.214 183.78 198.818 183.868C198.422 183.956 197.99 184 197.52 184H196.354C196.237 184 196.127 183.993 196.024 183.978C195.922 183.949 195.834 183.897 195.76 183.824C195.672 183.736 195.606 183.611 195.562 183.45C195.518 183.289 195.496 183.069 195.496 182.79C195.496 182.291 195.57 181.947 195.716 181.756C195.848 181.565 196.061 181.47 196.354 181.47H197.498ZM204.758 179.908C204.758 179.688 204.729 179.468 204.67 179.248C204.626 179.028 204.546 178.837 204.428 178.676C204.326 178.5 204.179 178.361 203.988 178.258C203.812 178.141 203.592 178.082 203.328 178.082C202.947 178.082 202.551 178.287 202.14 178.698C201.73 179.109 201.407 179.835 201.172 180.876C201.539 181.096 201.884 181.279 202.206 181.426C202.544 181.558 202.903 181.624 203.284 181.624C203.754 181.624 204.113 181.47 204.362 181.162C204.626 180.839 204.758 180.421 204.758 179.908ZM212.054 181.47V168.292H214.936V184H209.524C209.407 184 209.297 183.993 209.194 183.978C209.092 183.949 209.004 183.897 208.93 183.824C208.842 183.736 208.776 183.611 208.732 183.45C208.688 183.289 208.666 183.069 208.666 182.79C208.666 182.291 208.74 181.947 208.886 181.756C209.018 181.565 209.231 181.47 209.524 181.47H212.054ZM220.407 168.292V184H217.569V168.292H220.407Z" fill="#004876"/>
</g>
<path d="M117.688 79.4177C119.931 79.4177 121.75 77.5758 121.75 75.3037C121.75 73.0317 119.931 71.1898 117.688 71.1898C115.444 71.1898 113.625 73.0317 113.625 75.3037C113.625 77.5758 115.444 79.4177 117.688 79.4177Z" stroke="#4097CB" stroke-width="2.5" stroke-miterlimit="10" stroke-linecap="round" stroke-linejoin="round"/>
<path d="M124.25 88.2785H111.75V83.3981C111.75 81.1999 113.565 79.4177 115.804 79.4177H120.196C122.435 79.4177 124.25 81.1997 124.25 83.3981L124.25 88.2785Z" stroke="#4097CB" stroke-width="2.5" stroke-miterlimit="10" stroke-linecap="round" stroke-linejoin="round"/>
<path d="M153.938 79.4177C156.181 79.4177 158 77.5758 158 75.3037C158 73.0317 156.181 71.1898 153.938 71.1898C151.694 71.1898 149.875 73.0317 149.875 75.3037C149.875 77.5758 151.694 79.4177 153.938 79.4177Z" stroke="#4097CB" stroke-width="2.5" stroke-miterlimit="10" stroke-linecap="round" stroke-linejoin="round"/>
<path d="M160.5 88.2785H148V83.3981C148 81.1999 149.815 79.4177 152.054 79.4177H156.446C158.685 79.4177 160.5 81.1997 160.5 83.3981L160.5 88.2785Z" stroke="#4097CB" stroke-width="2.5" stroke-miterlimit="10" stroke-linecap="round" stroke-linejoin="round"/>
<path d="M143 88.2784H129.25V83.4157C129.25 82.2563 130.21 81.3164 131.395 81.3164H140.855C142.04 81.3164 143 82.2563 143 83.4157V88.2784H143Z" stroke="#4097CB" stroke-width="2.5" stroke-miterlimit="10" stroke-linecap="round" stroke-linejoin="round"/>
<path d="M131.157 92.7088H110.342C109.739 92.7088 109.25 92.213 109.25 91.6012V89.386C109.25 88.7743 109.739 88.2784 110.342 88.2784H161.908C162.511 88.2784 163 88.7743 163 89.386V91.6012C163 92.213 162.511 92.7088 161.908 92.7088H141.111" stroke="#4097CB" stroke-width="2.5" stroke-miterlimit="10" stroke-linecap="round" stroke-linejoin="round"/>
<path d="M160.5 92.7089V104.868C160.5 105.493 160.011 106 159.407 106H112.843C112.239 106 111.75 105.493 111.75 104.868V92.7089" stroke="#4097CB" stroke-width="2.5" stroke-miterlimit="10" stroke-linecap="round" stroke-linejoin="round"/>
<defs>
<clipPath id="clip0_486_68519">
<rect width="173" height="36" fill="white" transform="translate(49 157)"/>
</clipPath>
</defs>
</svg>
