<svg width="271" height="227" viewBox="0 0 271 227" fill="none" xmlns="http://www.w3.org/2000/svg">
<rect opacity="0.5" width="271" height="227" rx="40" fill="#E7EEF8"/>
<rect opacity="0.4" x="87" y="37" width="97" height="97" rx="20" fill="#64B2E8"/>
<g clip-path="url(#clip0_486_68552)">
<path d="M52.8433 177.554C52.5499 177.554 52.3006 177.627 52.0953 177.774C51.9046 177.906 51.7433 178.082 51.6113 178.302C51.4939 178.522 51.4059 178.771 51.3473 179.05C51.2886 179.329 51.2593 179.6 51.2593 179.864C51.2593 180.377 51.3766 180.795 51.6113 181.118C51.8606 181.426 52.2859 181.58 52.8873 181.58C53.3859 181.58 53.7673 181.441 54.0312 181.162C54.2953 180.869 54.4273 180.465 54.4273 179.952C54.4273 179.292 54.2879 178.727 54.0093 178.258C53.7453 177.789 53.3566 177.554 52.8433 177.554ZM48.5312 180.04C48.5312 179.453 48.6266 178.859 48.8173 178.258C49.0226 177.642 49.3086 177.092 49.6753 176.608C50.0566 176.124 50.5113 175.728 51.0393 175.42C51.5673 175.112 52.1686 174.958 52.8433 174.958C53.4593 174.958 54.0239 175.075 54.5373 175.31C55.0653 175.545 55.5199 175.882 55.9013 176.322C56.2826 176.747 56.5833 177.275 56.8033 177.906C57.0233 178.537 57.1333 179.248 57.1333 180.04C57.1333 180.553 57.0526 181.052 56.8913 181.536C56.7299 182.02 56.4733 182.453 56.1213 182.834C55.7693 183.201 55.3146 183.501 54.7573 183.736C54.2146 183.971 53.5546 184.088 52.7773 184.088C52.1466 184.088 51.5673 184.007 51.0393 183.846C50.5259 183.685 50.0786 183.443 49.6973 183.12C49.3306 182.783 49.0446 182.357 48.8393 181.844C48.6339 181.331 48.5312 180.729 48.5312 180.04ZM49.5873 171.438C49.5873 171.013 49.7413 170.646 50.0493 170.338C50.3573 170.03 50.7239 169.876 51.1493 169.876C51.5746 169.876 51.9413 170.03 52.2493 170.338C52.5573 170.646 52.7113 171.013 52.7113 171.438C52.7113 171.863 52.5573 172.23 52.2493 172.538C51.9413 172.846 51.5746 173 51.1493 173C50.7239 173 50.3573 172.846 50.0493 172.538C49.7413 172.23 49.5873 171.863 49.5873 171.438ZM53.1733 171.438C53.1733 171.013 53.3273 170.646 53.6353 170.338C53.9433 170.03 54.3099 169.876 54.7353 169.876C55.1606 169.876 55.5273 170.03 55.8353 170.338C56.1433 170.646 56.2973 171.013 56.2973 171.438C56.2973 171.863 56.1433 172.23 55.8353 172.538C55.5273 172.846 55.1606 173 54.7353 173C54.3099 173 53.9433 172.846 53.6353 172.538C53.3273 172.23 53.1733 171.863 53.1733 171.438ZM65.5682 184C65.3775 184 65.1135 183.956 64.7762 183.868C64.4389 183.78 64.1455 183.589 63.8962 183.296C63.8815 184.293 63.7642 185.122 63.5442 185.782C63.3242 186.457 62.9942 186.999 62.5542 187.41C62.1142 187.821 61.5569 188.114 60.8822 188.29C60.2075 188.466 59.4009 188.561 58.4622 188.576V185.892C59.0635 185.877 59.5402 185.811 59.8922 185.694C60.2442 185.577 60.5082 185.386 60.6842 185.122C60.8602 184.873 60.9702 184.55 61.0142 184.154C61.0729 183.773 61.1022 183.311 61.1022 182.768V176.212H63.9402V179.952C63.9402 180.245 63.9842 180.487 64.0722 180.678C64.1749 180.869 64.2995 181.023 64.4462 181.14C64.6075 181.257 64.7835 181.345 64.9742 181.404C65.1795 181.448 65.3775 181.47 65.5682 181.47C65.6855 181.47 65.7955 181.485 65.8982 181.514C66.0009 181.529 66.0889 181.58 66.1622 181.668C66.2502 181.741 66.3162 181.859 66.3602 182.02C66.4042 182.181 66.4262 182.401 66.4262 182.68C66.4262 183.179 66.3529 183.523 66.2062 183.714C66.0742 183.905 65.8615 184 65.5682 184ZM73.4444 184C73.239 184 73.019 183.985 72.7844 183.956C72.5497 183.927 72.3224 183.875 72.1024 183.802C71.8824 183.714 71.6697 183.597 71.4644 183.45C71.2737 183.303 71.1124 183.113 70.9804 182.878C70.8044 183.127 70.5917 183.333 70.3424 183.494C70.093 183.641 69.829 183.751 69.5504 183.824C69.2717 183.897 68.9784 183.949 68.6704 183.978C68.377 183.993 68.0837 184 67.7904 184H65.5684C65.451 184 65.341 183.993 65.2384 183.978C65.1357 183.949 65.0477 183.897 64.9744 183.824C64.8864 183.736 64.8204 183.611 64.7764 183.45C64.7324 183.289 64.7104 183.069 64.7104 182.79C64.7104 182.291 64.7837 181.947 64.9304 181.756C65.0624 181.565 65.275 181.47 65.5684 181.47H67.3284C67.827 181.47 68.1717 181.397 68.3624 181.25C68.5677 181.089 68.6704 180.737 68.6704 180.194V175.244H71.5304V179.952C71.5304 180.495 71.6697 180.883 71.9484 181.118C72.2417 181.353 72.7404 181.47 73.4444 181.47C73.5617 181.47 73.6717 181.485 73.7744 181.514C73.877 181.529 73.965 181.58 74.0384 181.668C74.1264 181.741 74.1924 181.859 74.2364 182.02C74.2804 182.181 74.3024 182.401 74.3024 182.68C74.3024 183.179 74.229 183.523 74.0824 183.714C73.9504 183.905 73.7377 184 73.4444 184ZM66.1404 187.696C66.1404 187.271 66.2944 186.904 66.6024 186.596C66.9104 186.288 67.277 186.134 67.7024 186.134C68.1277 186.134 68.4944 186.288 68.8024 186.596C69.1104 186.904 69.2644 187.271 69.2644 187.696C69.2644 188.121 69.1104 188.488 68.8024 188.796C68.4944 189.104 68.1277 189.258 67.7024 189.258C67.277 189.258 66.9104 189.104 66.6024 188.796C66.2944 188.488 66.1404 188.121 66.1404 187.696ZM69.7264 187.696C69.7264 187.271 69.8804 186.904 70.1884 186.596C70.4964 186.288 70.863 186.134 71.2884 186.134C71.7137 186.134 72.0804 186.288 72.3884 186.596C72.6964 186.904 72.8504 187.271 72.8504 187.696C72.8504 188.121 72.6964 188.488 72.3884 188.796C72.0804 189.104 71.7137 189.258 71.2884 189.258C70.863 189.258 70.4964 189.104 70.1884 188.796C69.8804 188.488 69.7264 188.121 69.7264 187.696ZM79.5031 177.444C78.9898 177.444 78.5571 177.51 78.2051 177.642C77.8531 177.759 77.5745 177.891 77.3691 178.038C77.5011 178.229 77.6551 178.434 77.8311 178.654C78.0071 178.874 78.1905 179.094 78.3811 179.314C78.5718 179.534 78.7551 179.747 78.9311 179.952C79.1218 180.157 79.2978 180.333 79.4591 180.48C79.8551 180.231 80.1705 179.908 80.4051 179.512C80.6398 179.101 80.7571 178.749 80.7571 178.456C80.7571 178.353 80.7425 178.243 80.7131 178.126C80.6838 177.994 80.6251 177.884 80.5371 177.796C80.4491 177.693 80.3171 177.613 80.1411 177.554C79.9798 177.481 79.7671 177.444 79.5031 177.444ZM74.9711 181.47C75.2645 181.47 75.5871 181.463 75.9391 181.448C76.2911 181.433 76.6138 181.397 76.9071 181.338L74.7071 178.698C74.7511 178.507 74.8098 178.309 74.8831 178.104C74.9711 177.884 75.0591 177.679 75.1471 177.488C75.2351 177.283 75.3305 177.099 75.4331 176.938C75.5358 176.777 75.6311 176.645 75.7191 176.542C76.1885 176.058 76.7531 175.677 77.4131 175.398C78.0878 175.105 78.8138 174.958 79.5911 174.958C80.2658 174.958 80.8525 175.046 81.3511 175.222C81.8498 175.398 82.2605 175.633 82.5831 175.926C82.9205 176.205 83.1698 176.527 83.3311 176.894C83.4925 177.261 83.5731 177.635 83.5731 178.016C83.5731 178.515 83.3971 179.087 83.0451 179.732C82.7078 180.377 82.2091 180.957 81.5491 181.47H85.0911C85.2085 181.47 85.3185 181.485 85.4211 181.514C85.5238 181.529 85.6118 181.58 85.6851 181.668C85.7731 181.741 85.8391 181.859 85.8831 182.02C85.9271 182.181 85.9491 182.401 85.9491 182.68C85.9491 183.179 85.8758 183.523 85.7291 183.714C85.5971 183.905 85.3845 184 85.0911 184H81.5491C81.1678 184 80.7351 183.941 80.2511 183.824C79.7818 183.692 79.3491 183.479 78.9531 183.186C78.2931 183.435 77.6405 183.633 76.9951 183.78C76.3645 183.927 75.7191 184 75.0591 184H73.4531C73.3358 184 73.2258 183.993 73.1231 183.978C73.0205 183.949 72.9325 183.897 72.8591 183.824C72.7711 183.736 72.7051 183.611 72.6611 183.45C72.6171 183.289 72.5951 183.069 72.5951 182.79C72.5951 182.291 72.6685 181.947 72.8151 181.756C72.9471 181.565 73.1598 181.47 73.4531 181.47H74.9711ZM78.0071 171.438C78.0071 171.013 78.1611 170.646 78.4691 170.338C78.7771 170.03 79.1438 169.876 79.5691 169.876C79.9945 169.876 80.3611 170.03 80.6691 170.338C80.9771 170.646 81.1311 171.013 81.1311 171.438C81.1311 171.863 80.9771 172.23 80.6691 172.538C80.3611 172.846 79.9945 173 79.5691 173C79.1438 173 78.7771 172.846 78.4691 172.538C78.1611 172.23 78.0071 171.863 78.0071 171.438ZM85.9997 181.47C86.3223 181.47 86.5863 181.463 86.7917 181.448C87.0117 181.433 87.1877 181.389 87.3197 181.316C87.4517 181.243 87.547 181.14 87.6057 181.008C87.6643 180.861 87.6937 180.663 87.6937 180.414V176.212H90.5317V179.952C90.5317 180.421 90.6417 180.788 90.8617 181.052C91.0817 181.301 91.4483 181.433 91.9617 181.448C92.2403 180.656 92.6217 179.871 93.1057 179.094C93.6043 178.317 94.191 177.627 94.8657 177.026C95.5403 176.41 96.2883 175.911 97.1097 175.53C97.931 175.149 98.8037 174.958 99.7277 174.958C101.238 174.958 102.404 175.405 103.226 176.3C104.062 177.195 104.48 178.449 104.48 180.062V181.47H106.218C106.335 181.47 106.445 181.485 106.548 181.514C106.65 181.529 106.738 181.58 106.812 181.668C106.9 181.741 106.966 181.859 107.01 182.02C107.054 182.181 107.076 182.401 107.076 182.68C107.076 183.179 107.002 183.523 106.856 183.714C106.724 183.905 106.511 184 106.218 184H92.9517C92.2037 184 91.5657 183.883 91.0377 183.648C90.5243 183.399 90.1503 183.135 89.9157 182.856C89.5343 183.369 89.0283 183.692 88.3977 183.824C87.767 183.941 86.953 184 85.9557 184H85.0977C84.9803 184 84.8703 183.993 84.7677 183.978C84.665 183.949 84.577 183.897 84.5037 183.824C84.4157 183.736 84.3497 183.611 84.3057 183.45C84.2617 183.289 84.2397 183.069 84.2397 182.79C84.2397 182.291 84.313 181.947 84.4597 181.756C84.5917 181.565 84.8043 181.47 85.0977 181.47H85.9997ZM101.642 181.47V180.436C101.642 179.688 101.48 179.072 101.158 178.588C100.835 178.104 100.278 177.862 99.4857 177.862C99.0163 177.862 98.5617 177.965 98.1217 178.17C97.6963 178.361 97.293 178.625 96.9117 178.962C96.545 179.285 96.2003 179.666 95.8777 180.106C95.5697 180.531 95.3057 180.986 95.0857 181.47H101.642ZM108.747 181.47V168.292H111.629V184H106.217C106.099 184 105.989 183.993 105.887 183.978C105.784 183.949 105.696 183.897 105.623 183.824C105.535 183.736 105.469 183.611 105.425 183.45C105.381 183.289 105.359 183.069 105.359 182.79C105.359 182.291 105.432 181.947 105.579 181.756C105.711 181.565 105.923 181.47 106.217 181.47H108.747ZM117.099 168.292V184H114.261V168.292H117.099ZM142.275 184H129.119C128.254 184 127.528 183.941 126.941 183.824C126.354 183.692 125.885 183.487 125.533 183.208C125.181 182.929 124.924 182.57 124.763 182.13C124.616 181.69 124.543 181.155 124.543 180.524V176.894H127.425V180.106C127.425 180.385 127.462 180.612 127.535 180.788C127.608 180.964 127.74 181.103 127.931 181.206C128.122 181.309 128.378 181.382 128.701 181.426C129.024 181.455 129.434 181.47 129.933 181.47H139.415V175.244H142.275V184ZM130.175 172.714C130.175 172.289 130.329 171.922 130.637 171.614C130.945 171.306 131.312 171.152 131.737 171.152C132.162 171.152 132.529 171.306 132.837 171.614C133.145 171.922 133.299 172.289 133.299 172.714C133.299 173.139 133.145 173.506 132.837 173.814C132.529 174.122 132.162 174.276 131.737 174.276C131.312 174.276 130.945 174.122 130.637 173.814C130.329 173.506 130.175 173.139 130.175 172.714ZM133.761 172.714C133.761 172.289 133.915 171.922 134.223 171.614C134.531 171.306 134.898 171.152 135.323 171.152C135.748 171.152 136.115 171.306 136.423 171.614C136.731 171.922 136.885 172.289 136.885 172.714C136.885 173.139 136.731 173.506 136.423 173.814C136.115 174.122 135.748 174.276 135.323 174.276C134.898 174.276 134.531 174.122 134.223 173.814C133.915 173.506 133.761 173.139 133.761 172.714ZM150.112 182.68C150.112 183.179 150.038 183.523 149.892 183.714C149.76 183.905 149.547 184 149.254 184H148.33C147.831 184 147.369 183.949 146.944 183.846C146.533 183.729 146.174 183.545 145.866 183.296C145.572 183.032 145.338 182.687 145.162 182.262C145 181.837 144.92 181.309 144.92 180.678V168.292H147.78V180.282C147.78 180.795 147.868 181.125 148.044 181.272C148.234 181.404 148.498 181.47 148.836 181.47H149.254C149.371 181.47 149.481 181.485 149.584 181.514C149.686 181.529 149.774 181.58 149.848 181.668C149.936 181.741 150.002 181.859 150.046 182.02C150.09 182.181 150.112 182.401 150.112 182.68ZM149.999 181.47C150.321 181.47 150.585 181.463 150.791 181.448C151.011 181.433 151.187 181.389 151.319 181.316C151.451 181.243 151.546 181.14 151.605 181.008C151.663 180.861 151.693 180.663 151.693 180.414V176.212H154.531V179.952C154.531 180.421 154.655 180.795 154.905 181.074C155.169 181.338 155.565 181.47 156.093 181.47C156.533 181.47 156.899 181.404 157.193 181.272C157.501 181.14 157.655 180.854 157.655 180.414V176.212H160.493V179.952C160.493 180.465 160.603 180.847 160.823 181.096C161.057 181.345 161.439 181.47 161.967 181.47C162.377 181.47 162.707 181.404 162.957 181.272C163.206 181.125 163.331 180.817 163.331 180.348V175.244H166.169V179.952C166.169 180.495 166.279 180.883 166.499 181.118C166.719 181.353 167.188 181.47 167.907 181.47C168.024 181.47 168.134 181.485 168.237 181.514C168.339 181.529 168.427 181.58 168.501 181.668C168.589 181.741 168.655 181.859 168.699 182.02C168.743 182.181 168.765 182.401 168.765 182.68C168.765 183.179 168.691 183.523 168.545 183.714C168.413 183.905 168.2 184 167.907 184C167.481 184 167.063 183.927 166.653 183.78C166.242 183.619 165.905 183.303 165.641 182.834C165.435 183.113 165.215 183.333 164.981 183.494C164.761 183.641 164.533 183.758 164.299 183.846C164.064 183.919 163.829 183.963 163.595 183.978C163.36 183.993 163.133 184 162.913 184C162.649 184 162.37 183.978 162.077 183.934C161.783 183.89 161.497 183.824 161.219 183.736C160.94 183.633 160.683 183.516 160.449 183.384C160.214 183.237 160.031 183.061 159.899 182.856C159.444 183.355 158.982 183.67 158.513 183.802C158.058 183.934 157.559 184 157.017 184C155.579 184 154.545 183.619 153.915 182.856C153.519 183.369 153.005 183.692 152.375 183.824C151.744 183.941 150.937 184 149.955 184H149.229C149.111 184 149.001 183.993 148.899 183.978C148.796 183.949 148.708 183.897 148.635 183.824C148.547 183.736 148.481 183.611 148.437 183.45C148.393 183.289 148.371 183.069 148.371 182.79C148.371 182.291 148.444 181.947 148.591 181.756C148.723 181.565 148.935 181.47 149.229 181.47H149.999ZM168.8 181.47C169.123 181.47 169.387 181.463 169.592 181.448C169.812 181.433 169.988 181.389 170.12 181.316C170.252 181.243 170.348 181.14 170.406 181.008C170.465 180.861 170.494 180.663 170.494 180.414V176.212H173.31V179.952C173.31 180.421 173.435 180.795 173.684 181.074C173.948 181.338 174.352 181.47 174.894 181.47C175.32 181.47 175.679 181.404 175.972 181.272C176.28 181.14 176.434 180.854 176.434 180.414V176.212H179.294V179.952C179.294 180.964 179.727 181.47 180.592 181.47H181.956V175.244H184.816V184H181.45C180.673 184 180.086 183.912 179.69 183.736C179.294 183.545 178.957 183.252 178.678 182.856C178.458 183.135 178.224 183.355 177.974 183.516C177.725 183.663 177.468 183.773 177.204 183.846C176.94 183.919 176.676 183.963 176.412 183.978C176.163 183.993 175.921 184 175.686 184C174.938 184 174.308 183.883 173.794 183.648C173.296 183.399 172.936 183.135 172.716 182.856C172.32 183.369 171.807 183.692 171.176 183.824C170.546 183.941 169.739 184 168.756 184H167.898C167.781 184 167.671 183.993 167.568 183.978C167.466 183.949 167.378 183.897 167.304 183.824C167.216 183.736 167.15 183.611 167.106 183.45C167.062 183.289 167.04 183.069 167.04 182.79C167.04 182.291 167.114 181.947 167.26 181.756C167.392 181.565 167.605 181.47 167.898 181.47H168.8ZM195.423 184C195.217 185.599 194.557 186.757 193.443 187.476C192.328 188.209 190.663 188.576 188.449 188.576H187.767V185.892H188.273C189.035 185.892 189.673 185.848 190.187 185.76C190.7 185.672 191.118 185.54 191.441 185.364C191.778 185.203 192.027 185.005 192.189 184.77C192.35 184.55 192.453 184.293 192.497 184H191.133C190.487 184 189.893 183.927 189.351 183.78C188.808 183.633 188.339 183.399 187.943 183.076C187.547 182.739 187.239 182.313 187.019 181.8C186.799 181.272 186.689 180.641 186.689 179.908C186.689 179.321 186.784 178.742 186.975 178.17C187.18 177.598 187.473 177.085 187.855 176.63C188.236 176.175 188.705 175.816 189.263 175.552C189.82 175.273 190.458 175.134 191.177 175.134C191.983 175.134 192.658 175.273 193.201 175.552C193.758 175.831 194.205 176.227 194.543 176.74C194.88 177.239 195.122 177.84 195.269 178.544C195.415 179.233 195.489 179.996 195.489 180.832V181.47H197.095C197.212 181.47 197.322 181.485 197.425 181.514C197.527 181.529 197.615 181.58 197.689 181.668C197.777 181.741 197.843 181.859 197.887 182.02C197.931 182.181 197.953 182.401 197.953 182.68C197.953 183.179 197.879 183.523 197.733 183.714C197.601 183.905 197.388 184 197.095 184H195.423ZM189.505 179.644C189.505 180.348 189.651 180.832 189.945 181.096C190.253 181.345 190.656 181.47 191.155 181.47H192.607V180.15C192.607 179.446 192.497 178.867 192.277 178.412C192.057 177.943 191.646 177.708 191.045 177.708C190.502 177.708 190.106 177.891 189.857 178.258C189.622 178.625 189.505 179.087 189.505 179.644ZM193.641 173.044H188.625V171.24H189.637C189.563 171.123 189.505 170.961 189.461 170.756C189.431 170.536 189.417 170.353 189.417 170.206C189.417 169.81 189.483 169.465 189.615 169.172C189.747 168.879 189.923 168.637 190.143 168.446C190.363 168.241 190.612 168.087 190.891 167.984C191.169 167.881 191.463 167.83 191.771 167.83C192.035 167.83 192.277 167.859 192.497 167.918C192.731 167.977 192.929 168.035 193.091 168.094V169.788C192.871 169.729 192.673 169.693 192.497 169.678C192.335 169.649 192.218 169.634 192.145 169.634C191.807 169.634 191.565 169.715 191.419 169.876C191.287 170.023 191.221 170.206 191.221 170.426C191.221 170.646 191.287 170.837 191.419 170.998C191.565 171.159 191.851 171.24 192.277 171.24H193.641V173.044ZM198.24 181.47C198.416 181.47 198.628 181.323 198.878 181.03C199.142 180.737 199.376 180.311 199.582 179.754C199.904 178.918 200.249 178.229 200.616 177.686C200.997 177.129 201.393 176.689 201.804 176.366C202.214 176.029 202.625 175.794 203.036 175.662C203.446 175.53 203.85 175.464 204.246 175.464C204.818 175.464 205.353 175.574 205.852 175.794C206.35 176.014 206.776 176.322 207.128 176.718C207.494 177.114 207.78 177.591 207.986 178.148C208.191 178.705 208.294 179.314 208.294 179.974C208.294 180.077 208.286 180.172 208.272 180.26C208.272 180.348 208.272 180.436 208.272 180.524C208.462 180.876 208.756 181.125 209.152 181.272C209.548 181.404 209.922 181.47 210.274 181.47C210.391 181.47 210.501 181.485 210.604 181.514C210.706 181.529 210.794 181.58 210.868 181.668C210.956 181.741 211.022 181.859 211.066 182.02C211.11 182.181 211.132 182.401 211.132 182.68C211.132 183.179 211.058 183.523 210.912 183.714C210.78 183.905 210.567 184 210.274 184C209.716 184 209.218 183.897 208.778 183.692C208.338 183.472 207.956 183.127 207.634 182.658C207.326 183.171 206.9 183.567 206.358 183.846C205.815 184.125 205.155 184.264 204.378 184.264C203.791 184.264 203.197 184.176 202.596 184C201.994 183.824 201.371 183.523 200.726 183.098C200.344 183.523 199.956 183.78 199.56 183.868C199.164 183.956 198.731 184 198.262 184H197.096C196.978 184 196.868 183.993 196.766 183.978C196.663 183.949 196.575 183.897 196.502 183.824C196.414 183.736 196.348 183.611 196.304 183.45C196.26 183.289 196.238 183.069 196.238 182.79C196.238 182.291 196.311 181.947 196.458 181.756C196.59 181.565 196.802 181.47 197.096 181.47H198.24ZM205.5 179.908C205.5 179.688 205.47 179.468 205.412 179.248C205.368 179.028 205.287 178.837 205.17 178.676C205.067 178.5 204.92 178.361 204.73 178.258C204.554 178.141 204.334 178.082 204.07 178.082C203.688 178.082 203.292 178.287 202.882 178.698C202.471 179.109 202.148 179.835 201.914 180.876C202.28 181.096 202.625 181.279 202.948 181.426C203.285 181.558 203.644 181.624 204.026 181.624C204.495 181.624 204.854 181.47 205.104 181.162C205.368 180.839 205.5 180.421 205.5 179.908ZM212.796 181.47V168.292H215.678V184H210.266C210.148 184 210.038 183.993 209.936 183.978C209.833 183.949 209.745 183.897 209.672 183.824C209.584 183.736 209.518 183.611 209.474 183.45C209.43 183.289 209.408 183.069 209.408 182.79C209.408 182.291 209.481 181.947 209.628 181.756C209.76 181.565 209.972 181.47 210.266 181.47H212.796ZM221.148 168.292V184H218.31V168.292H221.148Z" fill="#004876"/>
</g>
<path d="M117.688 79.4177C119.931 79.4177 121.75 77.5758 121.75 75.3037C121.75 73.0317 119.931 71.1898 117.688 71.1898C115.444 71.1898 113.625 73.0317 113.625 75.3037C113.625 77.5758 115.444 79.4177 117.688 79.4177Z" stroke="#4097CB" stroke-width="2.5" stroke-miterlimit="10" stroke-linecap="round" stroke-linejoin="round"/>
<path d="M124.25 88.2785H111.75V83.3981C111.75 81.1999 113.565 79.4177 115.804 79.4177H120.196C122.435 79.4177 124.25 81.1997 124.25 83.3981L124.25 88.2785Z" stroke="#4097CB" stroke-width="2.5" stroke-miterlimit="10" stroke-linecap="round" stroke-linejoin="round"/>
<path d="M153.938 79.4177C156.181 79.4177 158 77.5758 158 75.3037C158 73.0317 156.181 71.1898 153.938 71.1898C151.694 71.1898 149.875 73.0317 149.875 75.3037C149.875 77.5758 151.694 79.4177 153.938 79.4177Z" stroke="#4097CB" stroke-width="2.5" stroke-miterlimit="10" stroke-linecap="round" stroke-linejoin="round"/>
<path d="M160.5 88.2785H148V83.3981C148 81.1999 149.815 79.4177 152.054 79.4177H156.446C158.685 79.4177 160.5 81.1997 160.5 83.3981L160.5 88.2785Z" stroke="#4097CB" stroke-width="2.5" stroke-miterlimit="10" stroke-linecap="round" stroke-linejoin="round"/>
<path d="M143 88.2784H129.25V83.4157C129.25 82.2563 130.21 81.3164 131.395 81.3164H140.855C142.04 81.3164 143 82.2563 143 83.4157V88.2784H143Z" stroke="#4097CB" stroke-width="2.5" stroke-miterlimit="10" stroke-linecap="round" stroke-linejoin="round"/>
<path d="M131.157 92.7088H110.342C109.739 92.7088 109.25 92.213 109.25 91.6012V89.386C109.25 88.7743 109.739 88.2784 110.342 88.2784H161.908C162.511 88.2784 163 88.7743 163 89.386V91.6012C163 92.213 162.511 92.7088 161.908 92.7088H141.111" stroke="#4097CB" stroke-width="2.5" stroke-miterlimit="10" stroke-linecap="round" stroke-linejoin="round"/>
<path d="M160.5 92.7089V104.868C160.5 105.493 160.011 106 159.407 106H112.843C112.239 106 111.75 105.493 111.75 104.868V92.7089" stroke="#4097CB" stroke-width="2.5" stroke-miterlimit="10" stroke-linecap="round" stroke-linejoin="round"/>
<defs>
<clipPath id="clip0_486_68552">
<rect width="174" height="36" fill="white" transform="translate(48.5 157)"/>
</clipPath>
</defs>
</svg>
