<svg width="271" height="227" viewBox="0 0 271 227" fill="none" xmlns="http://www.w3.org/2000/svg">
<rect opacity="0.5" width="271" height="227" rx="40" fill="#E7EEF8"/>
<rect opacity="0.4" x="87" y="37" width="97" height="97" rx="20" fill="#64B2E8"/>
<g clip-path="url(#clip0_486_68565)">
<path d="M42.2266 178.28C42.2266 178.456 42.2486 178.647 42.2926 178.852C42.3366 179.043 42.4173 179.219 42.5346 179.38C42.652 179.527 42.806 179.651 42.9966 179.754C43.202 179.857 43.4586 179.908 43.7666 179.908C43.9573 179.908 44.148 179.901 44.3386 179.886C44.544 179.871 44.7493 179.827 44.9546 179.754V176.718H43.8546C43.312 176.718 42.9013 176.865 42.6226 177.158C42.3586 177.437 42.2266 177.811 42.2266 178.28ZM48.3646 184C48.0126 184 47.668 183.978 47.3306 183.934C47.008 183.875 46.7073 183.78 46.4286 183.648C46.15 183.516 45.9006 183.34 45.6806 183.12C45.4753 182.885 45.314 182.585 45.1966 182.218C44.9473 182.277 44.6906 182.328 44.4266 182.372C44.1626 182.401 43.8986 182.416 43.6346 182.416C43.268 182.416 42.8426 182.365 42.3586 182.262C41.8746 182.145 41.4126 181.939 40.9726 181.646C40.5473 181.353 40.1806 180.949 39.8726 180.436C39.5793 179.908 39.4326 179.233 39.4326 178.412C39.4326 177.605 39.572 176.923 39.8506 176.366C40.144 175.809 40.5106 175.354 40.9506 175.002C41.4053 174.65 41.904 174.401 42.4466 174.254C43.004 174.093 43.5466 174.012 44.0746 174.012H47.8146V180.59C47.8146 180.927 47.8586 181.162 47.9466 181.294C48.0346 181.411 48.24 181.47 48.5626 181.47H49.0906C49.208 181.47 49.318 181.485 49.4206 181.514C49.5233 181.529 49.6113 181.58 49.6846 181.668C49.7726 181.741 49.8386 181.859 49.8826 182.02C49.9266 182.181 49.9486 182.401 49.9486 182.68C49.9486 183.179 49.8753 183.523 49.7286 183.714C49.5966 183.905 49.384 184 49.0906 184H48.3646ZM40.9066 170.338C40.9066 169.913 41.0606 169.546 41.3686 169.238C41.6766 168.93 42.0433 168.776 42.4686 168.776C42.894 168.776 43.2606 168.93 43.5686 169.238C43.8766 169.546 44.0306 169.913 44.0306 170.338C44.0306 170.763 43.8766 171.13 43.5686 171.438C43.2606 171.746 42.894 171.9 42.4686 171.9C42.0433 171.9 41.6766 171.746 41.3686 171.438C41.0606 171.13 40.9066 170.763 40.9066 170.338ZM44.4926 170.338C44.4926 169.913 44.6466 169.546 44.9546 169.238C45.2626 168.93 45.6293 168.776 46.0546 168.776C46.48 168.776 46.8466 168.93 47.1546 169.238C47.4626 169.546 47.6166 169.913 47.6166 170.338C47.6166 170.763 47.4626 171.13 47.1546 171.438C46.8466 171.746 46.48 171.9 46.0546 171.9C45.6293 171.9 45.2626 171.746 44.9546 171.438C44.6466 171.13 44.4926 170.763 44.4926 170.338ZM51.7186 181.47V168.292H54.5566V177.466C55.1286 176.747 55.8326 176.153 56.6686 175.684C57.5193 175.2 58.4213 174.958 59.3746 174.958C60.8999 174.958 62.0513 175.413 62.8286 176.322C63.6206 177.231 64.0166 178.478 64.0166 180.062V181.47H65.7326C65.8499 181.47 65.9599 181.485 66.0626 181.514C66.1653 181.529 66.2533 181.58 66.3266 181.668C66.4146 181.741 66.4806 181.859 66.5246 182.02C66.5686 182.181 66.5906 182.401 66.5906 182.68C66.5906 183.179 66.5173 183.523 66.3706 183.714C66.2386 183.905 66.0259 184 65.7326 184H49.1006C48.9833 184 48.8733 183.993 48.7706 183.978C48.6679 183.949 48.5799 183.897 48.5066 183.824C48.4186 183.736 48.3526 183.611 48.3086 183.45C48.2646 183.289 48.2426 183.069 48.2426 182.79C48.2426 182.291 48.3159 181.947 48.4626 181.756C48.5946 181.565 48.8073 181.47 49.1006 181.47H51.7186ZM61.1786 181.47V180.216C61.1786 179.497 61.0173 178.889 60.6946 178.39C60.3866 177.891 59.8293 177.642 59.0226 177.642C58.5826 177.642 58.1499 177.745 57.7246 177.95C57.2993 178.155 56.8959 178.434 56.5146 178.786C56.1479 179.138 55.8033 179.549 55.4806 180.018C55.1726 180.473 54.9159 180.957 54.7106 181.47H61.1786ZM66.6315 181.47C66.9542 181.47 67.2182 181.463 67.4235 181.448C67.6435 181.433 67.8195 181.389 67.9515 181.316C68.0835 181.243 68.1788 181.14 68.2375 181.008C68.2962 180.861 68.3255 180.663 68.3255 180.414V176.212H71.1415V179.952C71.1415 180.421 71.2662 180.795 71.5155 181.074C71.7795 181.338 72.1828 181.47 72.7255 181.47C73.1508 181.47 73.5102 181.404 73.8035 181.272C74.1115 181.14 74.2655 180.854 74.2655 180.414V176.212H77.1255V179.952C77.1255 180.964 77.5582 181.47 78.4235 181.47H79.7875V175.244H82.6475V184H79.2815C78.5042 184 77.9175 183.912 77.5215 183.736C77.1255 183.545 76.7882 183.252 76.5095 182.856C76.2895 183.135 76.0548 183.355 75.8055 183.516C75.5562 183.663 75.2995 183.773 75.0355 183.846C74.7715 183.919 74.5075 183.963 74.2435 183.978C73.9942 183.993 73.7522 184 73.5175 184C72.7695 184 72.1388 183.883 71.6255 183.648C71.1268 183.399 70.7675 183.135 70.5475 182.856C70.1515 183.369 69.6382 183.692 69.0075 183.824C68.3768 183.941 67.5702 184 66.5875 184H65.7295C65.6122 184 65.5022 183.993 65.3995 183.978C65.2968 183.949 65.2088 183.897 65.1355 183.824C65.0475 183.736 64.9815 183.611 64.9375 183.45C64.8935 183.289 64.8715 183.069 64.8715 182.79C64.8715 182.291 64.9448 181.947 65.0915 181.756C65.2235 181.565 65.4362 181.47 65.7295 181.47H66.6315ZM93.2537 184C93.0484 185.599 92.3884 186.757 91.2737 187.476C90.1591 188.209 88.4944 188.576 86.2797 188.576H85.5977V185.892H86.1037C86.8664 185.892 87.5044 185.848 88.0177 185.76C88.5311 185.672 88.9491 185.54 89.2717 185.364C89.6091 185.203 89.8584 185.005 90.0197 184.77C90.1811 184.55 90.2837 184.293 90.3277 184H88.9637C88.3184 184 87.7244 183.927 87.1817 183.78C86.6391 183.633 86.1697 183.399 85.7737 183.076C85.3777 182.739 85.0697 182.313 84.8497 181.8C84.6297 181.272 84.5197 180.641 84.5197 179.908C84.5197 179.321 84.6151 178.742 84.8057 178.17C85.0111 177.598 85.3044 177.085 85.6857 176.63C86.0671 176.175 86.5364 175.816 87.0937 175.552C87.6511 175.273 88.2891 175.134 89.0077 175.134C89.8144 175.134 90.4891 175.273 91.0317 175.552C91.5891 175.831 92.0364 176.227 92.3737 176.74C92.7111 177.239 92.9531 177.84 93.0997 178.544C93.2464 179.233 93.3197 179.996 93.3197 180.832V181.47H94.9257C95.0431 181.47 95.1531 181.485 95.2557 181.514C95.3584 181.529 95.4464 181.58 95.5197 181.668C95.6077 181.741 95.6737 181.859 95.7177 182.02C95.7617 182.181 95.7837 182.401 95.7837 182.68C95.7837 183.179 95.7104 183.523 95.5637 183.714C95.4317 183.905 95.2191 184 94.9257 184H93.2537ZM87.3357 179.644C87.3357 180.348 87.4824 180.832 87.7757 181.096C88.0837 181.345 88.4871 181.47 88.9857 181.47H90.4377V180.15C90.4377 179.446 90.3277 178.867 90.1077 178.412C89.8877 177.943 89.4771 177.708 88.8757 177.708C88.3331 177.708 87.9371 177.891 87.6877 178.258C87.4531 178.625 87.3357 179.087 87.3357 179.644ZM96.2688 181.47C96.7674 181.47 97.1121 181.397 97.3028 181.25C97.5081 181.089 97.6108 180.737 97.6108 180.194V175.244H100.471V179.952C100.471 180.495 100.573 180.883 100.779 181.118C100.984 181.353 101.439 181.47 102.143 181.47C102.26 181.47 102.37 181.485 102.473 181.514C102.575 181.529 102.663 181.58 102.737 181.668C102.825 181.741 102.891 181.859 102.935 182.02C102.979 182.181 103.001 182.401 103.001 182.68C103.001 183.179 102.927 183.523 102.781 183.714C102.649 183.905 102.436 184 102.143 184C101.717 184 101.307 183.934 100.911 183.802C100.515 183.655 100.185 183.347 99.9208 182.878C99.7448 183.127 99.5321 183.333 99.2828 183.494C99.0334 183.641 98.7694 183.751 98.4908 183.824C98.2121 183.897 97.9188 183.949 97.6108 183.978C97.3174 183.993 97.0241 184 96.7308 184H94.9268C94.8094 184 94.6994 183.993 94.5968 183.978C94.4941 183.949 94.4061 183.897 94.3328 183.824C94.2448 183.736 94.1788 183.611 94.1348 183.45C94.0908 183.289 94.0688 183.069 94.0688 182.79C94.0688 182.291 94.1421 181.947 94.2888 181.756C94.4208 181.565 94.6334 181.47 94.9268 181.47H96.2688ZM95.4988 171.438C95.4988 171.013 95.6528 170.646 95.9608 170.338C96.2688 170.03 96.6354 169.876 97.0608 169.876C97.4861 169.876 97.8528 170.03 98.1608 170.338C98.4688 170.646 98.6228 171.013 98.6228 171.438C98.6228 171.863 98.4688 172.23 98.1608 172.538C97.8528 172.846 97.4861 173 97.0608 173C96.6354 173 96.2688 172.846 95.9608 172.538C95.6528 172.23 95.4988 171.863 95.4988 171.438ZM99.0848 171.438C99.0848 171.013 99.2388 170.646 99.5468 170.338C99.8548 170.03 100.221 169.876 100.647 169.876C101.072 169.876 101.439 170.03 101.747 170.338C102.055 170.646 102.209 171.013 102.209 171.438C102.209 171.863 102.055 172.23 101.747 172.538C101.439 172.846 101.072 173 100.647 173C100.221 173 99.8548 172.846 99.5468 172.538C99.2388 172.23 99.0848 171.863 99.0848 171.438ZM103.29 181.47C103.466 181.47 103.678 181.323 103.928 181.03C104.192 180.737 104.426 180.311 104.632 179.754C104.954 178.918 105.299 178.229 105.666 177.686C106.047 177.129 106.443 176.689 106.854 176.366C107.264 176.029 107.675 175.794 108.086 175.662C108.496 175.53 108.9 175.464 109.296 175.464C109.868 175.464 110.403 175.574 110.902 175.794C111.4 176.014 111.826 176.322 112.178 176.718C112.544 177.114 112.83 177.591 113.036 178.148C113.241 178.705 113.344 179.314 113.344 179.974C113.344 180.077 113.336 180.172 113.322 180.26C113.322 180.348 113.322 180.436 113.322 180.524C113.512 180.876 113.806 181.125 114.202 181.272C114.598 181.404 114.972 181.47 115.324 181.47C115.441 181.47 115.551 181.485 115.654 181.514C115.756 181.529 115.844 181.58 115.918 181.668C116.006 181.741 116.072 181.859 116.116 182.02C116.16 182.181 116.182 182.401 116.182 182.68C116.182 183.179 116.108 183.523 115.962 183.714C115.83 183.905 115.617 184 115.324 184C114.766 184 114.268 183.897 113.828 183.692C113.388 183.472 113.006 183.127 112.684 182.658C112.376 183.171 111.95 183.567 111.408 183.846C110.865 184.125 110.205 184.264 109.428 184.264C108.841 184.264 108.247 184.176 107.646 184C107.044 183.824 106.421 183.523 105.776 183.098C105.394 183.523 105.006 183.78 104.61 183.868C104.214 183.956 103.781 184 103.312 184H102.146C102.028 184 101.918 183.993 101.816 183.978C101.713 183.949 101.625 183.897 101.552 183.824C101.464 183.736 101.398 183.611 101.354 183.45C101.31 183.289 101.288 183.069 101.288 182.79C101.288 182.291 101.361 181.947 101.508 181.756C101.64 181.565 101.852 181.47 102.146 181.47H103.29ZM110.55 179.908C110.55 179.688 110.52 179.468 110.462 179.248C110.418 179.028 110.337 178.837 110.22 178.676C110.117 178.5 109.97 178.361 109.78 178.258C109.604 178.141 109.384 178.082 109.12 178.082C108.738 178.082 108.342 178.287 107.932 178.698C107.521 179.109 107.198 179.835 106.964 180.876C107.33 181.096 107.675 181.279 107.998 181.426C108.335 181.558 108.694 181.624 109.076 181.624C109.545 181.624 109.904 181.47 110.154 181.162C110.418 180.839 110.55 180.421 110.55 179.908ZM117.845 181.47V168.292H120.727V184H115.315C115.198 184 115.088 183.993 114.985 183.978C114.883 183.949 114.795 183.897 114.721 183.824C114.633 183.736 114.567 183.611 114.523 183.45C114.479 183.289 114.457 183.069 114.457 182.79C114.457 182.291 114.531 181.947 114.677 181.756C114.809 181.565 115.022 181.47 115.315 181.47H117.845ZM126.198 168.292V184H123.36V168.292H126.198ZM151.374 184H138.218C137.352 184 136.626 183.941 136.04 183.824C135.453 183.692 134.984 183.487 134.632 183.208C134.28 182.929 134.023 182.57 133.862 182.13C133.715 181.69 133.642 181.155 133.642 180.524V176.894H136.524V180.106C136.524 180.385 136.56 180.612 136.634 180.788C136.707 180.964 136.839 181.103 137.03 181.206C137.22 181.309 137.477 181.382 137.8 181.426C138.122 181.455 138.533 181.47 139.032 181.47H148.514V175.244H151.374V184ZM139.274 172.714C139.274 172.289 139.428 171.922 139.736 171.614C140.044 171.306 140.41 171.152 140.836 171.152C141.261 171.152 141.628 171.306 141.936 171.614C142.244 171.922 142.398 172.289 142.398 172.714C142.398 173.139 142.244 173.506 141.936 173.814C141.628 174.122 141.261 174.276 140.836 174.276C140.41 174.276 140.044 174.122 139.736 173.814C139.428 173.506 139.274 173.139 139.274 172.714ZM142.86 172.714C142.86 172.289 143.014 171.922 143.322 171.614C143.63 171.306 143.996 171.152 144.422 171.152C144.847 171.152 145.214 171.306 145.522 171.614C145.83 171.922 145.984 172.289 145.984 172.714C145.984 173.139 145.83 173.506 145.522 173.814C145.214 174.122 144.847 174.276 144.422 174.276C143.996 174.276 143.63 174.122 143.322 173.814C143.014 173.506 142.86 173.139 142.86 172.714ZM159.21 182.68C159.21 183.179 159.137 183.523 158.99 183.714C158.858 183.905 158.646 184 158.352 184H157.428C156.93 184 156.468 183.949 156.042 183.846C155.632 183.729 155.272 183.545 154.964 183.296C154.671 183.032 154.436 182.687 154.26 182.262C154.099 181.837 154.018 181.309 154.018 180.678V168.292H156.878V180.282C156.878 180.795 156.966 181.125 157.142 181.272C157.333 181.404 157.597 181.47 157.934 181.47H158.352C158.47 181.47 158.58 181.485 158.682 181.514C158.785 181.529 158.873 181.58 158.946 181.668C159.034 181.741 159.1 181.859 159.144 182.02C159.188 182.181 159.21 182.401 159.21 182.68ZM159.097 181.47C159.42 181.47 159.684 181.463 159.889 181.448C160.109 181.433 160.285 181.389 160.417 181.316C160.549 181.243 160.644 181.14 160.703 181.008C160.762 180.861 160.791 180.663 160.791 180.414V176.212H163.629V179.952C163.629 180.421 163.754 180.795 164.003 181.074C164.267 181.338 164.663 181.47 165.191 181.47C165.631 181.47 165.998 181.404 166.291 181.272C166.599 181.14 166.753 180.854 166.753 180.414V176.212H169.591V179.952C169.591 180.465 169.701 180.847 169.921 181.096C170.156 181.345 170.537 181.47 171.065 181.47C171.476 181.47 171.806 181.404 172.055 181.272C172.304 181.125 172.429 180.817 172.429 180.348V175.244H175.267V179.952C175.267 180.495 175.377 180.883 175.597 181.118C175.817 181.353 176.286 181.47 177.005 181.47C177.122 181.47 177.232 181.485 177.335 181.514C177.438 181.529 177.526 181.58 177.599 181.668C177.687 181.741 177.753 181.859 177.797 182.02C177.841 182.181 177.863 182.401 177.863 182.68C177.863 183.179 177.79 183.523 177.643 183.714C177.511 183.905 177.298 184 177.005 184C176.58 184 176.162 183.927 175.751 183.78C175.34 183.619 175.003 183.303 174.739 182.834C174.534 183.113 174.314 183.333 174.079 183.494C173.859 183.641 173.632 183.758 173.397 183.846C173.162 183.919 172.928 183.963 172.693 183.978C172.458 183.993 172.231 184 172.011 184C171.747 184 171.468 183.978 171.175 183.934C170.882 183.89 170.596 183.824 170.317 183.736C170.038 183.633 169.782 183.516 169.547 183.384C169.312 183.237 169.129 183.061 168.997 182.856C168.542 183.355 168.08 183.67 167.611 183.802C167.156 183.934 166.658 184 166.115 184C164.678 184 163.644 183.619 163.013 182.856C162.617 183.369 162.104 183.692 161.473 183.824C160.842 183.941 160.036 184 159.053 184H158.327C158.21 184 158.1 183.993 157.997 183.978C157.894 183.949 157.806 183.897 157.733 183.824C157.645 183.736 157.579 183.611 157.535 183.45C157.491 183.289 157.469 183.069 157.469 182.79C157.469 182.291 157.542 181.947 157.689 181.756C157.821 181.565 158.034 181.47 158.327 181.47H159.097ZM177.899 181.47C178.222 181.47 178.486 181.463 178.691 181.448C178.911 181.433 179.087 181.389 179.219 181.316C179.351 181.243 179.446 181.14 179.505 181.008C179.564 180.861 179.593 180.663 179.593 180.414V176.212H182.409V179.952C182.409 180.421 182.534 180.795 182.783 181.074C183.047 181.338 183.45 181.47 183.993 181.47C184.418 181.47 184.778 181.404 185.071 181.272C185.379 181.14 185.533 180.854 185.533 180.414V176.212H188.393V179.952C188.393 180.964 188.826 181.47 189.691 181.47H191.055V175.244H193.915V184H190.549C189.772 184 189.185 183.912 188.789 183.736C188.393 183.545 188.056 183.252 187.777 182.856C187.557 183.135 187.322 183.355 187.073 183.516C186.824 183.663 186.567 183.773 186.303 183.846C186.039 183.919 185.775 183.963 185.511 183.978C185.262 183.993 185.02 184 184.785 184C184.037 184 183.406 183.883 182.893 183.648C182.394 183.399 182.035 183.135 181.815 182.856C181.419 183.369 180.906 183.692 180.275 183.824C179.644 183.941 178.838 184 177.855 184H176.997C176.88 184 176.77 183.993 176.667 183.978C176.564 183.949 176.476 183.897 176.403 183.824C176.315 183.736 176.249 183.611 176.205 183.45C176.161 183.289 176.139 183.069 176.139 182.79C176.139 182.291 176.212 181.947 176.359 181.756C176.491 181.565 176.704 181.47 176.997 181.47H177.899ZM204.521 184C204.316 185.599 203.656 186.757 202.541 187.476C201.427 188.209 199.762 188.576 197.547 188.576H196.865V185.892H197.371C198.134 185.892 198.772 185.848 199.285 185.76C199.799 185.672 200.217 185.54 200.539 185.364C200.877 185.203 201.126 185.005 201.287 184.77C201.449 184.55 201.551 184.293 201.595 184H200.231C199.586 184 198.992 183.927 198.449 183.78C197.907 183.633 197.437 183.399 197.041 183.076C196.645 182.739 196.337 182.313 196.117 181.8C195.897 181.272 195.787 180.641 195.787 179.908C195.787 179.321 195.883 178.742 196.073 178.17C196.279 177.598 196.572 177.085 196.953 176.63C197.335 176.175 197.804 175.816 198.361 175.552C198.919 175.273 199.557 175.134 200.275 175.134C201.082 175.134 201.757 175.273 202.299 175.552C202.857 175.831 203.304 176.227 203.641 176.74C203.979 177.239 204.221 177.84 204.367 178.544C204.514 179.233 204.587 179.996 204.587 180.832V181.47H206.193C206.311 181.47 206.421 181.485 206.523 181.514C206.626 181.529 206.714 181.58 206.787 181.668C206.875 181.741 206.941 181.859 206.985 182.02C207.029 182.181 207.051 182.401 207.051 182.68C207.051 183.179 206.978 183.523 206.831 183.714C206.699 183.905 206.487 184 206.193 184H204.521ZM198.603 179.644C198.603 180.348 198.75 180.832 199.043 181.096C199.351 181.345 199.755 181.47 200.253 181.47H201.705V180.15C201.705 179.446 201.595 178.867 201.375 178.412C201.155 177.943 200.745 177.708 200.143 177.708C199.601 177.708 199.205 177.891 198.955 178.258C198.721 178.625 198.603 179.087 198.603 179.644ZM202.739 173.044H197.723V171.24H198.735C198.662 171.123 198.603 170.961 198.559 170.756C198.53 170.536 198.515 170.353 198.515 170.206C198.515 169.81 198.581 169.465 198.713 169.172C198.845 168.879 199.021 168.637 199.241 168.446C199.461 168.241 199.711 168.087 199.989 167.984C200.268 167.881 200.561 167.83 200.869 167.83C201.133 167.83 201.375 167.859 201.595 167.918C201.83 167.977 202.028 168.035 202.189 168.094V169.788C201.969 169.729 201.771 169.693 201.595 169.678C201.434 169.649 201.317 169.634 201.243 169.634C200.906 169.634 200.664 169.715 200.517 169.876C200.385 170.023 200.319 170.206 200.319 170.426C200.319 170.646 200.385 170.837 200.517 170.998C200.664 171.159 200.95 171.24 201.375 171.24H202.739V173.044ZM207.338 181.47C207.514 181.47 207.727 181.323 207.976 181.03C208.24 180.737 208.475 180.311 208.68 179.754C209.003 178.918 209.348 178.229 209.714 177.686C210.096 177.129 210.492 176.689 210.902 176.366C211.313 176.029 211.724 175.794 212.134 175.662C212.545 175.53 212.948 175.464 213.344 175.464C213.916 175.464 214.452 175.574 214.95 175.794C215.449 176.014 215.874 176.322 216.226 176.718C216.593 177.114 216.879 177.591 217.084 178.148C217.29 178.705 217.392 179.314 217.392 179.974C217.392 180.077 217.385 180.172 217.37 180.26C217.37 180.348 217.37 180.436 217.37 180.524C217.561 180.876 217.854 181.125 218.25 181.272C218.646 181.404 219.02 181.47 219.372 181.47C219.49 181.47 219.6 181.485 219.702 181.514C219.805 181.529 219.893 181.58 219.966 181.668C220.054 181.741 220.12 181.859 220.164 182.02C220.208 182.181 220.23 182.401 220.23 182.68C220.23 183.179 220.157 183.523 220.01 183.714C219.878 183.905 219.666 184 219.372 184C218.815 184 218.316 183.897 217.876 183.692C217.436 183.472 217.055 183.127 216.732 182.658C216.424 183.171 215.999 183.567 215.456 183.846C214.914 184.125 214.254 184.264 213.476 184.264C212.89 184.264 212.296 184.176 211.694 184C211.093 183.824 210.47 183.523 209.824 183.098C209.443 183.523 209.054 183.78 208.658 183.868C208.262 183.956 207.83 184 207.36 184H206.194C206.077 184 205.967 183.993 205.864 183.978C205.762 183.949 205.674 183.897 205.6 183.824C205.512 183.736 205.446 183.611 205.402 183.45C205.358 183.289 205.336 183.069 205.336 182.79C205.336 182.291 205.41 181.947 205.556 181.756C205.688 181.565 205.901 181.47 206.194 181.47H207.338ZM214.598 179.908C214.598 179.688 214.569 179.468 214.51 179.248C214.466 179.028 214.386 178.837 214.268 178.676C214.166 178.5 214.019 178.361 213.828 178.258C213.652 178.141 213.432 178.082 213.168 178.082C212.787 178.082 212.391 178.287 211.98 178.698C211.57 179.109 211.247 179.835 211.012 180.876C211.379 181.096 211.724 181.279 212.046 181.426C212.384 181.558 212.743 181.624 213.124 181.624C213.594 181.624 213.953 181.47 214.202 181.162C214.466 180.839 214.598 180.421 214.598 179.908ZM221.894 181.47V168.292H224.776V184H219.364C219.247 184 219.137 183.993 219.034 183.978C218.932 183.949 218.844 183.897 218.77 183.824C218.682 183.736 218.616 183.611 218.572 183.45C218.528 183.289 218.506 183.069 218.506 182.79C218.506 182.291 218.58 181.947 218.726 181.756C218.858 181.565 219.071 181.47 219.364 181.47H221.894ZM230.247 168.292V184H227.409V168.292H230.247Z" fill="#004876"/>
</g>
<path d="M117.688 79.4177C119.931 79.4177 121.75 77.5758 121.75 75.3037C121.75 73.0317 119.931 71.1898 117.688 71.1898C115.444 71.1898 113.625 73.0317 113.625 75.3037C113.625 77.5758 115.444 79.4177 117.688 79.4177Z" stroke="#4097CB" stroke-width="2.5" stroke-miterlimit="10" stroke-linecap="round" stroke-linejoin="round"/>
<path d="M124.25 88.2785H111.75V83.3981C111.75 81.1999 113.565 79.4177 115.804 79.4177H120.196C122.435 79.4177 124.25 81.1997 124.25 83.3981L124.25 88.2785Z" stroke="#4097CB" stroke-width="2.5" stroke-miterlimit="10" stroke-linecap="round" stroke-linejoin="round"/>
<path d="M153.938 79.4177C156.181 79.4177 158 77.5758 158 75.3037C158 73.0317 156.181 71.1898 153.938 71.1898C151.694 71.1898 149.875 73.0317 149.875 75.3037C149.875 77.5758 151.694 79.4177 153.938 79.4177Z" stroke="#4097CB" stroke-width="2.5" stroke-miterlimit="10" stroke-linecap="round" stroke-linejoin="round"/>
<path d="M160.5 88.2785H148V83.3981C148 81.1999 149.815 79.4177 152.054 79.4177H156.446C158.685 79.4177 160.5 81.1997 160.5 83.3981L160.5 88.2785Z" stroke="#4097CB" stroke-width="2.5" stroke-miterlimit="10" stroke-linecap="round" stroke-linejoin="round"/>
<path d="M143 88.2784H129.25V83.4157C129.25 82.2563 130.21 81.3164 131.395 81.3164H140.855C142.04 81.3164 143 82.2563 143 83.4157V88.2784H143Z" stroke="#4097CB" stroke-width="2.5" stroke-miterlimit="10" stroke-linecap="round" stroke-linejoin="round"/>
<path d="M131.157 92.7088H110.342C109.739 92.7088 109.25 92.213 109.25 91.6012V89.386C109.25 88.7743 109.739 88.2784 110.342 88.2784H161.908C162.511 88.2784 163 88.7743 163 89.386V91.6012C163 92.213 162.511 92.7088 161.908 92.7088H141.111" stroke="#4097CB" stroke-width="2.5" stroke-miterlimit="10" stroke-linecap="round" stroke-linejoin="round"/>
<path d="M160.5 92.7089V104.868C160.5 105.493 160.011 106 159.407 106H112.843C112.239 106 111.75 105.493 111.75 104.868V92.7089" stroke="#4097CB" stroke-width="2.5" stroke-miterlimit="10" stroke-linecap="round" stroke-linejoin="round"/>
<defs>
<clipPath id="clip0_486_68565">
<rect width="193" height="36" fill="white" transform="translate(39 157)"/>
</clipPath>
</defs>
</svg>
