<svg width="28" height="24" viewBox="0 0 28 24" fill="none" xmlns="http://www.w3.org/2000/svg">
<g id="text-formatting" clip-path="url(#clip0_1018_30615)">
<path id="Shape_37_" d="M20.3447 22.0047L12.9003 1.95649C12.764 1.58206 12.419 1.33486 12.0344 1.33606H9.15725C8.77335 1.33722 8.42949 1.5836 8.29131 1.95649L0.851529 22.0047C0.796363 22.1535 0.815086 22.3211 0.901579 22.4528C0.988072 22.5845 1.13126 22.6634 1.28452 22.6639H4.22223C4.41542 22.6637 4.58888 22.5408 4.65986 22.3537L6.2102 18.1269C6.27929 17.9404 6.45122 17.8172 6.6432 17.8166H14.5485C14.7416 17.8168 14.9151 17.9398 14.9861 18.1269L16.5364 22.3537C16.6055 22.5401 16.7775 22.6633 16.9694 22.6639H19.9071C20.0606 22.6634 20.2041 22.5848 20.2913 22.4533C20.3786 22.3219 20.3985 22.1543 20.3447 22.0047ZM13.0679 14.4236H8.12365C7.96206 14.4243 7.81064 14.3416 7.7193 14.2028C7.62795 14.064 7.60854 13.8871 7.6674 13.7305L10.1395 6.99768C10.2102 6.79896 10.3923 6.66701 10.5958 6.66701C10.7993 6.66701 10.9814 6.79896 11.052 6.99768L13.5288 13.7305C13.5856 13.888 13.5647 14.0644 13.4727 14.2027C13.3807 14.341 13.2295 14.4236 13.0679 14.4236Z" fill="#004876"/>
<path id="Shape_36_" d="M27.7893 22.0047L24.0136 11.6558C23.8763 11.2794 23.5297 11.0305 23.1429 11.0305H21.7928C21.406 11.0305 21.0595 11.2794 20.9222 11.6558L19.2275 16.2995L20.3542 19.3435C20.4262 19.2949 20.5105 19.2696 20.5963 19.2708H24.3394C24.5303 19.2707 24.7018 19.3917 24.7724 19.5762L25.8432 22.3585C25.9138 22.543 26.0854 22.664 26.2762 22.6638H27.3563C27.5095 22.6633 27.6528 22.5844 27.7393 22.4527C27.8258 22.3211 27.8445 22.1535 27.7893 22.0047ZM23.5853 17.3319H21.3552C21.2762 17.3326 21.2021 17.2919 21.1581 17.2236C21.114 17.1553 21.1059 17.0685 21.1364 16.9926L22.2491 14.094C22.2825 13.9981 22.37 13.9343 22.4679 13.9343C22.5659 13.9343 22.6533 13.9981 22.6867 14.094L23.8041 16.9926C23.8336 17.0685 23.825 17.1548 23.7811 17.2227C23.7373 17.2908 23.6639 17.3317 23.5853 17.3319Z" fill="#004876"/>
</g>
<defs>
<clipPath id="clip0_1018_30615">
<rect width="27" height="23" fill="white" transform="translate(0.820312 0.5)"/>
</clipPath>
</defs>
</svg>
