<svg width="24" height="19" viewBox="0 0 24 19" fill="none" xmlns="http://www.w3.org/2000/svg">
<g id="icon">
<path id="Vector" d="M15.8916 8.62325L10.349 5.55635C10.0303 5.38001 9.65366 5.38659 9.34128 5.57377C9.02872 5.76114 8.84229 6.09215 8.84229 6.45954V12.5407C8.84229 12.9063 9.02757 13.2368 9.33803 13.4243C9.50015 13.5223 9.67988 13.5714 9.85999 13.5714C10.025 13.5714 10.1904 13.5302 10.3425 13.4474L15.8853 10.4333C16.2143 10.2543 16.4197 9.90835 16.4212 9.53031C16.4226 9.15227 16.2197 8.80482 15.8916 8.62325ZM10.3125 11.7757V7.23072L14.4549 9.52296L10.3125 11.7757Z" fill="white"/>
<path id="Vector_2" d="M23.8233 4.48436L23.8222 4.47287C23.8019 4.27096 23.5996 2.475 22.7642 1.56152C21.7987 0.487076 20.7041 0.356551 20.1777 0.293968C20.1341 0.288801 20.0942 0.284016 20.0585 0.27904L20.0166 0.274447C16.8437 0.0333011 12.0521 0.000382771 12.0041 0.000191386L11.9999 0L11.9957 0.000191386C11.9477 0.000382771 7.15607 0.0333011 3.95468 0.274447L3.91238 0.27904C3.87833 0.283825 3.84079 0.288227 3.79996 0.293203C3.27958 0.355977 2.1967 0.486694 1.22845 1.59998C0.432858 2.50371 0.202879 4.2612 0.179259 4.45871L0.176512 4.48436C0.169371 4.56838 0 6.56855 0 8.57656V10.4537C0 12.4617 0.169371 14.4619 0.176512 14.5461L0.177794 14.5587C0.198119 14.7574 0.400266 16.5204 1.23174 17.4343C2.13957 18.4727 3.28745 18.6101 3.90488 18.684C4.00247 18.6957 4.08652 18.7056 4.14383 18.7162L4.19931 18.7242C6.03126 18.9064 11.7751 18.9962 12.0186 18.9998L12.0259 19L12.0332 18.9998C12.0812 18.9996 16.8727 18.9667 20.0455 18.7256L20.0874 18.721C20.1275 18.7154 20.1726 18.7104 20.222 18.7051C20.7395 18.6477 21.8165 18.5284 22.7714 17.4303C23.567 16.5263 23.7971 14.7688 23.8206 14.5715L23.8233 14.5459C23.8304 14.4617 24 12.4617 24 10.4537V8.57656C23.9998 6.56855 23.8304 4.56857 23.8233 4.48436ZM22.5934 10.4537C22.5934 12.3122 22.4381 14.2263 22.4235 14.402C22.3638 14.886 22.1212 15.9979 21.7335 16.4383C21.1359 17.1256 20.5219 17.1937 20.0737 17.2433C20.0195 17.2492 19.9693 17.2549 19.9239 17.2609C16.8551 17.4928 12.2444 17.5284 12.032 17.5298C11.7937 17.5261 6.13399 17.4356 4.35788 17.2632C4.26687 17.2477 4.16855 17.2358 4.06491 17.2236C3.53922 17.1606 2.81962 17.0745 2.26628 16.4383L2.25328 16.4238C1.87242 16.009 1.63677 14.9692 1.57689 14.4077C1.56572 14.2749 1.40642 12.3382 1.40642 10.4537V8.57656C1.40642 6.72012 1.56133 4.80818 1.57634 4.62885C1.64757 4.05871 1.89476 3.01413 2.26628 2.59194C2.88224 1.88381 3.53171 1.80534 3.96127 1.75348C4.00229 1.7485 4.04056 1.74391 4.0759 1.73912C7.1894 1.50601 11.8333 1.47137 11.9999 1.47003C12.1665 1.47118 16.8088 1.50601 19.8946 1.73912C19.9325 1.7441 19.9739 1.74907 20.0184 1.75443C20.4602 1.80706 21.128 1.88668 21.7409 2.56993L21.7465 2.57624C22.1274 2.99097 22.3631 4.04895 22.4229 4.62177C22.4335 4.74713 22.5934 6.68797 22.5934 8.57656V10.4537Z" fill="white"/>
</g>
</svg>
